<svg width="16" height="16" viewBox="0 0 16 16" fill="none" xmlns="http://www.w3.org/2000/svg">
<mask id="path-1-inside-1_149_5549" fill="white">
<path d="M12.75 4V10.5C12.75 10.6989 12.671 10.8897 12.5303 11.0303C12.3896 11.171 12.1989 11.25 12 11.25C11.8011 11.25 11.6103 11.171 11.4696 11.0303C11.329 10.8897 11.25 10.6989 11.25 10.5V5.8125L4.5306 12.5306C4.3897 12.6715 4.19861 12.7507 3.99935 12.7507C3.80009 12.7507 3.60899 12.6715 3.4681 12.5306C3.3272 12.3897 3.24805 12.1986 3.24805 11.9994C3.24805 11.8001 3.3272 11.609 3.4681 11.4681L10.1875 4.75H5.49997C5.30106 4.75 5.11029 4.67098 4.96964 4.53033C4.82899 4.38968 4.74997 4.19891 4.74997 4C4.74997 3.80109 4.82899 3.61032 4.96964 3.46967C5.11029 3.32902 5.30106 3.25 5.49997 3.25H12C12.1989 3.25 12.3896 3.32902 12.5303 3.46967C12.671 3.61032 12.75 3.80109 12.75 4Z"/>
</mask>
<path d="M11.25 5.8125H13.25V0.984708L9.83589 4.39815L11.25 5.8125ZM4.5306 12.5306L3.11652 11.1163L3.11638 11.1164L4.5306 12.5306ZM3.24805 11.9994L5.24805 11.9994L3.24805 11.9994ZM3.4681 11.4681L2.05402 10.0538L2.05388 10.0539L3.4681 11.4681ZM10.1875 4.75L11.6016 6.16435L15.0165 2.75H10.1875V4.75ZM5.49997 4.75V6.75V4.75ZM4.74997 4L2.74997 4L4.74997 4ZM5.49997 3.25L5.49997 1.25L5.49997 3.25ZM12.75 4H10.75V10.5H12.75H14.75V4H12.75ZM12.75 10.5H10.75C10.75 10.1685 10.8817 9.85053 11.1161 9.61612L12.5303 11.0303L13.9445 12.4445C14.4602 11.9288 14.75 11.2294 14.75 10.5H12.75ZM12.5303 11.0303L11.1161 9.61612C11.3505 9.3817 11.6684 9.25 12 9.25V11.25V13.25C12.7293 13.25 13.4288 12.9603 13.9445 12.4445L12.5303 11.0303ZM12 11.25V9.25C12.3315 9.25 12.6494 9.3817 12.8839 9.61612L11.4696 11.0303L10.0554 12.4445C10.5712 12.9603 11.2706 13.25 12 13.25V11.25ZM11.4696 11.0303L12.8839 9.61612C13.1183 9.85054 13.25 10.1685 13.25 10.5H11.25H9.24997C9.24997 11.2293 9.5397 11.9288 10.0554 12.4445L11.4696 11.0303ZM11.25 10.5H13.25V5.8125H11.25H9.24997V10.5H11.25ZM11.25 5.8125L9.83589 4.39815L3.11652 11.1163L4.5306 12.5306L5.94468 13.945L12.6641 7.22685L11.25 5.8125ZM4.5306 12.5306L3.11638 11.1164C3.35056 10.8822 3.66817 10.7507 3.99935 10.7507V12.7507V14.7507C4.72904 14.7507 5.42884 14.4608 5.94481 13.9448L4.5306 12.5306ZM3.99935 12.7507V10.7507C4.33052 10.7507 4.64813 10.8822 4.88231 11.1164L3.4681 12.5306L2.05388 13.9448C2.56985 14.4608 3.26966 14.7507 3.99935 14.7507V12.7507ZM3.4681 12.5306L4.88231 11.1164C5.11649 11.3506 5.24805 11.6682 5.24805 11.9994H3.24805H1.24805C1.24805 12.7291 1.53792 13.4289 2.05388 13.9448L3.4681 12.5306ZM3.24805 11.9994L5.24805 11.9994C5.24805 12.3306 5.11649 12.6482 4.88231 12.8823L3.4681 11.4681L2.05388 10.0539C1.53792 10.5699 1.24805 11.2697 1.24805 11.9994L3.24805 11.9994ZM3.4681 11.4681L4.88218 12.8825L11.6016 6.16435L10.1875 4.75L8.77339 3.33565L2.05402 10.0538L3.4681 11.4681ZM10.1875 4.75V2.75H5.49997V4.75V6.75H10.1875V4.75ZM5.49997 4.75L5.49997 2.75C5.83149 2.75 6.14944 2.8817 6.38386 3.11612L4.96964 4.53033L3.55543 5.94454C4.07115 6.46027 4.77063 6.75 5.49997 6.75L5.49997 4.75ZM4.96964 4.53033L6.38386 3.11612C6.61828 3.35054 6.74997 3.66848 6.74997 4L4.74997 4L2.74997 4C2.74997 4.72934 3.0397 5.42882 3.55543 5.94454L4.96964 4.53033ZM4.74997 4H6.74997C6.74997 4.33152 6.61828 4.64946 6.38386 4.88388L4.96964 3.46967L3.55543 2.05546C3.0397 2.57118 2.74997 3.27066 2.74997 4H4.74997ZM4.96964 3.46967L6.38386 4.88388C6.14944 5.1183 5.83149 5.25 5.49997 5.25L5.49997 3.25L5.49997 1.25C4.77063 1.25 4.07115 1.53973 3.55543 2.05546L4.96964 3.46967ZM5.49997 3.25V5.25H12V3.25V1.25H5.49997V3.25ZM12 3.25V5.25C11.6684 5.25 11.3505 5.1183 11.1161 4.88388L12.5303 3.46967L13.9445 2.05546C13.4288 1.53973 12.7293 1.25 12 1.25V3.25ZM12.5303 3.46967L11.1161 4.88388C10.8817 4.64947 10.75 4.33153 10.75 4H12.75H14.75C14.75 3.27065 14.4602 2.57118 13.9445 2.05546L12.5303 3.46967Z" fill="#525252" mask="url(#path-1-inside-1_149_5549)"/>
</svg>
