<svg width="24" height="24" viewBox="0 0 24 24" fill="none" xmlns="http://www.w3.org/2000/svg">
<path d="M16.498 13.3721C16.5317 13.3721 16.5641 13.3854 16.5879 13.4092L19.5879 16.4092L19.5889 16.4111C19.6004 16.4226 19.6099 16.4361 19.6162 16.4512C19.6225 16.4662 19.6259 16.4827 19.626 16.499C19.626 16.5154 19.6224 16.5318 19.6162 16.5469C19.61 16.562 19.6014 16.5763 19.5898 16.5879L16.5889 19.5889C16.5651 19.6126 16.5326 19.6259 16.499 19.626C16.4654 19.626 16.433 19.6126 16.4092 19.5889C16.3854 19.5651 16.3721 19.5327 16.3721 19.499C16.3721 19.4658 16.385 19.4339 16.4082 19.4102L17.4873 18.333L19.1982 16.625H4.5C4.46685 16.625 4.43458 16.6113 4.41113 16.5879C4.38793 16.5645 4.37501 16.533 4.375 16.5C4.375 16.4668 4.38769 16.4346 4.41113 16.4111C4.43457 16.3877 4.46688 16.375 4.5 16.375H19.1963L17.4883 14.668L16.4082 13.5889C16.3844 13.5651 16.3711 13.5327 16.3711 13.499C16.3711 13.4654 16.3844 13.433 16.4082 13.4092C16.432 13.3854 16.4644 13.3721 16.498 13.3721ZM7.49902 4.37207C7.53263 4.37211 7.5651 4.38541 7.58887 4.40918C7.61262 4.43298 7.62598 4.46539 7.62598 4.49902C7.62598 4.53265 7.61262 4.56507 7.58887 4.58887L7.58789 4.58984L6.51074 5.66895L4.80762 7.375H19.5C19.5329 7.37505 19.5645 7.38797 19.5879 7.41113C19.6113 7.43458 19.625 7.46685 19.625 7.5C19.625 7.5331 19.6113 7.56447 19.5879 7.58789C19.5645 7.61128 19.5331 7.62495 19.5 7.625H4.80469L7.58887 10.4092C7.61262 10.433 7.62598 10.4654 7.62598 10.499C7.62598 10.5327 7.61262 10.5651 7.58887 10.5889C7.5651 10.6126 7.53263 10.6259 7.49902 10.626C7.46539 10.626 7.43298 10.6126 7.40918 10.5889L4.4082 7.58789L4.38086 7.54688C4.37455 7.53168 4.37109 7.51548 4.37109 7.49902C4.37109 7.48257 4.37455 7.46637 4.38086 7.45117C4.38717 7.43598 4.39655 7.42177 4.4082 7.41016L7.40918 4.40918C7.43298 4.38542 7.46539 4.37207 7.49902 4.37207Z" stroke="#525252" stroke-width="2"/>
</svg>
