<svg width="24" height="24" viewBox="0 0 24 24" fill="none" xmlns="http://www.w3.org/2000/svg">
<path d="M19.501 4.52539C19.534 4.52572 19.5657 4.53905 19.5889 4.5625L19.5898 4.56348C21.5385 6.54735 22.6288 9.21823 22.625 11.999V12.002C22.6282 14.782 21.538 17.4522 19.5898 19.4355L19.5771 19.4482L19.5654 19.4609C19.5541 19.4732 19.5406 19.4833 19.5254 19.4902C19.5101 19.4972 19.4933 19.5015 19.4766 19.502C19.4599 19.5024 19.4432 19.4992 19.4277 19.4932C19.4121 19.487 19.3977 19.4775 19.3857 19.4658C19.3739 19.4542 19.3648 19.4401 19.3584 19.4248C19.352 19.4094 19.3486 19.3927 19.3486 19.376C19.3487 19.3593 19.3518 19.3425 19.3584 19.3271C19.365 19.3118 19.3747 19.2977 19.3867 19.2861L19.3984 19.2754L19.4102 19.2637C21.3142 17.3256 22.3809 14.7169 22.3809 12C22.3808 9.28332 21.314 6.67524 19.4102 4.7373H19.4092C19.3867 4.7138 19.3747 4.682 19.375 4.64941C19.3753 4.61642 19.3886 4.5847 19.4121 4.56152C19.4357 4.53836 19.4679 4.52511 19.501 4.52539ZM4.46387 4.56543C4.49596 4.56585 4.52685 4.57912 4.5498 4.60156C4.57268 4.624 4.58579 4.6545 4.58691 4.68652C4.58802 4.71849 4.57685 4.74947 4.55566 4.77344C2.67352 6.70766 1.61925 9.29986 1.61914 12C1.61914 14.7162 2.6857 17.3238 4.58887 19.2617V19.2627C4.61205 19.2864 4.6253 19.3184 4.625 19.3516C4.62467 19.3846 4.61135 19.4163 4.58789 19.4395C4.5643 19.4626 4.53205 19.4758 4.49902 19.4756C4.48258 19.4754 4.46603 19.4721 4.45117 19.4658L4.41016 19.4375C2.46232 17.4529 1.37109 14.7827 1.37109 12.002C1.37118 9.23401 2.45276 6.57642 4.38379 4.59473C4.40646 4.57622 4.43444 4.56505 4.46387 4.56543ZM6.96191 7.37598C6.99492 7.37414 7.02707 7.38526 7.05176 7.40723C7.07641 7.42927 7.09184 7.46015 7.09375 7.49316C7.09468 7.50979 7.09234 7.52659 7.08691 7.54199L7.0625 7.58301C5.9743 8.79686 5.37217 10.3698 5.37207 12C5.37207 13.6302 5.97447 15.2031 7.0625 16.417C7.08449 16.4417 7.09559 16.4748 7.09375 16.5078C7.0918 16.5408 7.07637 16.5717 7.05176 16.5938C7.02709 16.6157 6.99488 16.6268 6.96191 16.625C6.92893 16.6232 6.89807 16.6085 6.87598 16.584L6.875 16.583C5.74684 15.3232 5.12305 13.6911 5.12305 12C5.12315 10.3091 5.74698 8.67767 6.875 7.41797L6.87598 7.41699C6.89807 7.3924 6.9289 7.37782 6.96191 7.37598ZM17.0381 7.37598C17.0545 7.37691 17.0704 7.38073 17.085 7.3877L17.124 7.41699C17.9923 8.38849 18.5671 9.58679 18.7812 10.8721C18.9953 12.1571 18.8402 13.4764 18.334 14.6768C18.0388 15.3745 17.6304 16.0186 17.125 16.583L17.124 16.584C17.102 16.6085 17.0711 16.6231 17.0381 16.625C17.005 16.6268 16.972 16.6159 16.9473 16.5938C16.9227 16.5717 16.9082 16.5407 16.9062 16.5078C16.9044 16.4748 16.9155 16.4417 16.9375 16.417L16.9365 16.416C18.0245 15.2021 18.627 13.6301 18.627 12C18.6269 10.4716 18.0986 8.99342 17.1357 7.81445L16.9365 7.58301C16.915 7.55842 16.9044 7.52581 16.9062 7.49316C16.9082 7.46026 16.9228 7.42926 16.9473 7.40723C16.972 7.38512 17.005 7.37413 17.0381 7.37598ZM11.999 8.875C12.8277 8.876 13.622 9.20609 14.208 9.79199C14.7575 10.3414 15.082 11.0743 15.1211 11.8467L15.125 12.002C15.1247 12.6193 14.9416 13.2229 14.5986 13.7363C14.2553 14.2502 13.7663 14.6512 13.1953 14.8877C12.6245 15.124 11.9965 15.1859 11.3906 15.0654C10.7844 14.9449 10.2271 14.647 9.79004 14.21C9.35314 13.773 9.05516 13.2164 8.93457 12.6104C8.81401 12.0043 8.87589 11.3756 9.1123 10.8047C9.3488 10.2337 9.74986 9.74572 10.2637 9.40234C10.7773 9.05913 11.3813 8.87518 11.999 8.875ZM13.1006 9.34473C12.5754 9.12718 11.997 9.06984 11.4395 9.18066C10.8818 9.2916 10.3689 9.5657 9.9668 9.96777C9.56485 10.3698 9.2906 10.8819 9.17969 11.4395C9.06876 11.9971 9.12616 12.5753 9.34375 13.1006C9.5613 13.6258 9.92971 14.0747 10.4023 14.3906C10.8751 14.7065 11.4314 14.875 12 14.875C12.7625 14.875 13.4941 14.5724 14.0332 14.0332C14.5722 13.4941 14.875 12.7624 14.875 12C14.8749 11.4316 14.7064 10.8759 14.3906 10.4033C14.0748 9.9307 13.6257 9.56236 13.1006 9.34473Z" stroke="#525252" stroke-width="2"/>
</svg>
