<svg width="12" height="13" viewBox="0 0 12 13" fill="none" xmlns="http://www.w3.org/2000/svg">
<mask id="path-1-inside-1_71_16332" fill="white">
<path d="M10.1479 5.39799L6.39795 9.14799C6.34569 9.20043 6.28359 9.24204 6.21522 9.27043C6.14685 9.29882 6.07354 9.31343 5.99951 9.31343C5.92548 9.31343 5.85217 9.29882 5.7838 9.27043C5.71543 9.24204 5.65333 9.20043 5.60107 9.14799L1.85107 5.39799C1.7454 5.29232 1.68604 5.149 1.68604 4.99955C1.68604 4.85011 1.7454 4.70679 1.85107 4.60111C1.95675 4.49544 2.10007 4.43608 2.24951 4.43608C2.39895 4.43608 2.54228 4.49544 2.64795 4.60111L5.99998 7.95315L9.35201 4.60065C9.45768 4.49497 9.601 4.43561 9.75045 4.43561C9.89989 4.43561 10.0432 4.49497 10.1489 4.60065C10.2546 4.70632 10.3139 4.84964 10.3139 4.99908C10.3139 5.14853 10.2546 5.29185 10.1489 5.39752L10.1479 5.39799Z"/>
</mask>
<path d="M10.1479 5.39799L9.25352 3.60914L8.96323 3.75428L8.73373 3.98378L10.1479 5.39799ZM6.39795 9.14799L4.98373 7.73377L4.98128 7.73623L6.39795 9.14799ZM5.60107 9.14799L7.01774 7.73623L7.01529 7.73378L5.60107 9.14799ZM1.85107 5.39799L3.26529 3.98378L3.26529 3.98378L1.85107 5.39799ZM1.68604 4.99955L-0.313965 4.99955L1.68604 4.99955ZM2.24951 4.43608L2.24951 6.43608L2.24951 4.43608ZM2.64795 4.60111L4.06216 3.1869L4.06216 3.1869L2.64795 4.60111ZM5.99998 7.95315L4.58577 9.36736L6.00008 10.7817L7.41429 9.36726L5.99998 7.95315ZM9.35201 4.60065L7.9378 3.18643L7.9377 3.18653L9.35201 4.60065ZM10.1489 5.39752L11.0433 7.18638L11.3336 7.04123L11.5631 6.81173L10.1489 5.39752ZM10.1479 5.39799L8.73373 3.98378L4.98373 7.73378L6.39795 9.14799L7.81216 10.5622L11.5622 6.8122L10.1479 5.39799ZM6.39795 9.14799L4.98128 7.73623C5.11484 7.60221 5.27353 7.49588 5.44825 7.42333L6.21522 9.27043L6.98219 11.1175C7.29366 10.9882 7.57654 10.7986 7.81462 10.5597L6.39795 9.14799ZM6.21522 9.27043L5.44825 7.42333C5.62297 7.35078 5.8103 7.31343 5.99951 7.31343V9.31343V11.3134C6.33678 11.3134 6.67073 11.2469 6.98219 11.1175L6.21522 9.27043ZM5.99951 9.31343V7.31343C6.18872 7.31343 6.37605 7.35079 6.55077 7.42333L5.7838 9.27043L5.01683 11.1175C5.3283 11.2469 5.66224 11.3134 5.99951 11.3134V9.31343ZM5.7838 9.27043L6.55077 7.42333C6.72549 7.49588 6.88418 7.60221 7.01774 7.73623L5.60107 9.14799L4.18441 10.5597C4.42248 10.7986 4.70536 10.9882 5.01683 11.1175L5.7838 9.27043ZM5.60107 9.14799L7.01529 7.73378L3.26529 3.98378L1.85107 5.39799L0.43686 6.8122L4.18686 10.5622L5.60107 9.14799ZM1.85107 5.39799L3.26529 3.98378C3.53469 4.25318 3.68604 4.61856 3.68604 4.99955L1.68604 4.99955L-0.313965 4.99955C-0.313965 5.67943 -0.0438846 6.33146 0.43686 6.8122L1.85107 5.39799ZM1.68604 4.99955L3.68604 4.99955C3.68604 5.38054 3.53469 5.74593 3.26529 6.01533L1.85107 4.60111L0.43686 3.1869C-0.0438846 3.66765 -0.313965 4.31968 -0.313965 4.99955L1.68604 4.99955ZM1.85107 4.60111L3.26529 6.01533C2.99589 6.28473 2.6305 6.43608 2.24951 6.43608L2.24951 4.43608L2.24951 2.43608C1.56964 2.43608 0.917606 2.70616 0.43686 3.1869L1.85107 4.60111ZM2.24951 4.43608L2.24951 6.43608C1.86852 6.43608 1.50314 6.28473 1.23373 6.01533L2.64795 4.60111L4.06216 3.1869C3.58142 2.70616 2.92939 2.43608 2.24951 2.43608L2.24951 4.43608ZM2.64795 4.60111L1.23373 6.01533L4.58577 9.36736L5.99998 7.95315L7.41419 6.53893L4.06216 3.1869L2.64795 4.60111ZM5.99998 7.95315L7.41429 9.36726L10.7663 6.01476L9.35201 4.60065L7.9377 3.18653L4.58567 6.53903L5.99998 7.95315ZM9.35201 4.60065L10.7662 6.01486C10.4968 6.28426 10.1314 6.43561 9.75045 6.43561V4.43561V2.43561C9.07057 2.43561 8.41854 2.70569 7.9378 3.18643L9.35201 4.60065ZM9.75045 4.43561V6.43561C9.36946 6.43561 9.00407 6.28426 8.73467 6.01486L10.1489 4.60065L11.5631 3.18643C11.0824 2.70569 10.4303 2.43561 9.75045 2.43561V4.43561ZM10.1489 4.60065L8.73467 6.01486C8.46528 5.74547 8.31392 5.38009 8.31392 4.99908H10.3139H12.3139C12.3139 4.3192 12.0438 3.66717 11.5631 3.18643L10.1489 4.60065ZM10.3139 4.99908H8.31392C8.31392 4.61808 8.46528 4.2527 8.73467 3.98331L10.1489 5.39752L11.5631 6.81173C12.0438 6.331 12.3139 5.67897 12.3139 4.99908H10.3139ZM10.1489 5.39752L9.25446 3.60867L9.25352 3.60914L10.1479 5.39799L11.0424 7.18684L11.0433 7.18638L10.1489 5.39752Z" fill="#525252" mask="url(#path-1-inside-1_71_16332)"/>
</svg>
