<svg width="16" height="16" viewBox="0 0 16 16" fill="none" xmlns="http://www.w3.org/2000/svg">
<mask id="path-1-inside-1_71_18575" fill="white">
<path d="M11.5306 10.4694C11.6005 10.539 11.656 10.6218 11.6938 10.713C11.7317 10.8042 11.7512 10.9019 11.7512 11.0006C11.7512 11.0993 11.7317 11.1971 11.6938 11.2882C11.656 11.3794 11.6005 11.4622 11.5306 11.5319L8.5306 14.5319C8.46092 14.6018 8.37813 14.6573 8.28696 14.6951C8.1958 14.733 8.09806 14.7524 7.99935 14.7524C7.90064 14.7524 7.8029 14.733 7.71173 14.6951C7.62057 14.6573 7.53778 14.6018 7.4681 14.5319L4.4681 11.5319C4.3272 11.391 4.24805 11.1999 4.24805 11.0006C4.24805 10.8013 4.3272 10.6103 4.4681 10.4694C4.60899 10.3285 4.80009 10.2493 4.99935 10.2493C5.19861 10.2493 5.3897 10.3285 5.5306 10.4694L7.99997 12.9375L10.4693 10.4675C10.5391 10.3979 10.6219 10.3427 10.7131 10.3051C10.8042 10.2675 10.9018 10.2483 11.0004 10.2485C11.0989 10.2486 11.1965 10.2682 11.2875 10.3061C11.3784 10.344 11.4611 10.3995 11.5306 10.4694ZM5.5306 5.53186L7.99997 3.06248L10.4693 5.53248C10.6102 5.67338 10.8013 5.75253 11.0006 5.75253C11.1999 5.75253 11.391 5.67338 11.5318 5.53248C11.6727 5.39158 11.7519 5.20049 11.7519 5.00123C11.7519 4.80197 11.6727 4.61088 11.5318 4.46998L8.53185 1.46998C8.46217 1.40006 8.37938 1.34458 8.28821 1.30673C8.19705 1.26888 8.09931 1.24939 8.0006 1.24939C7.90189 1.24939 7.80415 1.26888 7.71298 1.30673C7.62182 1.34458 7.53903 1.40006 7.46935 1.46998L4.46935 4.46998C4.32845 4.61088 4.2493 4.80197 4.2493 5.00123C4.2493 5.20049 4.32845 5.39158 4.46935 5.53248C4.61024 5.67338 4.80134 5.75253 5.0006 5.75253C5.19986 5.75253 5.39095 5.67338 5.53185 5.53248L5.5306 5.53186Z"/>
</mask>
<path d="M11.5306 10.4694L10.1131 11.8803L10.1188 11.886L11.5306 10.4694ZM11.5306 11.5319L10.1188 10.1152L10.1164 10.1176L11.5306 11.5319ZM8.5306 14.5319L7.11638 13.1176L7.11393 13.1201L8.5306 14.5319ZM7.4681 14.5319L8.88477 13.1201L8.88231 13.1176L7.4681 14.5319ZM4.4681 11.5319L3.05388 12.9461L3.05388 12.9461L4.4681 11.5319ZM4.24805 11.0006L6.24805 11.0006L4.24805 11.0006ZM4.99935 10.2493L4.99935 12.2493L4.99935 10.2493ZM5.5306 10.4694L4.11638 11.8836L4.11674 11.8839L5.5306 10.4694ZM7.99997 12.9375L6.58612 14.3521L8.00051 15.7657L9.41437 14.3515L7.99997 12.9375ZM10.4693 10.4675L9.05684 9.05156L9.05495 9.05345L10.4693 10.4675ZM5.5306 5.53186L4.11638 4.11764L2.15364 6.08039L4.63672 7.32098L5.5306 5.53186ZM7.99997 3.06248L9.41437 1.64845L8.00015 0.233875L6.58576 1.64827L7.99997 3.06248ZM10.4693 5.53248L9.05495 6.94652L9.05513 6.94669L10.4693 5.53248ZM11.7519 5.00123L9.7519 5.00123L11.7519 5.00123ZM11.5318 4.46998L12.9461 3.05577L12.9461 3.05577L11.5318 4.46998ZM8.53185 1.46998L7.11518 2.88174L7.11763 2.88419L8.53185 1.46998ZM8.0006 1.24939L8.0006 -0.75061L8.0006 1.24939ZM7.46935 1.46998L8.88356 2.8842L8.88601 2.88174L7.46935 1.46998ZM4.46935 4.46998L3.05513 3.05577L3.05513 3.05577L4.46935 4.46998ZM4.2493 5.00123L2.2493 5.00123L4.2493 5.00123ZM5.0006 5.75253L5.0006 7.75253L5.0006 5.75253ZM5.53185 5.53248L6.94606 6.94669L8.90881 4.98395L6.42573 3.74335L5.53185 5.53248ZM11.5306 10.4694L10.1188 11.886C10.0023 11.7699 9.90984 11.6319 9.84676 11.48L11.6938 10.713L13.5409 9.94602C13.4021 9.61176 13.1987 9.30818 12.9424 9.05269L11.5306 10.4694ZM11.6938 10.713L9.84676 11.48C9.78367 11.328 9.75119 11.1651 9.75119 11.0006H11.7512H13.7512C13.7512 10.6387 13.6797 10.2803 13.5409 9.94602L11.6938 10.713ZM11.7512 11.0006H9.75119C9.75119 10.8361 9.78367 10.6732 9.84676 10.5212L11.6938 11.2882L13.5409 12.0552C13.6797 11.7209 13.7512 11.3626 13.7512 11.0006H11.7512ZM11.6938 11.2882L9.84676 10.5212C9.90984 10.3693 10.0023 10.2313 10.1188 10.1152L11.5306 11.5319L12.9424 12.9485C13.1987 12.693 13.4021 12.3894 13.5409 12.0552L11.6938 11.2882ZM11.5306 11.5319L10.1164 10.1176L7.11638 13.1176L8.5306 14.5319L9.94481 15.9461L12.9448 12.9461L11.5306 11.5319ZM8.5306 14.5319L7.11393 13.1201C7.23006 13.0036 7.36805 12.9111 7.51999 12.848L8.28696 14.6951L9.05393 16.5422C9.3882 16.4034 9.69178 16.2 9.94726 15.9436L8.5306 14.5319ZM8.28696 14.6951L7.51999 12.848C7.67193 12.7849 7.83483 12.7524 7.99935 12.7524V14.7524V16.7524C8.36128 16.7524 8.71966 16.681 9.05393 16.5422L8.28696 14.6951ZM7.99935 14.7524V12.7524C8.16386 12.7524 8.32676 12.7849 8.4787 12.848L7.71173 14.6951L6.94476 16.5422C7.27903 16.681 7.63741 16.7524 7.99935 16.7524V14.7524ZM7.71173 14.6951L8.4787 12.848C8.63065 12.9111 8.76864 13.0036 8.88476 13.1201L7.4681 14.5319L6.05143 15.9436C6.30691 16.2 6.61049 16.4034 6.94476 16.5422L7.71173 14.6951ZM7.4681 14.5319L8.88231 13.1176L5.88231 10.1176L4.4681 11.5319L3.05388 12.9461L6.05388 15.9461L7.4681 14.5319ZM4.4681 11.5319L5.88231 10.1176C6.11649 10.3518 6.24805 10.6694 6.24805 11.0006L4.24805 11.0006L2.24805 11.0006C2.24805 11.7303 2.53791 12.4301 3.05388 12.9461L4.4681 11.5319ZM4.24805 11.0006L6.24805 11.0006C6.24805 11.3318 6.11649 11.6494 5.88231 11.8836L4.4681 10.4694L3.05388 9.05514C2.53791 9.57111 2.24805 10.2709 2.24805 11.0006L4.24805 11.0006ZM4.4681 10.4694L5.88231 11.8836C5.64813 12.1177 5.33052 12.2493 4.99935 12.2493L4.99935 10.2493L4.99935 8.2493C4.26966 8.2493 3.56985 8.53917 3.05388 9.05514L4.4681 10.4694ZM4.99935 10.2493L4.99935 12.2493C4.66817 12.2493 4.35056 12.1177 4.11638 11.8836L5.5306 10.4694L6.94481 9.05514C6.42884 8.53917 5.72904 8.2493 4.99935 8.2493L4.99935 10.2493ZM5.5306 10.4694L4.11674 11.8839L6.58612 14.3521L7.99997 12.9375L9.41383 11.5229L6.94445 9.05478L5.5306 10.4694ZM7.99997 12.9375L9.41437 14.3515L11.8837 11.8815L10.4693 10.4675L9.05495 9.05345L6.58558 11.5234L7.99997 12.9375ZM10.4693 10.4675L11.8819 11.8834C11.7656 11.9994 11.6275 12.0914 11.4757 12.154L10.7131 10.3051L9.95044 8.45622C9.61635 8.59402 9.3127 8.79632 9.05684 9.05156L10.4693 10.4675ZM10.7131 10.3051L11.4757 12.154C11.3238 12.2167 11.1611 12.2487 10.9968 12.2485L11.0004 10.2485L11.0039 8.24846C10.6425 8.24782 10.2845 8.31842 9.95044 8.45622L10.7131 10.3051ZM11.0004 10.2485L10.9968 12.2485C10.8326 12.2482 10.67 12.2155 10.5183 12.1523L11.2875 10.3061L12.0566 8.45994C11.723 8.32096 11.3653 8.24909 11.0039 8.24846L11.0004 10.2485ZM11.2875 10.3061L10.5183 12.1523C10.3667 12.0891 10.229 11.9967 10.1131 11.8803L11.5306 10.4694L12.9481 9.05843C12.6931 8.80229 12.3902 8.59892 12.0566 8.45994L11.2875 10.3061ZM5.5306 5.53186L6.94481 6.94607L9.41419 4.47669L7.99997 3.06248L6.58576 1.64827L4.11638 4.11764L5.5306 5.53186ZM7.99997 3.06248L6.58558 4.47652L9.05495 6.94652L10.4693 5.53248L11.8837 4.11845L9.41437 1.64845L7.99997 3.06248ZM10.4693 5.53248L9.05513 6.94669C9.5711 7.46266 10.2709 7.75253 11.0006 7.75253L11.0006 5.75253L11.0006 3.75253C11.3318 3.75253 11.6494 3.88409 11.8836 4.11827L10.4693 5.53248ZM11.0006 5.75253L11.0006 7.75253C11.7303 7.75253 12.4301 7.46266 12.9461 6.94669L11.5318 5.53248L10.1176 4.11827C10.3518 3.88409 10.6694 3.75253 11.0006 3.75253L11.0006 5.75253ZM11.5318 5.53248L12.9461 6.94669C13.462 6.43072 13.7519 5.73092 13.7519 5.00123L11.7519 5.00123L9.7519 5.00123C9.7519 4.67006 9.88346 4.35244 10.1176 4.11827L11.5318 5.53248ZM11.7519 5.00123L13.7519 5.00123C13.7519 4.27154 13.462 3.57174 12.9461 3.05577L11.5318 4.46998L10.1176 5.88419C9.88346 5.65002 9.7519 5.33241 9.7519 5.00123L11.7519 5.00123ZM11.5318 4.46998L12.9461 3.05577L9.94606 0.0557674L8.53185 1.46998L7.11763 2.88419L10.1176 5.88419L11.5318 4.46998ZM8.53185 1.46998L9.94851 0.0582249C9.69303 -0.198148 9.38945 -0.401566 9.05518 -0.540365L8.28821 1.30673L7.52124 3.15382C7.3693 3.09073 7.23131 2.99827 7.11518 2.88174L8.53185 1.46998ZM8.28821 1.30673L9.05518 -0.540365C8.72091 -0.679163 8.36254 -0.75061 8.0006 -0.75061L8.0006 1.24939L8.0006 3.24939C7.83608 3.24939 7.67318 3.21691 7.52124 3.15382L8.28821 1.30673ZM8.0006 1.24939L8.0006 -0.75061C7.63866 -0.75061 7.28028 -0.679163 6.94601 -0.540365L7.71298 1.30673L8.47995 3.15382C8.32802 3.21691 8.16512 3.24939 8.0006 3.24939L8.0006 1.24939ZM7.71298 1.30673L6.94601 -0.540365C6.61175 -0.401566 6.30817 -0.198148 6.05268 0.0582249L7.46935 1.46998L8.88601 2.88174C8.76989 2.99827 8.63189 3.09073 8.47995 3.15382L7.71298 1.30673ZM7.46935 1.46998L6.05513 0.0557674L3.05513 3.05577L4.46935 4.46998L5.88356 5.88419L8.88356 2.88419L7.46935 1.46998ZM4.46935 4.46998L3.05513 3.05577C2.53917 3.57173 2.2493 4.27154 2.2493 5.00123L4.2493 5.00123L6.2493 5.00123C6.2493 5.33241 6.11774 5.65002 5.88356 5.88419L4.46935 4.46998ZM4.2493 5.00123L2.2493 5.00123C2.2493 5.73092 2.53917 6.43073 3.05513 6.94669L4.46935 5.53248L5.88356 4.11827C6.11774 4.35244 6.2493 4.67005 6.2493 5.00123L4.2493 5.00123ZM4.46935 5.53248L3.05513 6.94669C3.5711 7.46266 4.27091 7.75253 5.0006 7.75253L5.0006 5.75253L5.0006 3.75253C5.33178 3.75253 5.64939 3.88409 5.88356 4.11827L4.46935 5.53248ZM5.0006 5.75253L5.0006 7.75253C5.73029 7.75253 6.43009 7.46266 6.94606 6.94669L5.53185 5.53248L4.11763 4.11827C4.35181 3.88409 4.66942 3.75253 5.0006 3.75253L5.0006 5.75253ZM5.53185 5.53248L6.42573 3.74335L6.42448 3.74273L5.5306 5.53186L4.63672 7.32098L4.63797 7.32161L5.53185 5.53248Z" fill="#525252" mask="url(#path-1-inside-1_71_18575)"/>
</svg>
