<svg width="12" height="12" viewBox="0 0 12 12" fill="none" xmlns="http://www.w3.org/2000/svg">
<mask id="path-1-inside-1_72_13631" fill="white">
<path d="M8.64795 6.39795L4.89795 10.1479C4.79228 10.2536 4.64895 10.313 4.49951 10.313C4.35007 10.313 4.20675 10.2536 4.10107 10.1479C3.9954 10.0423 3.93604 9.89895 3.93604 9.74951C3.93604 9.60007 3.9954 9.45675 4.10107 9.35107L7.4531 5.99998L4.10201 2.64795C4.04969 2.59562 4.00818 2.53351 3.97986 2.46514C3.95155 2.39678 3.93697 2.32351 3.93697 2.24951C3.93697 2.17551 3.95155 2.10224 3.97986 2.03388C4.00818 1.96551 4.04969 1.9034 4.10201 1.85107C4.15433 1.79875 4.21645 1.75724 4.28482 1.72893C4.35318 1.70061 4.42645 1.68604 4.50045 1.68604C4.57445 1.68604 4.64772 1.70061 4.71608 1.72893C4.78445 1.75724 4.84656 1.79875 4.89889 1.85107L8.64889 5.60107C8.70126 5.65339 8.7428 5.71554 8.77111 5.78394C8.79942 5.85235 8.81395 5.92567 8.81386 5.99971C8.81377 6.07374 8.79907 6.14703 8.7706 6.21537C8.74213 6.2837 8.70045 6.34575 8.64795 6.39795Z"/>
</mask>
<path d="M8.64795 6.39795L7.23786 4.97962L7.23374 4.98373L8.64795 6.39795ZM4.89795 10.1479L3.48373 8.73373L3.48373 8.73373L4.89795 10.1479ZM4.49951 10.313L4.49951 8.31299L4.49951 10.313ZM4.10107 9.35107L2.68706 7.93666L2.68686 7.93686L4.10107 9.35107ZM7.4531 5.99998L8.86712 7.41439L10.2815 6.00038L8.86752 4.58596L7.4531 5.99998ZM4.10201 2.64795L5.51642 1.23393L5.51622 1.23373L4.10201 2.64795ZM3.93697 2.24951L1.93697 2.24951L3.93697 2.24951ZM4.89889 1.85107L3.48467 3.26529L3.48467 3.26529L4.89889 1.85107ZM8.64889 5.60107L7.23467 7.01529L7.23547 7.01608L8.64889 5.60107ZM8.64795 6.39795L7.23374 4.98373L3.48373 8.73373L4.89795 10.1479L6.31216 11.5622L10.0622 7.81216L8.64795 6.39795ZM4.89795 10.1479L3.48373 8.73373C3.75314 8.46433 4.11852 8.31299 4.49951 8.31299L4.49951 10.313L4.49951 12.313C5.17939 12.313 5.83142 12.0429 6.31216 11.5622L4.89795 10.1479ZM4.49951 10.313L4.49951 8.31299C4.8805 8.31299 5.24589 8.46433 5.51529 8.73373L4.10107 10.1479L2.68686 11.5622C3.16761 12.0429 3.81964 12.313 4.49951 12.313L4.49951 10.313ZM4.10107 10.1479L5.51529 8.73373C5.78469 9.00314 5.93604 9.36852 5.93604 9.74951L3.93604 9.74951L1.93604 9.74951C1.93604 10.4294 2.20611 11.0814 2.68686 11.5622L4.10107 10.1479ZM3.93604 9.74951L5.93604 9.74951C5.93604 10.1305 5.78469 10.4959 5.51529 10.7653L4.10107 9.35107L2.68686 7.93686C2.20611 8.41761 1.93604 9.06964 1.93604 9.74951L3.93604 9.74951ZM4.10107 9.35107L5.51509 10.7655L8.86712 7.41439L7.4531 5.99998L6.03909 4.58557L2.68706 7.93666L4.10107 9.35107ZM7.4531 5.99998L8.86752 4.58596L5.51642 1.23393L4.10201 2.64795L2.6876 4.06196L6.03869 7.414L7.4531 5.99998ZM4.10201 2.64795L5.51622 1.23373C5.64962 1.36713 5.75543 1.52549 5.82762 1.69978L3.97986 2.46514L2.13211 3.23051C2.26093 3.54153 2.44976 3.82412 2.6878 4.06216L4.10201 2.64795ZM3.97986 2.46514L5.82762 1.69978C5.89982 1.87406 5.93697 2.06086 5.93697 2.24951L3.93697 2.24951L1.93697 2.24951C1.93697 2.58615 2.00328 2.9195 2.13211 3.23051L3.97986 2.46514ZM3.93697 2.24951L5.93697 2.24951C5.93697 2.43816 5.89982 2.62496 5.82762 2.79924L3.97986 2.03388L2.13211 1.26851C2.00328 1.57953 1.93697 1.91287 1.93697 2.24951L3.93697 2.24951ZM3.97986 2.03388L5.82762 2.79924C5.75543 2.97354 5.64961 3.1319 5.51622 3.26529L4.10201 1.85107L2.6878 0.43686C2.44976 0.674897 2.26093 0.957492 2.13211 1.26851L3.97986 2.03388ZM4.10201 1.85107L5.51622 3.26529C5.38283 3.39868 5.22447 3.50449 5.05018 3.57669L4.28482 1.72893L3.51945 -0.118832C3.20843 0.00999482 2.92584 0.198819 2.6878 0.43686L4.10201 1.85107ZM4.28482 1.72893L5.05018 3.57669C4.8759 3.64888 4.6891 3.68604 4.50045 3.68604L4.50045 1.68604L4.50045 -0.313965C4.16381 -0.313965 3.83046 -0.247658 3.51945 -0.118832L4.28482 1.72893ZM4.50045 1.68604L4.50045 3.68604C4.3118 3.68604 4.125 3.64888 3.95071 3.57669L4.71608 1.72893L5.48145 -0.118832C5.17043 -0.247658 4.83709 -0.313965 4.50045 -0.313965L4.50045 1.68604ZM4.71608 1.72893L3.95071 3.57669C3.77643 3.50449 3.61807 3.39868 3.48467 3.26529L4.89889 1.85107L6.3131 0.43686C6.07506 0.198819 5.79246 0.00999479 5.48145 -0.118832L4.71608 1.72893ZM4.89889 1.85107L3.48467 3.26529L7.23467 7.01529L8.64889 5.60107L10.0631 4.18686L6.3131 0.43686L4.89889 1.85107ZM8.64889 5.60107L7.23547 7.01608C7.10161 6.88238 6.99547 6.72356 6.92312 6.54874L8.77111 5.78394L10.6191 5.01915C10.4901 4.70751 10.3009 4.42441 10.0623 4.18607L8.64889 5.60107ZM8.77111 5.78394L6.92312 6.54874C6.85077 6.37392 6.81364 6.18654 6.81386 5.99735L8.81386 5.99971L10.8139 6.00206C10.8143 5.6648 10.7481 5.33078 10.6191 5.01915L8.77111 5.78394ZM8.81386 5.99971L6.81386 5.99735C6.81409 5.80816 6.85165 5.62087 6.92441 5.44622L8.7706 6.21537L10.6168 6.98451C10.7465 6.67319 10.8135 6.33932 10.8139 6.00206L8.81386 5.99971ZM8.7706 6.21537L6.92441 5.44622C6.99717 5.27158 7.10368 5.11302 7.23786 4.97962L8.64795 6.39795L10.058 7.81628C10.2972 7.57849 10.4871 7.29582 10.6168 6.98451L8.7706 6.21537Z" fill="#A3A3A3" mask="url(#path-1-inside-1_72_13631)"/>
</svg>
