<svg width="14" height="14" viewBox="0 0 14 14" fill="none" xmlns="http://www.w3.org/2000/svg">
<mask id="path-1-inside-1_71_18649" fill="white">
<path d="M12.9249 10.2315C13.2229 9.58338 13.3659 8.87473 13.3425 8.16173C13.3191 7.44873 13.1299 6.75098 12.79 6.12378C12.4501 5.49657 11.9688 4.95715 11.3843 4.54825C10.7997 4.13935 10.1279 3.87222 9.42218 3.76802C8.90766 2.66995 7.97982 1.81987 6.84103 1.40316C5.70224 0.986454 4.44487 1.03693 3.34314 1.54358C2.24142 2.05023 1.38471 2.97196 0.95986 4.10774C0.535009 5.24352 0.576481 6.50121 1.07523 7.60654L0.701168 8.87857C0.645735 9.06707 0.642105 9.26703 0.690658 9.45742C0.739212 9.64781 0.838155 9.8216 0.97709 9.96054C1.11603 10.0995 1.28982 10.1984 1.48021 10.247C1.6706 10.2955 1.87056 10.2919 2.05906 10.2365L3.33109 9.8624C3.72643 10.0436 4.14552 10.1677 4.57578 10.231C5.0851 11.3378 6.01294 12.1971 7.15546 12.6202C8.29798 13.0433 9.56173 12.9955 10.6691 12.4874L11.9411 12.8615C12.1296 12.9169 12.3295 12.9205 12.5199 12.872C12.7103 12.8234 12.8841 12.7245 13.0231 12.5855C13.162 12.4466 13.2609 12.2728 13.3095 12.0824C13.358 11.892 13.3544 11.6921 13.299 11.5036L12.9249 10.2315ZM3.3907 8.50396C3.32793 8.50389 3.26549 8.51292 3.20531 8.53076L2.07218 8.8638L2.40632 7.73013C2.45424 7.56572 2.43599 7.38909 2.35546 7.23795C1.9834 6.54453 1.87292 5.7405 2.04418 4.97244C2.21543 4.20437 2.65702 3.52343 3.28842 3.05377C3.91982 2.5841 4.69899 2.357 5.48386 2.41385C6.26873 2.47071 7.00702 2.80774 7.56414 3.3635C8.12126 3.91927 8.4601 4.65674 8.51887 5.44147C8.57764 6.2262 8.35243 7.00591 7.88431 7.63846C7.41619 8.27101 6.73632 8.71425 5.96868 8.88738C5.20103 9.06051 4.39673 8.95199 3.70242 8.58162C3.60655 8.53031 3.49943 8.50362 3.3907 8.50396ZM11.6425 9.86021C11.562 10.0114 11.5437 10.188 11.5916 10.3524L11.9247 11.4861L10.7932 11.1563C10.6278 11.1075 10.4498 11.1258 10.2977 11.2072C9.59223 11.5844 8.77322 11.6908 7.99472 11.5065C7.21623 11.3222 6.53189 10.8599 6.07039 10.2064C7.21055 10.0004 8.23064 9.37088 8.92596 8.4441C9.62128 7.51731 9.94037 6.36185 9.81922 5.20959C10.2681 5.36423 10.6782 5.61446 11.0209 5.943C11.3637 6.27155 11.6311 6.67057 11.8047 7.11253C11.9783 7.55448 12.0538 8.02884 12.0262 8.50285C11.9986 8.97686 11.8684 9.43922 11.6447 9.85802L11.6425 9.86021Z"/>
</mask>
<path d="M12.9249 10.2315L11.1078 9.39604L10.7948 10.0769L11.0062 10.7958L12.9249 10.2315ZM9.42218 3.76802L7.61114 4.61663L8.06706 5.58963L9.13006 5.74657L9.42218 3.76802ZM1.07523 7.60654L2.99399 8.17078L3.20312 7.45962L2.89824 6.78395L1.07523 7.60654ZM0.701168 8.87857L-1.21759 8.31433L-1.21759 8.31433L0.701168 8.87857ZM2.05906 10.2365L2.6233 12.1552L2.6233 12.1552L2.05906 10.2365ZM3.33109 9.8624L4.16442 8.04428L3.48445 7.73262L2.76685 7.94364L3.33109 9.8624ZM4.57578 10.231L6.39263 9.39491L5.93942 8.41004L4.86682 8.25228L4.57578 10.231ZM10.6691 12.4874L11.2333 10.5686L10.5152 10.3575L9.83495 10.6696L10.6691 12.4874ZM11.9411 12.8615L11.3768 14.7802L11.3768 14.7802L11.9411 12.8615ZM13.299 11.5036L15.2177 10.9393L15.2177 10.9393L13.299 11.5036ZM3.3907 8.50396L3.38847 10.504L3.39694 10.504L3.3907 8.50396ZM3.20531 8.53076L3.76929 10.4496L3.77379 10.4483L3.20531 8.53076ZM2.07218 8.8638L0.153777 8.29837L-0.883336 11.8171L2.63616 10.7826L2.07218 8.8638ZM2.40632 7.73013L4.32474 8.29557L4.32644 8.28973L2.40632 7.73013ZM2.35546 7.23795L4.12059 6.29754L4.11779 6.29232L2.35546 7.23795ZM3.70242 8.58162L2.75865 10.3449L2.76109 10.3462L3.70242 8.58162ZM11.6425 9.86021L10.228 8.44627L10.0174 8.65693L9.87738 8.91981L11.6425 9.86021ZM11.5916 10.3524L9.67152 10.912L9.67273 10.9161L11.5916 10.3524ZM11.9247 11.4861L11.3651 13.4062L14.8737 14.4288L13.8436 10.9223L11.9247 11.4861ZM10.7932 11.1563L10.2271 13.0745L10.2336 13.0764L10.7932 11.1563ZM10.2977 11.2072L11.2407 12.9709L11.2417 12.9704L10.2977 11.2072ZM6.07039 10.2064L5.71486 8.23824L2.62602 8.79621L4.43671 11.3601L6.07039 10.2064ZM9.81922 5.20959L10.4706 3.31864L7.50182 2.29595L7.83018 5.41873L9.81922 5.20959ZM11.6447 9.85802L13.0592 11.272L13.2689 11.0621L13.4087 10.8004L11.6447 9.85802ZM12.9249 10.2315L14.742 11.067C15.1698 10.1367 15.375 9.11951 15.3414 8.09609L13.3425 8.16173L11.3436 8.22738C11.3568 8.62995 11.2761 9.03008 11.1078 9.39604L12.9249 10.2315ZM13.3425 8.16173L15.3414 8.09609C15.3078 7.07266 15.0363 6.07113 14.5484 5.17086L12.79 6.12378L11.0316 7.07669C11.2235 7.43083 11.3303 7.8248 11.3436 8.22738L13.3425 8.16173ZM12.79 6.12378L14.5484 5.17086C14.0605 4.27059 13.3697 3.49631 12.5306 2.90939L11.3843 4.54825L10.2379 6.18711C10.568 6.41798 10.8397 6.72256 11.0316 7.07669L12.79 6.12378ZM11.3843 4.54825L12.5306 2.90939C11.6915 2.32247 10.7273 1.93904 9.71431 1.78947L9.42218 3.76802L9.13006 5.74657C9.52853 5.80541 9.90783 5.95624 10.2379 6.18711L11.3843 4.54825ZM9.42218 3.76802L11.2332 2.91942C10.4947 1.34328 9.1629 0.123086 7.5283 -0.475045L6.84103 1.40316L6.15376 3.28137C6.79675 3.51665 7.32063 3.99663 7.61114 4.61663L9.42218 3.76802ZM6.84103 1.40316L7.5283 -0.475045C5.89371 -1.07318 4.08892 -1.00072 2.50753 -0.27349L3.34314 1.54358L4.17876 3.36065C4.80082 3.07458 5.51076 3.04608 6.15376 3.28137L6.84103 1.40316ZM3.34314 1.54358L2.50753 -0.27349C0.926136 0.453745 -0.303557 1.77676 -0.913377 3.40703L0.95986 4.10774L2.8331 4.80844C3.07298 4.16715 3.5567 3.64672 4.17876 3.36065L3.34314 1.54358ZM0.95986 4.10774L-0.913377 3.40703C-1.5232 5.0373 -1.46367 6.84257 -0.747777 8.42912L1.07523 7.60654L2.89824 6.78395C2.61663 6.15986 2.59321 5.44973 2.8331 4.80844L0.95986 4.10774ZM1.07523 7.60654L-0.843527 7.0423L-1.21759 8.31433L0.701168 8.87857L2.61993 9.44281L2.99399 8.17078L1.07523 7.60654ZM0.701168 8.87857L-1.21759 8.31433C-1.37438 8.84752 -1.38465 9.4131 -1.24732 9.95164L0.690658 9.45742L2.62863 8.9632C2.66886 9.12095 2.66585 9.28663 2.61993 9.44281L0.701168 8.87857ZM0.690658 9.45742L-1.24732 9.95164C-1.10998 10.4902 -0.830111 10.9818 -0.437123 11.3748L0.97709 9.96054L2.3913 8.54633C2.50642 8.66144 2.5884 8.80545 2.62863 8.9632L0.690658 9.45742ZM0.97709 9.96054L-0.437123 11.3748C-0.0441351 11.7677 0.447459 12.0476 0.985991 12.1849L1.48021 10.247L1.97443 8.309C2.13218 8.34923 2.27619 8.43121 2.3913 8.54633L0.97709 9.96054ZM1.48021 10.247L0.985991 12.1849C1.52453 12.3223 2.09011 12.312 2.6233 12.1552L2.05906 10.2365L1.49482 8.3177C1.651 8.27177 1.81668 8.26876 1.97443 8.309L1.48021 10.247ZM2.05906 10.2365L2.6233 12.1552L3.89533 11.7812L3.33109 9.8624L2.76685 7.94364L1.49482 8.3177L2.05906 10.2365ZM3.33109 9.8624L2.49776 11.6805C3.06534 11.9407 3.66702 12.1188 4.28474 12.2097L4.57578 10.231L4.86682 8.25228C4.62401 8.21657 4.38752 8.14653 4.16442 8.04428L3.33109 9.8624ZM4.57578 10.231L2.75892 11.0671C3.48983 12.6554 4.82134 13.8886 6.46093 14.4957L7.15546 12.6202L7.84999 10.7447C7.20454 10.5056 6.68036 10.0202 6.39263 9.39491L4.57578 10.231ZM7.15546 12.6202L6.46093 14.4957C8.10052 15.1029 9.91408 15.0343 11.5032 14.3052L10.6691 12.4874L9.83495 10.6696C9.20938 10.9567 8.49544 10.9837 7.84999 10.7447L7.15546 12.6202ZM10.6691 12.4874L10.1048 14.4062L11.3768 14.7802L11.9411 12.8615L12.5053 10.9427L11.2333 10.5686L10.6691 12.4874ZM11.9411 12.8615L11.3768 14.7802C11.91 14.937 12.4756 14.9473 13.0142 14.8099L12.5199 12.872L12.0257 10.934C12.1835 10.8938 12.3491 10.8968 12.5053 10.9427L11.9411 12.8615ZM12.5199 12.872L13.0142 14.8099C13.5527 14.6726 14.0443 14.3927 14.4373 13.9998L13.0231 12.5855L11.6088 11.1713C11.724 11.0562 11.868 10.9742 12.0257 10.934L12.5199 12.872ZM13.0231 12.5855L14.4373 13.9998C14.8303 13.6068 15.1101 13.1152 15.2475 12.5766L13.3095 12.0824L11.3715 11.5882C11.4117 11.4304 11.4937 11.2864 11.6088 11.1713L13.0231 12.5855ZM13.3095 12.0824L15.2475 12.5766C15.3848 12.0381 15.3745 11.4725 15.2177 10.9393L13.299 11.5036L11.3802 12.0678C11.3343 11.9116 11.3313 11.746 11.3715 11.5882L13.3095 12.0824ZM13.299 11.5036L15.2177 10.9393L14.8437 9.6673L12.9249 10.2315L11.0062 10.7958L11.3802 12.0678L13.299 11.5036ZM3.3907 8.50396L3.39293 6.50396C3.13693 6.50368 2.88226 6.54049 2.63683 6.61325L3.20531 8.53076L3.77379 10.4483C3.64872 10.4853 3.51893 10.5041 3.38847 10.504L3.3907 8.50396ZM3.20531 8.53076L2.64133 6.61192L1.5082 6.94497L2.07218 8.8638L2.63616 10.7826L3.76929 10.4496L3.20531 8.53076ZM2.07218 8.8638L3.99059 9.42924L4.32473 8.29557L2.40632 7.73013L0.487918 7.1647L0.153777 8.29837L2.07218 8.8638ZM2.40632 7.73013L4.32644 8.28973C4.52039 7.62424 4.44651 6.90931 4.12058 6.29754L2.35546 7.23795L0.590347 8.17835C0.425465 7.86887 0.388091 7.50719 0.486206 7.17054L2.40632 7.73013ZM2.35546 7.23795L4.11779 6.29232C3.97251 6.02156 3.92937 5.7076 3.99624 5.40769L2.04418 4.97244L0.0921115 4.53718C-0.183531 5.7734 -0.00571519 7.06751 0.593139 8.18357L2.35546 7.23795ZM2.04418 4.97244L3.99624 5.40769C4.06311 5.10778 4.23554 4.84189 4.48209 4.6585L3.28842 3.05377L2.09475 1.44904C1.07849 2.20497 0.367754 3.30096 0.0921115 4.53718L2.04418 4.97244ZM3.28842 3.05377L4.48209 4.6585C4.72863 4.4751 5.03288 4.38642 5.33935 4.40862L5.48386 2.41385L5.62836 0.419079C4.36509 0.327567 3.11101 0.693101 2.09475 1.44904L3.28842 3.05377ZM5.48386 2.41385L5.33935 4.40862C5.64582 4.43083 5.93411 4.56243 6.15165 4.77944L7.56414 3.3635L8.97663 1.94757C8.07993 1.05306 6.89163 0.510592 5.62836 0.419079L5.48386 2.41385ZM7.56414 3.3635L6.15165 4.77944C6.3692 4.99645 6.5015 5.28442 6.52445 5.59084L8.51887 5.44147L10.5133 5.2921C10.4187 4.02906 9.87333 2.84208 8.97663 1.94757L7.56414 3.3635ZM8.51887 5.44147L6.52445 5.59084C6.5474 5.89725 6.45946 6.20172 6.27667 6.44871L7.88431 7.63846L9.49194 8.82821C10.2454 7.81011 10.6079 6.55514 10.5133 5.2921L8.51887 5.44147ZM7.88431 7.63846L6.27667 6.44871C6.09388 6.6957 5.82841 6.86878 5.52866 6.93638L5.96868 8.88738L6.40869 10.8384C7.64424 10.5597 8.73849 9.84631 9.49194 8.82821L7.88431 7.63846ZM5.96868 8.88738L5.52866 6.93638C5.22892 7.00399 4.91486 6.96161 4.64374 6.81699L3.70242 8.58162L2.76109 10.3462C3.87861 10.9424 5.17315 11.117 6.40869 10.8384L5.96868 8.88738ZM3.70242 8.58162L4.64618 6.81829C4.25814 6.61061 3.82458 6.5026 3.38446 6.50397L3.3907 8.50396L3.39694 10.504C3.17429 10.5046 2.95496 10.45 2.75865 10.3449L3.70242 8.58162ZM11.6425 9.86021L9.87738 8.91981C9.55145 9.53157 9.47757 10.2465 9.67152 10.912L11.5916 10.3524L13.5118 9.7928C13.6099 10.1295 13.5725 10.4911 13.4076 10.8006L11.6425 9.86021ZM11.5916 10.3524L9.67273 10.9161L10.0058 12.0498L11.9247 11.4861L13.8436 10.9223L13.5105 9.78867L11.5916 10.3524ZM11.9247 11.4861L12.4843 9.56596L11.3528 9.23619L10.7932 11.1563L10.2336 13.0764L11.3651 13.4062L11.9247 11.4861ZM10.7932 11.1563L11.3593 9.23808C10.6897 9.0405 9.96925 9.11445 9.35378 9.44394L10.2977 11.2072L11.2417 12.9704C10.9303 13.1371 10.5659 13.1745 10.2271 13.0745L10.7932 11.1563ZM10.2977 11.2072L9.35474 9.44343C9.07925 9.59072 8.75945 9.63229 8.45547 9.56032L7.99472 11.5065L7.53398 13.4527C8.78699 13.7494 10.1052 13.578 11.2407 12.9709L10.2977 11.2072ZM7.99472 11.5065L8.45547 9.56032C8.15149 9.48836 7.88427 9.30781 7.70406 9.05265L6.07039 10.2064L4.43671 11.3601C5.17951 12.4119 6.28098 13.1561 7.53398 13.4527L7.99472 11.5065ZM6.07039 10.2064L6.42592 12.1745C8.0629 11.8788 9.52748 10.975 10.5258 9.64435L8.92596 8.4441L7.32615 7.24384C6.93381 7.7668 6.35821 8.12202 5.71486 8.23824L6.07039 10.2064ZM8.92596 8.4441L10.5258 9.64435C11.5241 8.31373 11.9822 6.65479 11.8082 5.00044L9.81922 5.20959L7.83018 5.41873C7.89855 6.06891 7.71849 6.72089 7.32615 7.24384L8.92596 8.4441ZM9.81922 5.20959L9.16782 7.10053C9.34312 7.16092 9.50322 7.25863 9.63707 7.38692L11.0209 5.943L12.4048 4.49909C11.8531 3.9703 11.1932 3.56754 10.4706 3.31864L9.81922 5.20959ZM11.0209 5.943L9.63707 7.38692C9.77092 7.5152 9.87534 7.67101 9.94311 7.84359L11.8047 7.11253L13.6663 6.38147C13.387 5.67013 12.9566 5.02789 12.4048 4.49909L11.0209 5.943ZM11.8047 7.11253L9.94311 7.84359C10.0109 8.01616 10.0404 8.20139 10.0296 8.38648L12.0262 8.50285L14.0228 8.61922C14.0673 7.85629 13.9457 7.0928 13.6663 6.38147L11.8047 7.11253ZM12.0262 8.50285L10.0296 8.38648C10.0188 8.57156 9.96798 8.7521 9.88062 8.91564L11.6447 9.85802L13.4087 10.8004C13.7688 10.1263 13.9784 9.38215 14.0228 8.61922L12.0262 8.50285ZM11.6447 9.85802L10.2302 8.44408L10.228 8.44627L11.6425 9.86021L13.057 11.2742L13.0592 11.272L11.6447 9.85802Z" fill="#525252" mask="url(#path-1-inside-1_71_18649)"/>
</svg>
