<svg width="24" height="24" viewBox="0 0 24 24" fill="none" xmlns="http://www.w3.org/2000/svg">
<path d="M12 5.125C14.8953 5.125 17.3628 5.63564 19.1807 6.54492H19.1816C21.0837 7.49559 21.875 8.71932 21.875 9.75V14.25C21.875 15.2805 21.083 16.5043 19.1816 17.4551H19.1807C17.3629 18.3643 14.8908 18.875 12 18.875C9.10923 18.875 6.63706 18.3643 4.81934 17.4551H4.81836C2.91629 16.5044 2.125 15.2807 2.125 14.25V9.75C2.125 8.71931 2.91629 7.49559 4.81836 6.54492H4.81934C6.63716 5.63564 9.10468 5.125 12 5.125ZM16.6445 13.8555C15.4764 14.1327 14.2836 14.2968 13.084 14.3457L12.125 14.3848V18.6396L13.1689 18.5938C14.5121 18.535 15.8445 18.3257 17.1406 17.9688L17.875 17.7666V13.5635L16.6445 13.8555ZM20.0664 12.4395C19.7832 12.6301 19.4882 12.8028 19.1826 12.9551H19.1816C19.0374 13.0272 18.8844 13.0981 18.7246 13.168L18.125 13.4297V17.835L19.6436 16.915C20.1782 16.591 20.6476 16.2134 20.9951 15.7959C21.3329 15.3901 21.625 14.8596 21.625 14.25V11.3906L20.0664 12.4395ZM12 5.375C9.29382 5.375 6.77525 5.84635 4.93164 6.76758C4.24132 7.11274 3.63724 7.52945 3.19141 7.99414C2.76533 8.43824 2.375 9.043 2.375 9.75C2.375 10.457 2.76533 11.0618 3.19141 11.5059C3.63724 11.9705 4.24132 12.3873 4.93164 12.7324C6.77525 13.6536 9.29382 14.125 12 14.125C14.7062 14.125 17.2248 13.6536 19.0684 12.7324C19.7587 12.3873 20.3628 11.9705 20.8086 11.5059C21.2347 11.0618 21.625 10.457 21.625 9.75C21.625 9.043 21.2347 8.43824 20.8086 7.99414C20.3628 7.52945 19.7587 7.11274 19.0684 6.76758C17.2248 5.84635 14.7062 5.375 12 5.375ZM11.875 14.3896L10.916 14.3506C9.71641 14.3016 8.52363 14.1376 7.35547 13.8604L6.125 13.5684V17.7705L6.85938 17.9736C8.15554 18.3305 9.48793 18.5398 10.8311 18.5986L11.875 18.6445V14.3896ZM5.875 13.4297L5.27539 13.168C5.11559 13.0981 4.96263 13.0272 4.81836 12.9551H4.81738C4.51181 12.8028 4.21681 12.6301 3.93359 12.4395L2.375 11.3906V14.25C2.375 14.8596 2.66713 15.3901 3.00488 15.7959C3.35242 16.2134 3.82181 16.591 4.35645 16.915L5.875 17.835V13.4297Z" stroke="#525252" stroke-width="2"/>
</svg>
