<svg width="16" height="16" viewBox="0 0 16 16" fill="none" xmlns="http://www.w3.org/2000/svg">
<mask id="path-1-inside-1_71_18651" fill="white">
<path d="M13.5 1.75H5.5C5.30109 1.75 5.11032 1.82902 4.96967 1.96967C4.82902 2.11032 4.75 2.30109 4.75 2.5V4.75H2.5C2.30109 4.75 2.11032 4.82902 1.96967 4.96967C1.82902 5.11032 1.75 5.30109 1.75 5.5V13.5C1.75 13.6989 1.82902 13.8897 1.96967 14.0303C2.11032 14.171 2.30109 14.25 2.5 14.25H10.5C10.6989 14.25 10.8897 14.171 11.0303 14.0303C11.171 13.8897 11.25 13.6989 11.25 13.5V11.25H13.5C13.6989 11.25 13.8897 11.171 14.0303 11.0303C14.171 10.8897 14.25 10.6989 14.25 10.5V2.5C14.25 2.30109 14.171 2.11032 14.0303 1.96967C13.8897 1.82902 13.6989 1.75 13.5 1.75ZM9.75 12.75H3.25V6.25H9.75V12.75ZM12.75 9.75H11.25V5.5C11.25 5.30109 11.171 5.11032 11.0303 4.96967C10.8897 4.82902 10.6989 4.75 10.5 4.75H6.25V3.25H12.75V9.75Z"/>
</mask>
<path d="M4.75 2.5H2.75H4.75ZM4.75 4.75V6.75H6.75V4.75H4.75ZM2.5 4.75L2.5 2.75L2.5 4.75ZM11.25 11.25V9.25H9.25V11.25H11.25ZM9.75 12.75V14.75H11.75V12.75H9.75ZM3.25 12.75H1.25V14.75H3.25V12.75ZM3.25 6.25V4.25H1.25V6.25H3.25ZM9.75 6.25H11.75V4.25H9.75V6.25ZM12.75 9.75V11.75H14.75V9.75H12.75ZM11.25 9.75H9.25V11.75H11.25V9.75ZM10.5 4.75V2.75V4.75ZM6.25 4.75H4.25V6.75H6.25V4.75ZM6.25 3.25V1.25H4.25V3.25H6.25ZM12.75 3.25H14.75V1.25H12.75V3.25ZM13.5 1.75V-0.25H5.5V1.75V3.75H13.5V1.75ZM5.5 1.75V-0.25C4.77065 -0.25 4.07118 0.0397313 3.55546 0.555456L4.96967 1.96967L6.38388 3.38388C6.14946 3.6183 5.83152 3.75 5.5 3.75V1.75ZM4.96967 1.96967L3.55546 0.555456C3.03973 1.07118 2.75 1.77066 2.75 2.5L4.75 2.5L6.75 2.5C6.75 2.83152 6.6183 3.14946 6.38388 3.38388L4.96967 1.96967ZM4.75 2.5H2.75V4.75H4.75H6.75V2.5H4.75ZM4.75 4.75V2.75H2.5V4.75V6.75H4.75V4.75ZM2.5 4.75L2.5 2.75C1.77066 2.75 1.07118 3.03973 0.555456 3.55546L1.96967 4.96967L3.38388 6.38388C3.14946 6.6183 2.83152 6.75 2.5 6.75L2.5 4.75ZM1.96967 4.96967L0.555456 3.55546C0.0397313 4.07118 -0.25 4.77065 -0.25 5.5H1.75H3.75C3.75 5.83152 3.6183 6.14946 3.38388 6.38388L1.96967 4.96967ZM1.75 5.5H-0.25V13.5H1.75H3.75V5.5H1.75ZM1.75 13.5H-0.25C-0.25 14.2293 0.0397322 14.9288 0.555456 15.4445L1.96967 14.0303L3.38388 12.6161C3.6183 12.8505 3.75 13.1685 3.75 13.5H1.75ZM1.96967 14.0303L0.555456 15.4445C1.07118 15.9603 1.77065 16.25 2.5 16.25V14.25V12.25C2.83152 12.25 3.14946 12.3817 3.38388 12.6161L1.96967 14.0303ZM2.5 14.25V16.25H10.5V14.25V12.25H2.5V14.25ZM10.5 14.25V16.25C11.2293 16.25 11.9288 15.9603 12.4445 15.4445L11.0303 14.0303L9.61612 12.6161C9.85053 12.3817 10.1685 12.25 10.5 12.25V14.25ZM11.0303 14.0303L12.4445 15.4445C12.9603 14.9288 13.25 14.2293 13.25 13.5H11.25H9.25C9.25 13.1685 9.3817 12.8505 9.61612 12.6161L11.0303 14.0303ZM11.25 13.5H13.25V11.25H11.25H9.25V13.5H11.25ZM11.25 11.25V13.25H13.5V11.25V9.25H11.25V11.25ZM13.5 11.25V13.25C14.2293 13.25 14.9288 12.9603 15.4445 12.4445L14.0303 11.0303L12.6161 9.61612C12.8505 9.3817 13.1685 9.25 13.5 9.25V11.25ZM14.0303 11.0303L15.4445 12.4445C15.9603 11.9288 16.25 11.2293 16.25 10.5H14.25H12.25C12.25 10.1685 12.3817 9.85053 12.6161 9.61612L14.0303 11.0303ZM14.25 10.5H16.25V2.5H14.25H12.25V10.5H14.25ZM14.25 2.5H16.25C16.25 1.77065 15.9603 1.07118 15.4445 0.555456L14.0303 1.96967L12.6161 3.38388C12.3817 3.14946 12.25 2.83152 12.25 2.5H14.25ZM14.0303 1.96967L15.4445 0.555456C14.9288 0.0397322 14.2293 -0.25 13.5 -0.25V1.75V3.75C13.1685 3.75 12.8505 3.6183 12.6161 3.38388L14.0303 1.96967ZM9.75 12.75V10.75H3.25V12.75V14.75H9.75V12.75ZM3.25 12.75H5.25V6.25H3.25H1.25V12.75H3.25ZM3.25 6.25V8.25H9.75V6.25V4.25H3.25V6.25ZM9.75 6.25H7.75V12.75H9.75H11.75V6.25H9.75ZM12.75 9.75V7.75H11.25V9.75V11.75H12.75V9.75ZM11.25 9.75H13.25V5.5H11.25H9.25V9.75H11.25ZM11.25 5.5H13.25C13.25 4.77065 12.9603 4.07118 12.4445 3.55546L11.0303 4.96967L9.61612 6.38388C9.3817 6.14946 9.25 5.83152 9.25 5.5H11.25ZM11.0303 4.96967L12.4445 3.55546C11.9288 3.03973 11.2293 2.75 10.5 2.75L10.5 4.75L10.5 6.75C10.1685 6.75 9.85054 6.6183 9.61612 6.38388L11.0303 4.96967ZM10.5 4.75V2.75H6.25V4.75V6.75H10.5V4.75ZM6.25 4.75H8.25V3.25H6.25H4.25V4.75H6.25ZM6.25 3.25V5.25H12.75V3.25V1.25H6.25V3.25ZM12.75 3.25H10.75V9.75H12.75H14.75V3.25H12.75Z" fill="#525252" mask="url(#path-1-inside-1_71_18651)"/>
</svg>
