<svg width="16" height="16" viewBox="0 0 16 16" fill="none" xmlns="http://www.w3.org/2000/svg">
<mask id="path-1-inside-1_71_18573" fill="white">
<path d="M14.1 3.91495L8.6 0.904328C8.4162 0.803168 8.2098 0.750122 8 0.750122C7.7902 0.750122 7.5838 0.803168 7.4 0.904328L1.9 3.91495C1.7032 4.02263 1.539 4.18129 1.42464 4.37429C1.31027 4.56728 1.24995 4.78749 1.25 5.01183V10.9881C1.24995 11.2124 1.31027 11.4326 1.42464 11.6256C1.539 11.8186 1.7032 11.9773 1.9 12.085L7.4 15.0956C7.58377 15.1968 7.79018 15.25 8 15.25C8.20982 15.25 8.41623 15.1968 8.6 15.0956L14.1 12.085C14.2968 11.9773 14.461 11.8186 14.5754 11.6256C14.6897 11.4326 14.7501 11.2124 14.75 10.9881V5.01183C14.7501 4.78749 14.6897 4.56728 14.5754 4.37429C14.461 4.18129 14.2968 4.02263 14.1 3.91495ZM8 2.28558L12.5 4.74995L8 7.21245L3.5 4.74995L8 2.28558ZM2.75 6.04933L7.25 8.51183V13.3037L2.75 10.84V6.04933ZM8.75 13.3037V8.51183L13.25 6.04933V10.84L8.75 13.3037Z"/>
</mask>
<path d="M14.1 3.91495L13.1397 5.66932L13.14 5.66949L14.1 3.91495ZM8.6 0.904328L7.63566 2.65649L7.63969 2.65869L8.6 0.904328ZM7.4 0.904328L8.36032 2.6587L8.36434 2.65648L7.4 0.904328ZM1.9 3.91495L2.86 5.66949L2.86032 5.66932L1.9 3.91495ZM1.25 5.01183L3.25 5.01183L3.25 5.01136L1.25 5.01183ZM1.25 10.9881L3.25 10.9885V10.9881H1.25ZM1.9 12.085L2.86032 10.3306L2.86 10.3304L1.9 12.085ZM7.4 15.0956L8.36531 13.3439L8.36032 13.3412L7.4 15.0956ZM8 15.25V13.25V15.25ZM8.6 15.0956L7.63968 13.3412L7.63469 13.344L8.6 15.0956ZM14.1 12.085L13.14 10.3304L13.1397 10.3306L14.1 12.085ZM14.75 10.9881L12.75 10.9881L12.75 10.9885L14.75 10.9881ZM14.75 5.01183L12.75 5.01136V5.01183H14.75ZM8 2.28558L8.96066 0.5314L8 0.00530724L7.03934 0.5314L8 2.28558ZM12.5 4.74995L13.4601 6.50444L16.665 4.75062L13.4607 2.99577L12.5 4.74995ZM8 7.21245L7.03991 8.96694L8 9.49232L8.96009 8.96694L8 7.21245ZM3.5 4.74995L2.53934 2.99577L-0.665041 4.75062L2.53991 6.50444L3.5 4.74995ZM2.75 6.04933L3.71009 4.29484L0.75 2.67501V6.04933H2.75ZM7.25 8.51183H9.25V7.3264L8.21009 6.75734L7.25 8.51183ZM7.25 13.3037L6.28953 15.058L9.25 16.6788V13.3037H7.25ZM2.75 10.84H0.75V12.0251L1.78953 12.5942L2.75 10.84ZM8.75 13.3037H6.75V16.6788L9.71047 15.058L8.75 13.3037ZM8.75 8.51183L7.78991 6.75734L6.75 7.3264V8.51183H8.75ZM13.25 6.04933H15.25V2.67501L12.2899 4.29484L13.25 6.04933ZM13.25 10.84L14.2105 12.5942L15.25 12.0251V10.84H13.25ZM14.1 3.91495L15.0603 2.16059L9.56032 -0.850037L8.6 0.904328L7.63969 2.65869L13.1397 5.66932L14.1 3.91495ZM8.6 0.904328L9.56434 -0.847828C9.08512 -1.11158 8.547 -1.24988 8 -1.24988V0.750122L8 2.75012C7.8726 2.75012 7.74727 2.71791 7.63566 2.65648L8.6 0.904328ZM8 0.750122V-1.24988C7.453 -1.24988 6.91488 -1.11158 6.43566 -0.847828L7.4 0.904328L8.36434 2.65648C8.25273 2.71791 8.1274 2.75012 8 2.75012V0.750122ZM7.4 0.904328L6.43968 -0.850037L0.939685 2.16059L1.9 3.91495L2.86032 5.66932L8.36032 2.65869L7.4 0.904328ZM1.9 3.91495L0.94 2.16042C0.428316 2.44038 0.00140547 2.8529 -0.295947 3.35468L1.42464 4.37429L3.14522 5.39389C3.0766 5.50969 2.97808 5.60488 2.86 5.66949L1.9 3.91495ZM1.42464 4.37429L-0.295947 3.35468C-0.5933 3.85646 -0.750135 4.42902 -0.75 5.01229L1.25 5.01183L3.25 5.01136C3.25003 5.14596 3.21384 5.27809 3.14522 5.39389L1.42464 4.37429ZM1.25 5.01183H-0.75V10.9881H1.25H3.25V5.01183H1.25ZM1.25 10.9881L-0.75 10.9876C-0.750135 11.5709 -0.5933 12.1434 -0.295947 12.6452L1.42464 11.6256L3.14522 10.606C3.21384 10.7218 3.25003 10.8539 3.25 10.9885L1.25 10.9881ZM1.42464 11.6256L-0.295947 12.6452C0.00140547 13.147 0.428316 13.5595 0.94 13.8395L1.9 12.085L2.86 10.3304C2.97808 10.395 3.0766 10.4902 3.14522 10.606L1.42464 11.6256ZM1.9 12.085L0.939685 13.8393L6.43968 16.8499L7.4 15.0956L8.36032 13.3412L2.86032 10.3306L1.9 12.085ZM7.4 15.0956L6.43469 16.8472C6.91411 17.1114 7.4526 17.25 8 17.25V15.25V13.25C8.12775 13.25 8.25342 13.2823 8.36531 13.344L7.4 15.0956ZM8 15.25L8 17.25C8.5474 17.25 9.08589 17.1114 9.56531 16.8472L8.6 15.0956L7.63469 13.344C7.74658 13.2823 7.87225 13.25 8 13.25L8 15.25ZM8.6 15.0956L9.56032 16.8499L15.0603 13.8393L14.1 12.085L13.1397 10.3306L7.63969 13.3412L8.6 15.0956ZM14.1 12.085L15.06 13.8395C15.5717 13.5595 15.9986 13.147 16.2959 12.6452L14.5754 11.6256L12.8548 10.606C12.9234 10.4902 13.0219 10.395 13.14 10.3304L14.1 12.085ZM14.5754 11.6256L16.2959 12.6452C16.5933 12.1434 16.7501 11.5709 16.75 10.9876L14.75 10.9881L12.75 10.9885C12.75 10.8539 12.7862 10.7218 12.8548 10.606L14.5754 11.6256ZM14.75 10.9881H16.75V5.01183H14.75H12.75V10.9881H14.75ZM14.75 5.01183L16.75 5.01229C16.7501 4.42902 16.5933 3.85646 16.2959 3.35468L14.5754 4.37429L12.8548 5.39389C12.7862 5.2781 12.75 5.14597 12.75 5.01136L14.75 5.01183ZM14.5754 4.37429L16.2959 3.35468C15.9986 2.8529 15.5717 2.44039 15.06 2.16042L14.1 3.91495L13.14 5.66949C13.0219 5.60488 12.9234 5.50968 12.8548 5.39389L14.5754 4.37429ZM8 2.28558L7.03934 4.03976L11.5393 6.50413L12.5 4.74995L13.4607 2.99577L8.96066 0.5314L8 2.28558ZM12.5 4.74995L11.5399 2.99547L7.03991 5.45797L8 7.21245L8.96009 8.96694L13.4601 6.50444L12.5 4.74995ZM8 7.21245L8.96009 5.45797L4.46009 2.99547L3.5 4.74995L2.53991 6.50444L7.03991 8.96694L8 7.21245ZM3.5 4.74995L4.46066 6.50413L8.96066 4.03976L8 2.28558L7.03934 0.5314L2.53934 2.99577L3.5 4.74995ZM2.75 6.04933L1.78991 7.80381L6.28991 10.2663L7.25 8.51183L8.21009 6.75734L3.71009 4.29484L2.75 6.04933ZM7.25 8.51183H5.25V13.3037H7.25H9.25V8.51183H7.25ZM7.25 13.3037L8.21047 11.5494L3.71047 9.08567L2.75 10.84L1.78953 12.5942L6.28953 15.058L7.25 13.3037ZM2.75 10.84H4.75V6.04933H2.75H0.75V10.84H2.75ZM8.75 13.3037H10.75V8.51183H8.75H6.75V13.3037H8.75ZM8.75 8.51183L9.71009 10.2663L14.2101 7.80381L13.25 6.04933L12.2899 4.29484L7.78991 6.75734L8.75 8.51183ZM13.25 6.04933H11.25V10.84H13.25H15.25V6.04933H13.25ZM13.25 10.84L12.2895 9.08567L7.78953 11.5494L8.75 13.3037L9.71047 15.058L14.2105 12.5942L13.25 10.84Z" fill="#525252" mask="url(#path-1-inside-1_71_18573)"/>
</svg>
