<svg width="16" height="17" viewBox="0 0 16 17" fill="none" xmlns="http://www.w3.org/2000/svg">
<path fill-rule="evenodd" clip-rule="evenodd" d="M11.2617 2.88058C12.2909 2.05233 14 2.66492 14 3.86203V13.1374L13.9951 13.2478C13.8973 14.3351 12.3629 14.8848 11.3604 14.1921L11.2617 14.1189L8 11.4939L4.73828 14.1189C3.70917 14.9469 2.00026 14.3343 2 13.1374V3.86203C2 2.66492 3.7091 2.05233 4.73828 2.88058L8 5.5046L11.2617 2.88058ZM3.5 4.02023V12.9782C3.55641 12.9966 3.62115 13.0045 3.67969 12.9968C3.73665 12.9893 3.77325 12.9706 3.79785 12.9509L6.80273 10.531L5.49902 9.48117C4.83417 8.94609 4.83426 8.05341 5.49902 7.51828L6.80273 6.46749L3.79785 4.04855C3.77325 4.02884 3.73674 4.0102 3.67969 4.00265C3.62121 3.99492 3.55637 4.00193 3.5 4.02023ZM12.3203 4.00265C12.2633 4.0102 12.2267 4.02884 12.2021 4.04855L9.19531 6.46749L10.501 7.51828C11.1657 8.05341 11.1658 8.94609 10.501 9.48117L9.19531 10.531L12.2021 12.9509C12.2268 12.9706 12.2633 12.9893 12.3203 12.9968C12.3789 13.0045 12.4436 12.9966 12.5 12.9782V4.02023C12.4436 4.00193 12.3788 3.99492 12.3203 4.00265ZM6.67188 8.49972L7.99902 9.56808L9.32715 8.49972L7.99902 7.43039L6.67188 8.49972Z" fill="#525252"/>
</svg>
