<svg width="28" height="28" viewBox="0 0 28 28" fill="none" xmlns="http://www.w3.org/2000/svg">
<mask id="path-2-inside-1_71_18468" fill="white">
<path d="M6.8125 7.125V20.875C6.8125 21.2894 6.97712 21.6868 7.27015 21.9799C7.56317 22.2729 7.9606 22.4375 8.375 22.4375H19.625C20.0394 22.4375 20.4368 22.2729 20.7299 21.9799C21.0229 21.6868 21.1875 21.2894 21.1875 20.875V7.125C21.1875 6.7106 21.0229 6.31317 20.7299 6.02015C20.4368 5.72712 20.0394 5.5625 19.625 5.5625H8.375C7.9606 5.5625 7.56317 5.72712 7.27015 6.02015C6.97712 6.31317 6.8125 6.7106 6.8125 7.125ZM8.6875 7.4375H10.5625V20.5625H8.6875V7.4375ZM19.3125 20.5625H12.4375V7.4375H19.3125V20.5625Z"/>
</mask>
<path d="M6.8125 20.875L4.8125 20.875L6.8125 20.875ZM8.375 22.4375V24.4375V22.4375ZM8.6875 7.4375V5.4375H6.6875V7.4375H8.6875ZM10.5625 7.4375H12.5625V5.4375H10.5625V7.4375ZM10.5625 20.5625V22.5625H12.5625V20.5625H10.5625ZM8.6875 20.5625H6.6875V22.5625H8.6875V20.5625ZM19.3125 20.5625V22.5625H21.3125V20.5625H19.3125ZM12.4375 20.5625H10.4375V22.5625H12.4375V20.5625ZM12.4375 7.4375V5.4375H10.4375V7.4375H12.4375ZM19.3125 7.4375H21.3125V5.4375H19.3125V7.4375ZM6.8125 7.125H4.8125V20.875H6.8125H8.8125V7.125H6.8125ZM6.8125 20.875L4.8125 20.875C4.8125 21.8198 5.18783 22.726 5.85593 23.3941L7.27015 21.9799L8.68436 20.5656C8.76641 20.6477 8.8125 20.759 8.8125 20.875L6.8125 20.875ZM7.27015 21.9799L5.85593 23.3941C6.52403 24.0622 7.43017 24.4375 8.375 24.4375L8.375 22.4375L8.375 20.4375C8.49103 20.4375 8.60231 20.4836 8.68436 20.5656L7.27015 21.9799ZM8.375 22.4375V24.4375H19.625V22.4375V20.4375H8.375V22.4375ZM19.625 22.4375V24.4375C20.5698 24.4375 21.476 24.0622 22.1441 23.3941L20.7299 21.9799L19.3156 20.5656C19.3977 20.4836 19.509 20.4375 19.625 20.4375V22.4375ZM20.7299 21.9799L22.1441 23.3941C22.8122 22.726 23.1875 21.8198 23.1875 20.875H21.1875H19.1875C19.1875 20.759 19.2336 20.6477 19.3156 20.5656L20.7299 21.9799ZM21.1875 20.875H23.1875V7.125H21.1875H19.1875V20.875H21.1875ZM21.1875 7.125H23.1875C23.1875 6.18017 22.8122 5.27403 22.1441 4.60593L20.7299 6.02015L19.3156 7.43436C19.2336 7.35231 19.1875 7.24103 19.1875 7.125H21.1875ZM20.7299 6.02015L22.1441 4.60593C21.476 3.93783 20.5698 3.5625 19.625 3.5625V5.5625V7.5625C19.509 7.5625 19.3977 7.51641 19.3156 7.43436L20.7299 6.02015ZM19.625 5.5625V3.5625H8.375V5.5625V7.5625H19.625V5.5625ZM8.375 5.5625V3.5625C7.43017 3.5625 6.52403 3.93783 5.85593 4.60593L7.27015 6.02015L8.68436 7.43436C8.60231 7.51641 8.49103 7.5625 8.375 7.5625V5.5625ZM7.27015 6.02015L5.85593 4.60593C5.18783 5.27403 4.8125 6.18017 4.8125 7.125H6.8125H8.8125C8.8125 7.24103 8.76641 7.35231 8.68436 7.43436L7.27015 6.02015ZM8.6875 7.4375V9.4375H10.5625V7.4375V5.4375H8.6875V7.4375ZM10.5625 7.4375H8.5625V20.5625H10.5625H12.5625V7.4375H10.5625ZM10.5625 20.5625V18.5625H8.6875V20.5625V22.5625H10.5625V20.5625ZM8.6875 20.5625H10.6875V7.4375H8.6875H6.6875V20.5625H8.6875ZM19.3125 20.5625V18.5625H12.4375V20.5625V22.5625H19.3125V20.5625ZM12.4375 20.5625H14.4375V7.4375H12.4375H10.4375V20.5625H12.4375ZM12.4375 7.4375V9.4375H19.3125V7.4375V5.4375H12.4375V7.4375ZM19.3125 7.4375H17.3125V20.5625H19.3125H21.3125V7.4375H19.3125Z" fill="#737373" mask="url(#path-2-inside-1_71_18468)"/>
</svg>
