<svg width="16" height="16" viewBox="0 0 16 16" fill="none" xmlns="http://www.w3.org/2000/svg">
<path d="M13 6.03416C13 6.03416 12.9964 6.0305 12.9932 6.0283L7.79395 2.5117C7.78437 2.50522 7.769 2.49998 7.75 2.49998C7.731 2.49998 7.71563 2.50522 7.70605 2.5117L2.50684 6.0283C2.50358 6.0305 2.5 6.03416 2.5 6.03416V12.6084C2.5 12.7894 2.66571 13 2.9502 13H12.5498C12.8343 13 13 12.7894 13 12.6084V6.03416ZM10.75 10.375C11.1642 10.375 11.5 10.7108 11.5 11.125C11.5 11.5392 11.1642 11.875 10.75 11.875H4.75C4.33579 11.875 4 11.5392 4 11.125C4 10.7108 4.33579 10.375 4.75 10.375H10.75ZM14.5 12.6084C14.5 13.6879 13.5908 14.5 12.5498 14.5H2.9502C1.9092 14.5 1 13.6879 1 12.6084V6.02732C1.00001 5.52202 1.25734 5.06257 1.66602 4.78611L6.86621 1.26951C7.39758 0.910163 8.10242 0.910164 8.63379 1.26951L13.834 4.78611C14.2427 5.06257 14.5 5.52202 14.5 6.02732V12.6084Z" fill="#525252"/>
</svg>
