<svg width="24" height="24" viewBox="0 0 24 24" fill="none" xmlns="http://www.w3.org/2000/svg">
<path d="M8.63379 10.375C8.86258 10.3773 9.08116 10.4699 9.24316 10.6318H9.24414L13.1035 14.4883L13.8105 15.1953L14.5176 14.4883L16.1279 12.8789C16.2894 12.7175 16.5074 12.626 16.7354 12.623L16.0391 13.3213L14.6934 14.668L13.9873 15.376L14.6943 16.082L17.9873 19.375H20.8623C20.6988 19.5351 20.4791 19.625 20.25 19.625H3.75C3.52093 19.625 3.30115 19.5351 3.1377 19.375H17.6338L8.63379 10.375ZM3.125 15.5127L4.83203 13.8057L8.00684 10.6318C8.16861 10.4702 8.38679 10.3775 8.61523 10.375L7.91797 11.0732L3.125 15.8662V19.3623C2.96486 19.1988 2.875 18.9791 2.875 18.75V5.25C2.875 5.0207 2.96455 4.80023 3.125 4.63672V15.5127ZM15.0977 8.50977C15.1946 8.52908 15.2836 8.57659 15.3535 8.64648C15.4234 8.71638 15.4709 8.80541 15.4902 8.90234C15.5095 8.99933 15.4998 9.10004 15.4619 9.19141C15.4241 9.28274 15.3595 9.36109 15.2773 9.41602C15.1952 9.47077 15.0987 9.5 15 9.5C14.8674 9.5 14.7403 9.44728 14.6465 9.35352C14.5527 9.25975 14.5 9.13261 14.5 9C14.5 8.90128 14.5292 8.80479 14.584 8.72266C14.6389 8.64045 14.7173 8.57593 14.8086 8.53809C14.9 8.50024 15.0007 8.49047 15.0977 8.50977ZM3.75 4.375H20.25C20.4791 4.375 20.6988 4.46486 20.8623 4.625H3.1377C3.30115 4.46486 3.52093 4.375 3.75 4.375ZM20.875 16.7422L20.582 16.4492L17.4541 13.3203L16.7559 12.623C16.9554 12.6252 17.1475 12.6949 17.3008 12.8203L17.3652 12.8789L19.167 14.6836L20.875 16.3945V4.63672C21.0354 4.80023 21.125 5.0207 21.125 5.25V18.75C21.125 18.9791 21.0351 19.1988 20.875 19.3623V16.7422Z" stroke="#525252" stroke-width="2"/>
</svg>
