<svg width="16" height="17" viewBox="0 0 16 17" fill="none" xmlns="http://www.w3.org/2000/svg">
<mask id="path-1-inside-1_71_16312" fill="white">
<path d="M12.25 5.24997C12.25 5.44775 12.1914 5.64109 12.0815 5.80554C11.9716 5.96999 11.8154 6.09816 11.6327 6.17385C11.45 6.24954 11.2489 6.26934 11.0549 6.23075C10.8609 6.19217 10.6828 6.09693 10.5429 5.95708C10.403 5.81722 10.3078 5.63904 10.2692 5.44506C10.2306 5.25108 10.2504 5.05001 10.3261 4.86729C10.4018 4.68456 10.53 4.52838 10.6944 4.4185C10.8589 4.30862 11.0522 4.24997 11.25 4.24997C11.5152 4.24997 11.7696 4.35533 11.9571 4.54286C12.1446 4.7304 12.25 4.98475 12.25 5.24997ZM15.25 6.67122C15.201 8.03097 14.6278 9.31902 13.6505 10.2657C12.6731 11.2124 11.3675 11.7442 10.0069 11.75H10C9.49972 11.7507 9.00192 11.6796 8.52188 11.5387L8.03063 12.0306C7.96093 12.1002 7.87819 12.1554 7.78714 12.1931C7.6961 12.2307 7.59853 12.25 7.5 12.25H6.75V13C6.75 13.1989 6.67099 13.3896 6.53033 13.5303C6.38968 13.671 6.19892 13.75 6 13.75H5.25V14.5C5.25 14.6989 5.17099 14.8896 5.03033 15.0303C4.88968 15.171 4.69892 15.25 4.5 15.25H2.5C2.16848 15.25 1.85054 15.1183 1.61612 14.8839C1.3817 14.6494 1.25 14.3315 1.25 14V12.2068C1.24956 12.0426 1.2817 11.88 1.34457 11.7283C1.40744 11.5766 1.49978 11.4389 1.61625 11.3231L4.96125 7.97809C4.74939 7.24956 4.69795 6.48377 4.81048 5.73345C4.92301 4.98312 5.19682 4.26611 5.61308 3.63178C6.02933 2.99744 6.57812 2.46087 7.22167 2.059C7.86521 1.65714 8.58821 1.39953 9.34088 1.30393C10.0935 1.20833 10.858 1.277 11.5816 1.50521C12.3051 1.73342 12.9707 2.11576 13.5323 2.62588C14.0939 3.136 14.5383 3.76179 14.8348 4.46016C15.1314 5.15852 15.273 5.91286 15.25 6.67122ZM12.6519 3.84809C12.2901 3.48304 11.8565 3.19697 11.3785 3.00796C10.9006 2.81895 10.3886 2.7311 9.875 2.74997C7.875 2.81247 6.25 4.49309 6.25 6.49309C6.24846 6.96788 6.33755 7.43859 6.5125 7.87997C6.57148 8.01776 6.58781 8.17006 6.5594 8.31722C6.531 8.46438 6.45915 8.59965 6.35313 8.70559L2.75 12.3125V13.75H3.75V13C3.75 12.8011 3.82902 12.6103 3.96967 12.4696C4.11033 12.329 4.30109 12.25 4.5 12.25H5.25V11.5C5.25 11.3011 5.32902 11.1103 5.46967 10.9696C5.61033 10.829 5.80109 10.75 6 10.75H7.1875L7.79063 10.1468C7.89662 10.0407 8.03201 9.96877 8.1793 9.94036C8.32659 9.91195 8.47901 9.92836 8.61688 9.98747C9.05704 10.1621 9.52647 10.2512 10 10.25H10.005C12.005 10.25 13.6844 8.62059 13.7481 6.62497C13.767 6.11151 13.6793 5.59971 13.4906 5.1218C13.302 4.64389 13.0164 4.21022 12.6519 3.84809Z"/>
</mask>
<path d="M11.25 4.24997V2.24997V4.24997ZM15.25 6.67122L17.2487 6.74333L17.2491 6.73184L15.25 6.67122ZM10.0069 11.75L10.0069 13.75L10.0153 13.75L10.0069 11.75ZM10 11.75L10 9.74997L9.99689 9.74997L10 11.75ZM8.52188 11.5387L9.0851 9.61966L7.94581 9.2853L7.10677 10.1254L8.52188 11.5387ZM8.03063 12.0306L9.44406 13.4456L9.44574 13.4439L8.03063 12.0306ZM7.5 12.25L7.50158 10.25H7.5V12.25ZM6.75 12.25V10.25H4.75V12.25H6.75ZM6.75 13H8.75H6.75ZM5.25 13.75V11.75H3.25V13.75H5.25ZM5.25 14.5H7.25H5.25ZM1.25 12.2068L3.25001 12.2068L3.25 12.2014L1.25 12.2068ZM1.61625 11.3231L3.02612 12.7417L3.03047 12.7373L1.61625 11.3231ZM4.96125 7.97809L6.37547 9.39231L7.21208 8.5557L6.8817 7.41961L4.96125 7.97809ZM12.6519 3.84809L11.2313 5.25596L11.2368 5.26147L11.2423 5.26694L12.6519 3.84809ZM9.875 2.74997L9.93748 4.74902L9.94842 4.74862L9.875 2.74997ZM6.25 6.49309L8.25 6.49962V6.49309H6.25ZM6.5125 7.87997L4.65324 8.61695L4.66319 8.64206L4.67382 8.66689L6.5125 7.87997ZM6.35313 8.70559L4.93945 7.29085L4.93818 7.29212L6.35313 8.70559ZM2.75 12.3125L1.33506 10.899L0.750005 11.4847V12.3125H2.75ZM2.75 13.75H0.750005V15.75H2.75V13.75ZM3.75 13.75V15.75H5.75V13.75H3.75ZM5.25 12.25V14.25H7.25V12.25H5.25ZM7.1875 10.75V12.75H8.01593L8.60172 12.1642L7.1875 10.75ZM7.79063 10.1468L9.20484 11.5611L9.20587 11.56L7.79063 10.1468ZM8.61688 9.98747L7.82879 11.8257L7.85388 11.8364L7.87925 11.8465L8.61688 9.98747ZM10 10.25L10 8.24996L9.99477 8.24998L10 10.25ZM13.7481 6.62497L11.7495 6.55162L11.7491 6.56111L13.7481 6.62497ZM12.25 5.24997H10.25C10.25 5.05219 10.3087 4.85885 10.4185 4.6944L12.0815 5.80554L13.7444 6.91668C14.0741 6.42333 14.25 5.84331 14.25 5.24997H12.25ZM12.0815 5.80554L10.4185 4.6944C10.5284 4.52995 10.6846 4.40178 10.8673 4.32609L11.6327 6.17385L12.3981 8.02161C12.9462 7.79454 13.4148 7.41003 13.7444 6.91668L12.0815 5.80554ZM11.6327 6.17385L10.8673 4.32609C11.05 4.2504 11.2511 4.2306 11.4451 4.26918L11.0549 6.23075L10.6647 8.19233C11.2467 8.30808 11.8499 8.24867 12.3981 8.02161L11.6327 6.17385ZM11.0549 6.23075L11.4451 4.26918C11.6391 4.30777 11.8173 4.40301 11.9571 4.54286L10.5429 5.95708L9.12868 7.37129C9.54824 7.79085 10.0828 8.07657 10.6647 8.19233L11.0549 6.23075ZM10.5429 5.95708L11.9571 4.54286C12.097 4.68271 12.1922 4.8609 12.2308 5.05488L10.2692 5.44506L8.30765 5.83524C8.4234 6.41719 8.70913 6.95173 9.12868 7.37129L10.5429 5.95708ZM10.2692 5.44506L12.2308 5.05488C12.2694 5.24886 12.2496 5.44993 12.1739 5.63265L10.3261 4.86729L8.47837 4.10192C8.2513 4.6501 8.19189 5.2533 8.30765 5.83524L10.2692 5.44506ZM10.3261 4.86729L12.1739 5.63265C12.0982 5.81538 11.97 5.97156 11.8056 6.08144L10.6944 4.4185L9.58329 2.75556C9.08994 3.08521 8.70543 3.55374 8.47837 4.10192L10.3261 4.86729ZM10.6944 4.4185L11.8056 6.08144C11.6411 6.19132 11.4478 6.24997 11.25 6.24997V4.24997V2.24997C10.6567 2.24997 10.0766 2.42592 9.58329 2.75556L10.6944 4.4185ZM11.25 4.24997L11.25 6.24997C10.9848 6.24997 10.7304 6.14461 10.5429 5.95708L11.9571 4.54286L13.3713 3.12865C12.8087 2.56604 12.0457 2.24997 11.25 2.24997L11.25 4.24997ZM11.9571 4.54286L10.5429 5.95708C10.3554 5.76954 10.25 5.51519 10.25 5.24997H12.25H14.25C14.25 4.45432 13.9339 3.69126 13.3713 3.12865L11.9571 4.54286ZM15.25 6.67122L13.2513 6.59911C13.2209 7.4427 12.8653 8.24182 12.2589 8.82913L13.6505 10.2657L15.042 11.7022C16.3903 10.3962 17.181 8.61923 17.2487 6.74332L15.25 6.67122ZM13.6505 10.2657L12.2589 8.82913C11.6526 9.41645 10.8426 9.74643 9.99845 9.74999L10.0069 11.75L10.0153 13.75C11.8924 13.742 13.6937 13.0083 15.042 11.7022L13.6505 10.2657ZM10.0069 11.75V9.74997H10V11.75V13.75H10.0069V11.75ZM10 11.75L9.99689 9.74997C9.68829 9.75045 9.38121 9.70657 9.0851 9.61966L8.52188 11.5387L7.95866 13.4578C8.62263 13.6526 9.31115 13.751 10.0031 13.75L10 11.75ZM8.52188 11.5387L7.10677 10.1254L6.61552 10.6173L8.03063 12.0306L9.44574 13.4439L9.93699 12.952L8.52188 11.5387ZM8.03063 12.0306L6.6172 10.6156C6.73338 10.4995 6.87128 10.4075 7.02302 10.3448L7.78714 12.1931L8.55127 14.0413C8.8851 13.9033 9.18847 13.7009 9.44406 13.4456L8.03063 12.0306ZM7.78714 12.1931L7.02302 10.3448C7.17475 10.2821 7.33737 10.2498 7.50158 10.25L7.5 12.25L7.49843 14.25C7.85968 14.2503 8.21744 14.1794 8.55127 14.0413L7.78714 12.1931ZM7.5 12.25V10.25H6.75V12.25V14.25H7.5V12.25ZM6.75 12.25H4.75V13H6.75H8.75V12.25H6.75ZM6.75 13L4.75 13C4.75 12.6684 4.8817 12.3505 5.11612 12.1161L6.53033 13.5303L7.94455 14.9445C8.46027 14.4288 8.75 13.7293 8.75 13L6.75 13ZM6.53033 13.5303L5.11612 12.1161C5.35054 11.8817 5.66848 11.75 6 11.75V13.75V15.75C6.72935 15.75 7.42883 15.4602 7.94455 14.9445L6.53033 13.5303ZM6 13.75V11.75H5.25V13.75V15.75H6V13.75ZM5.25 13.75H3.25V14.5H5.25H7.25V13.75H5.25ZM5.25 14.5L3.25 14.5C3.25 14.1684 3.3817 13.8505 3.61612 13.6161L5.03033 15.0303L6.44455 16.4445C6.96027 15.9288 7.25 15.2293 7.25 14.5L5.25 14.5ZM5.03033 15.0303L3.61612 13.6161C3.85054 13.3817 4.16848 13.25 4.5 13.25V15.25V17.25C5.22935 17.25 5.92882 16.9602 6.44455 16.4445L5.03033 15.0303ZM4.5 15.25V13.25H2.5V15.25V17.25H4.5V15.25ZM2.5 15.25V13.25C2.69892 13.25 2.88968 13.329 3.03033 13.4696L1.61612 14.8839L0.201908 16.2981C0.811401 16.9076 1.63805 17.25 2.5 17.25V15.25ZM1.61612 14.8839L3.03033 13.4696C3.17099 13.6103 3.25 13.8011 3.25 14H1.25H-0.749995C-0.749995 14.8619 -0.407586 15.6886 0.201908 16.2981L1.61612 14.8839ZM1.25 14H3.25V12.2068H1.25H-0.749995V14H1.25ZM1.25 12.2068L3.25 12.2014C3.25027 12.3018 3.23062 12.4012 3.19219 12.494L1.34457 11.7283L-0.503048 10.9626C-0.667215 11.3587 -0.751149 11.7835 -0.749988 12.2123L1.25 12.2068ZM1.34457 11.7283L3.19219 12.494C3.15376 12.5867 3.09731 12.6709 3.02612 12.7416L1.61625 11.3231L0.206393 9.90454C-0.0977454 10.2068 -0.338882 10.5664 -0.503048 10.9626L1.34457 11.7283ZM1.61625 11.3231L3.03047 12.7373L6.37547 9.39231L4.96125 7.97809L3.54704 6.56388L0.202041 9.90888L1.61625 11.3231ZM4.96125 7.97809L6.8817 7.41961C6.75054 6.96862 6.7187 6.49456 6.78836 6.03007L4.81048 5.73345L2.8326 5.43682C2.6772 6.47298 2.74824 7.53051 3.04081 8.53657L4.96125 7.97809ZM4.81048 5.73345L6.78836 6.03007C6.85802 5.56559 7.02753 5.12172 7.28521 4.72904L5.61308 3.63178L3.94095 2.53451C3.36612 3.4105 2.98799 4.40066 2.8326 5.43682L4.81048 5.73345ZM5.61308 3.63178L7.28521 4.72904C7.54289 4.33635 7.88262 4.00419 8.281 3.75542L7.22167 2.059L6.16234 0.362591C5.27363 0.917546 4.51577 1.65853 3.94095 2.53451L5.61308 3.63178ZM7.22167 2.059L8.281 3.75542C8.67939 3.50664 9.12696 3.34717 9.59289 3.28799L9.34088 1.30393L9.08886 -0.680127C8.04947 -0.548103 7.05104 -0.192364 6.16234 0.362591L7.22167 2.059ZM9.34088 1.30393L9.59289 3.28799C10.0588 3.22881 10.5321 3.27132 10.98 3.41259L11.5816 1.50521L12.1831 -0.402171C11.1839 -0.717321 10.1283 -0.812151 9.08886 -0.680127L9.34088 1.30393ZM11.5816 1.50521L10.98 3.41259C11.4279 3.55387 11.8399 3.79055 12.1876 4.10634L13.5323 2.62588L14.877 1.14542C14.1014 0.440965 13.1824 -0.0870195 12.1831 -0.402171L11.5816 1.50521ZM13.5323 2.62588L12.1876 4.10634C12.5352 4.42213 12.8103 4.80952 12.9939 5.24184L14.8348 4.46016L16.6757 3.67847C16.2662 2.71406 15.6526 1.84988 14.877 1.14542L13.5323 2.62588ZM14.8348 4.46016L12.9939 5.24184C13.1775 5.67416 13.2652 6.14113 13.2509 6.6106L15.25 6.67122L17.2491 6.73184C17.2808 5.68458 17.0852 4.64287 16.6757 3.67847L14.8348 4.46016ZM12.6519 3.84809L14.0724 2.44023C13.516 1.87877 12.8491 1.4388 12.114 1.1481L11.3785 3.00796L10.6431 4.86781C10.8639 4.95514 11.0642 5.0873 11.2313 5.25596L12.6519 3.84809ZM11.3785 3.00796L12.114 1.1481C11.3789 0.857407 10.5915 0.722301 9.80159 0.751317L9.875 2.74997L9.94842 4.74862C10.1857 4.73991 10.4222 4.78049 10.6431 4.86781L11.3785 3.00796ZM9.875 2.74997L9.81254 0.750945C6.73038 0.847263 4.25 3.41529 4.25 6.49309H6.25H8.25C8.25 5.5709 9.01963 4.77768 9.93747 4.74899L9.875 2.74997ZM6.25 6.49309L4.25002 6.48657C4.24764 7.21589 4.38449 7.93895 4.65324 8.61695L6.5125 7.87997L8.37177 7.14299C8.29061 6.93823 8.24928 6.71987 8.24999 6.49962L6.25 6.49309ZM6.5125 7.87997L4.67382 8.66689C4.57554 8.43724 4.54831 8.18341 4.59566 7.93814L6.5594 8.31722L8.52315 8.69629C8.62731 8.1567 8.56742 7.59827 8.35119 7.09305L6.5125 7.87997ZM6.5594 8.31722L4.59566 7.93814C4.643 7.69288 4.76275 7.46742 4.93945 7.29085L6.35313 8.70559L7.76681 10.1203C8.15555 9.73189 8.41899 9.23588 8.52315 8.69629L6.5594 8.31722ZM6.35313 8.70559L4.93818 7.29212L1.33506 10.899L2.75 12.3125L4.16495 13.7259L7.76808 10.1191L6.35313 8.70559ZM2.75 12.3125H0.750005V13.75H2.75H4.75V12.3125H2.75ZM2.75 13.75V15.75H3.75V13.75V11.75H2.75V13.75ZM3.75 13.75H5.75V13H3.75H1.75V13.75H3.75ZM3.75 13H5.75C5.75 13.3315 5.61831 13.6494 5.38389 13.8839L3.96967 12.4696L2.55546 11.0554C2.03974 11.5712 1.75 12.2706 1.75 13H3.75ZM3.96967 12.4696L5.38389 13.8839C5.14947 14.1183 4.83153 14.25 4.5 14.25V12.25V10.25C3.77066 10.25 3.07118 10.5397 2.55546 11.0554L3.96967 12.4696ZM4.5 12.25V14.25H5.25V12.25V10.25H4.5V12.25ZM5.25 12.25H7.25V11.5H5.25H3.25V12.25H5.25ZM5.25 11.5H7.25C7.25 11.8315 7.11831 12.1494 6.88389 12.3839L5.46967 10.9696L4.05546 9.55543C3.53974 10.0712 3.25 10.7706 3.25 11.5H5.25ZM5.46967 10.9696L6.88389 12.3839C6.64947 12.6183 6.33153 12.75 6 12.75V10.75V8.74997C5.27066 8.74997 4.57118 9.0397 4.05546 9.55543L5.46967 10.9696ZM6 10.75V12.75H7.1875V10.75V8.74997H6V10.75ZM7.1875 10.75L8.60172 12.1642L9.20484 11.5611L7.79063 10.1468L6.37642 8.73263L5.77329 9.33576L7.1875 10.75ZM7.79063 10.1468L9.20587 11.56C9.02922 11.7369 8.80358 11.8568 8.55809 11.9042L8.1793 9.94036L7.8005 7.97656C7.26044 8.08073 6.76402 8.34446 6.37539 8.73366L7.79063 10.1468ZM8.1793 9.94036L8.55809 11.9042C8.31261 11.9515 8.05857 11.9242 7.82879 11.8257L8.61688 9.98747L9.40497 8.14929C8.89945 7.93256 8.34056 7.87239 7.8005 7.97656L8.1793 9.94036ZM8.61688 9.98747L7.87925 11.8465C8.55581 12.1149 9.27737 12.2519 10.0052 12.25L10 10.25L9.99477 8.24998C9.77556 8.25055 9.55826 8.20931 9.35451 8.12846L8.61688 9.98747ZM10 10.25V12.25H10.005V10.25V8.24997H10V10.25ZM10.005 10.25V12.25C13.0855 12.25 15.6489 9.76279 15.7471 6.68883L13.7481 6.62497L11.7491 6.56111C11.7198 7.4784 10.9245 8.24997 10.005 8.24997V10.25ZM13.7481 6.62497L15.7468 6.69832C15.7758 5.90894 15.641 5.12212 15.3509 4.3874L13.4906 5.1218L11.6303 5.8562C11.7176 6.0773 11.7582 6.31408 11.7495 6.55162L13.7481 6.62497ZM13.4906 5.1218L15.3509 4.3874C15.0609 3.65267 14.6218 2.98596 14.0614 2.42925L12.6519 3.84809L11.2423 5.26694C11.4109 5.43447 11.5431 5.6351 11.6303 5.8562L13.4906 5.1218Z" fill="#525252" mask="url(#path-1-inside-1_71_16312)"/>
</svg>
