<svg width="16" height="17" viewBox="0 0 16 17" fill="none" xmlns="http://www.w3.org/2000/svg">
<mask id="path-1-inside-1_71_16320" fill="white">
<path d="M13.7318 7.83628C13.7052 7.71739 13.6501 7.60678 13.5711 7.514C13.4922 7.42121 13.3918 7.34906 13.2787 7.30378L10.08 6.0244L10.7418 1.61128C10.7661 1.45281 10.739 1.29072 10.6644 1.14879C10.5899 1.00687 10.4718 0.89257 10.3275 0.822666C10.1832 0.752763 10.0203 0.730933 9.86274 0.760378C9.70515 0.789824 9.56114 0.868995 9.45183 0.986279L2.45183 8.48628C2.36862 8.57539 2.30839 8.68344 2.27636 8.80107C2.24432 8.9187 2.24144 9.04237 2.26798 9.16137C2.29451 9.28036 2.34965 9.39109 2.42862 9.48398C2.5076 9.57686 2.60802 9.64908 2.7212 9.6944L5.91996 10.9738L5.25808 15.3888C5.23378 15.5473 5.26091 15.7093 5.33547 15.8513C5.41004 15.9932 5.52812 16.1075 5.67241 16.1774C5.81669 16.2473 5.97957 16.2691 6.13717 16.2397C6.29476 16.2102 6.43877 16.1311 6.54808 16.0138L13.5481 8.51378C13.6317 8.42441 13.6921 8.31595 13.7241 8.19785C13.7561 8.07976 13.7588 7.95563 13.7318 7.83628ZM7.09996 13.2219L7.49183 10.6113C7.51687 10.4442 7.48476 10.2735 7.40071 10.127C7.31665 9.98042 7.18557 9.86654 7.02871 9.80378L4.2962 8.71065L8.89996 3.77815L8.50808 6.38878C8.48304 6.55587 8.51515 6.72651 8.5992 6.87308C8.68326 7.01964 8.81434 7.13352 8.97121 7.19628L11.7037 8.2894L7.09996 13.2219Z"/>
</mask>
<path d="M13.7318 7.83628L11.7801 8.27298L11.781 8.27696L13.7318 7.83628ZM13.2787 7.30378L14.0221 5.44708L14.0214 5.4468L13.2787 7.30378ZM10.08 6.0244L8.10208 5.72776L7.86726 7.29345L9.33724 7.88138L10.08 6.0244ZM10.7418 1.61128L8.76492 1.30819L8.76395 1.31464L10.7418 1.61128ZM9.45183 0.986279L10.9139 2.35092L10.9149 2.34986L9.45183 0.986279ZM2.45183 8.48628L3.91362 9.85126L3.91394 9.85092L2.45183 8.48628ZM2.7212 9.6944L1.97775 11.5511L1.97849 11.5514L2.7212 9.6944ZM5.91996 10.9738L7.89785 11.2703L8.13256 9.7047L6.66267 9.1168L5.91996 10.9738ZM5.25808 15.3888L7.23499 15.6919L7.23598 15.6853L5.25808 15.3888ZM6.54808 16.0138L5.08597 14.6491L5.08498 14.6502L6.54808 16.0138ZM13.5481 8.51378L12.0872 7.14779L12.086 7.14914L13.5481 8.51378ZM7.09996 13.2219L5.12211 12.925L4.16564 19.2969L8.56205 14.5866L7.09996 13.2219ZM7.49183 10.6113L9.46967 10.9082L9.46974 10.9077L7.49183 10.6113ZM7.02871 9.80378L7.77162 7.94688L7.77156 7.94686L7.02871 9.80378ZM4.2962 8.71065L2.83411 7.346L0.840268 9.48222L3.55335 10.5676L4.2962 8.71065ZM8.89996 3.77815L10.8778 4.07504L11.8343 -2.29685L7.43786 2.4135L8.89996 3.77815ZM8.50808 6.38878L6.53024 6.09189L6.53017 6.09235L8.50808 6.38878ZM8.97121 7.19628L8.2283 9.05318L8.22835 9.0532L8.97121 7.19628ZM11.7037 8.2894L13.1658 9.65405L15.1596 7.51784L12.4466 6.43248L11.7037 8.2894ZM13.7318 7.83628L15.6836 7.39958C15.586 6.96366 15.3838 6.55806 15.0943 6.21787L13.5711 7.514L12.0479 8.81012C11.9164 8.65549 11.8244 8.47113 11.7801 8.27298L13.7318 7.83628ZM13.5711 7.514L15.0943 6.21787C14.8048 5.87767 14.4368 5.61312 14.0221 5.44708L13.2787 7.30378L12.5353 9.16048C12.3468 9.08501 12.1795 8.96476 12.0479 8.81012L13.5711 7.514ZM13.2787 7.30378L14.0214 5.4468L10.8227 4.16743L10.08 6.0244L9.33724 7.88138L12.536 9.16076L13.2787 7.30378ZM10.08 6.0244L12.0578 6.32104L12.7197 1.90792L10.7418 1.61128L8.76395 1.31464L8.10208 5.72776L10.08 6.0244ZM10.7418 1.61128L12.7187 1.91437C12.8078 1.33331 12.7084 0.738992 12.435 0.218593L10.6644 1.14879L8.89392 2.079C8.76964 1.84245 8.72444 1.57231 8.76493 1.30819L10.7418 1.61128ZM10.6644 1.14879L12.435 0.218593C12.1615 -0.301804 11.7286 -0.720897 11.1995 -0.977211L10.3275 0.822666L9.45547 2.62254C9.215 2.50604 9.0182 2.31554 8.89392 2.079L10.6644 1.14879ZM10.3275 0.822666L11.1995 -0.977211C10.6705 -1.23352 10.0733 -1.31357 9.49542 -1.2056L9.86274 0.760378L10.2301 2.72636C9.96741 2.77543 9.69594 2.73905 9.45547 2.62254L10.3275 0.822666ZM9.86274 0.760378L9.49542 -1.2056C8.91757 -1.09763 8.38952 -0.807338 7.98873 -0.377297L9.45183 0.986279L10.9149 2.34986C10.7328 2.54533 10.4927 2.67728 10.2301 2.72636L9.86274 0.760378ZM9.45183 0.986279L7.98972 -0.378357L0.989719 7.12164L2.45183 8.48628L3.91394 9.85092L10.9139 2.35092L9.45183 0.986279ZM2.45183 8.48628L0.990042 7.1213C0.684946 7.44803 0.464105 7.84421 0.346639 8.27553L2.27636 8.80107L4.20607 9.32661C4.15268 9.52266 4.0523 9.70275 3.91362 9.85126L2.45183 8.48628ZM2.27636 8.80107L0.346639 8.27553C0.229173 8.70685 0.218626 9.1603 0.315911 9.59662L2.26798 9.16137L4.22004 8.72612C4.26426 8.92444 4.25947 9.13056 4.20607 9.32661L2.27636 8.80107ZM2.26798 9.16137L0.315911 9.59662C0.413197 10.0329 0.615383 10.439 0.904952 10.7795L2.42862 9.48398L3.95229 8.18843C4.08392 8.34323 4.17582 8.52779 4.22004 8.72612L2.26798 9.16137ZM2.42862 9.48398L0.904952 10.7795C1.19452 11.1201 1.56275 11.3849 1.97775 11.5511L2.7212 9.6944L3.46466 7.83772C3.6533 7.91326 3.82067 8.03364 3.95229 8.18843L2.42862 9.48398ZM2.7212 9.6944L1.97849 11.5514L5.17724 12.8308L5.91996 10.9738L6.66267 9.1168L3.46392 7.83743L2.7212 9.6944ZM5.91996 10.9738L3.94206 10.6773L3.28018 15.0923L5.25808 15.3888L7.23598 15.6853L7.89785 11.2703L5.91996 10.9738ZM5.25808 15.3888L3.28118 15.0857C3.19209 15.6668 3.29155 16.2611 3.56496 16.7815L5.33547 15.8513L7.10599 14.9211C7.23027 15.1576 7.27547 15.4278 7.23498 15.6919L5.25808 15.3888ZM5.33547 15.8513L3.56496 16.7815C3.83837 17.3019 4.27134 17.721 4.80037 17.9773L5.67241 16.1774L6.54444 14.3775C6.7849 14.494 6.98171 14.6845 7.10599 14.9211L5.33547 15.8513ZM5.67241 16.1774L4.80037 17.9773C5.3294 18.2336 5.92664 18.3136 6.50449 18.2057L6.13717 16.2397L5.76984 14.2737C6.0325 14.2246 6.30397 14.261 6.54444 14.3775L5.67241 16.1774ZM6.13717 16.2397L6.50449 18.2057C7.08234 18.0977 7.61039 17.8074 8.01118 17.3774L6.54808 16.0138L5.08498 14.6502C5.26716 14.4547 5.50718 14.3228 5.76984 14.2737L6.13717 16.2397ZM6.54808 16.0138L8.01019 17.3784L15.0102 9.87842L13.5481 8.51378L12.086 7.14914L5.08597 14.6491L6.54808 16.0138ZM13.5481 8.51378L15.0089 9.87977C15.3153 9.55207 15.5369 9.15438 15.6544 8.72138L13.7241 8.19785L11.7938 7.67433C11.8472 7.47751 11.948 7.29674 12.0872 7.14779L13.5481 8.51378ZM13.7241 8.19785L15.6544 8.72138C15.7718 8.28838 15.7815 7.83322 15.6827 7.3956L13.7318 7.83628L11.781 8.27696C11.7361 8.07804 11.7405 7.87115 11.7938 7.67433L13.7241 8.19785ZM7.09996 13.2219L9.0778 13.5188L9.46967 10.9082L7.49183 10.6113L5.51399 10.3144L5.12211 12.925L7.09996 13.2219ZM7.49183 10.6113L9.46974 10.9077C9.56156 10.2951 9.44383 9.66935 9.13562 9.13196L7.40071 10.127L5.66579 11.122C5.5257 10.8777 5.47218 10.5933 5.51392 10.3148L7.49183 10.6113ZM7.40071 10.127L9.13562 9.13196C8.82741 8.59457 8.34679 8.17699 7.77162 7.94688L7.02871 9.80378L6.2858 11.6607C6.02435 11.5561 5.80589 11.3663 5.66579 11.122L7.40071 10.127ZM7.02871 9.80378L7.77156 7.94686L5.03906 6.85373L4.2962 8.71065L3.55335 10.5676L6.28585 11.6607L7.02871 9.80378ZM4.2962 8.71065L5.7583 10.0753L10.3621 5.1428L8.89996 3.77815L7.43786 2.4135L2.83411 7.346L4.2962 8.71065ZM8.89996 3.77815L6.92211 3.48127L6.53024 6.09189L8.50808 6.38878L10.4859 6.68567L10.8778 4.07504L8.89996 3.77815ZM8.50808 6.38878L6.53017 6.09235C6.43835 6.705 6.55608 7.33071 6.86429 7.8681L8.5992 6.87308L10.3341 5.87805C10.4742 6.12232 10.5277 6.40673 10.486 6.68521L8.50808 6.38878ZM8.5992 6.87308L6.86429 7.8681C7.1725 8.40548 7.65312 8.82306 8.2283 9.05318L8.97121 7.19628L9.71412 5.33938C9.97556 5.44398 10.194 5.63379 10.3341 5.87805L8.5992 6.87308ZM8.97121 7.19628L8.22835 9.0532L10.9609 10.1463L11.7037 8.2894L12.4466 6.43248L9.71406 5.33935L8.97121 7.19628ZM11.7037 8.2894L10.2416 6.92475L5.63786 11.8573L7.09996 13.2219L8.56205 14.5866L13.1658 9.65405L11.7037 8.2894Z" fill="#525252" mask="url(#path-1-inside-1_71_16320)"/>
</svg>
