<svg width="24" height="22" viewBox="0 0 24 22" fill="none" xmlns="http://www.w3.org/2000/svg">
<path d="M19.9661 13.9438L12.3715 0.716494C12.3347 0.65118 12.2814 0.596773 12.2171 0.558764C12.1527 0.520755 12.0795 0.500488 12.0049 0.500009C11.9303 0.499529 11.8568 0.518854 11.792 0.556032C11.7272 0.593211 11.6732 0.646929 11.6356 0.711766L9.36112 4.67524C9.28663 4.80498 9.24742 4.95216 9.24742 5.10197C9.24742 5.25178 9.28663 5.39895 9.36112 5.52869L14.3133 14.1578C14.3879 14.2877 14.4952 14.3955 14.6243 14.4704C14.7535 14.5453 14.9 14.5847 15.0492 14.5845H19.5982C19.6727 14.5843 19.7458 14.5644 19.8102 14.5269C19.8747 14.4894 19.9282 14.4355 19.9654 14.3706C20.0027 14.3058 20.0223 14.2322 20.0224 14.1573C20.0226 14.0824 20.0031 14.0088 19.9661 13.9438Z" fill="#363FF9"/>
<path d="M0.0585625 20.8569L7.6532 7.6296C7.69046 7.5648 7.74404 7.511 7.80851 7.4736C7.87299 7.4362 7.9461 7.41651 8.02053 7.41651C8.09496 7.41651 8.1681 7.4362 8.23258 7.4736C8.29705 7.511 8.3506 7.5648 8.38786 7.6296L10.6636 11.5895C10.738 11.7195 10.7772 11.8669 10.7772 12.0168C10.7772 12.1668 10.738 12.3142 10.6636 12.4442L5.71134 21.0733C5.63706 21.2031 5.53003 21.311 5.40103 21.3859C5.27203 21.4608 5.12565 21.5002 4.97668 21.5H0.426482C0.351525 21.5004 0.277809 21.4808 0.212827 21.4432C0.147845 21.4056 0.0939217 21.3514 0.0565393 21.2861C0.0191569 21.2207 -0.000351927 21.1466 4.80591e-06 21.0712C0.000361539 20.9959 0.0205634 20.9219 0.0585625 20.8569Z" fill="#363FF9"/>
<path d="M8.38677 21.4972H23.5761C23.6506 21.4971 23.7238 21.4773 23.7882 21.4398C23.8527 21.4022 23.9062 21.3483 23.9434 21.2833C23.9806 21.2184 24.0001 21.1448 24 21.0698C23.9999 20.9949 23.9802 20.9213 23.9428 20.8565L21.6706 16.8942C21.5961 16.7643 21.4888 16.6565 21.3596 16.5816C21.2305 16.5067 21.0839 16.4673 20.9348 16.4675H11.0304C10.8813 16.4673 10.7347 16.5067 10.6056 16.5816C10.4764 16.6565 10.3691 16.7643 10.2945 16.8942L8.02005 20.8565C7.98269 20.9213 7.96296 20.9949 7.96285 21.0698C7.96275 21.1448 7.98224 21.2184 8.01942 21.2833C8.05659 21.3483 8.11013 21.4022 8.17461 21.4398C8.2391 21.4773 8.31226 21.4971 8.38677 21.4972Z" fill="#363FF9"/>
</svg>
