<svg width="14" height="14" viewBox="0 0 14 14" fill="none" xmlns="http://www.w3.org/2000/svg">
<mask id="path-1-inside-1_71_16330" fill="white">
<path d="M12.7141 11.7857L10.117 9.18749C10.8957 8.17274 11.2592 6.89979 11.1339 5.62686C11.0086 4.35393 10.4037 3.17633 9.44206 2.33295C8.48041 1.48957 7.23395 1.04356 5.95555 1.0854C4.67714 1.12724 3.46252 1.65379 2.55806 2.55825C1.65361 3.4627 1.12706 4.67732 1.08522 5.95573C1.04338 7.23414 1.48939 8.48059 2.33277 9.44225C3.17615 10.4039 4.35374 11.0087 5.62668 11.1341C6.89961 11.2594 8.17256 10.8959 9.1873 10.1172L11.7866 12.717C11.8476 12.7781 11.9201 12.8265 11.9999 12.8595C12.0796 12.8926 12.1651 12.9096 12.2514 12.9096C12.3378 12.9096 12.4233 12.8926 12.503 12.8595C12.5828 12.8265 12.6552 12.7781 12.7163 12.717C12.7773 12.656 12.8258 12.5835 12.8588 12.5037C12.8918 12.424 12.9088 12.3385 12.9088 12.2522C12.9088 12.1658 12.8918 12.0804 12.8588 12.0006C12.8258 11.9208 12.7773 11.8484 12.7163 11.7873L12.7141 11.7857ZM2.40605 6.12499C2.40605 5.38949 2.62415 4.6705 3.03278 4.05896C3.4414 3.44741 4.02219 2.97077 4.7017 2.68931C5.38121 2.40785 6.12893 2.3342 6.8503 2.47769C7.57166 2.62118 8.23428 2.97536 8.75436 3.49543C9.27443 4.01551 9.62861 4.67813 9.7721 5.39949C9.91559 6.12086 9.84194 6.86858 9.56048 7.54809C9.27902 8.2276 8.80238 8.80839 8.19083 9.21701C7.57928 9.62563 6.8603 9.84374 6.1248 9.84374C5.13884 9.84272 4.19355 9.4506 3.49637 8.75342C2.79919 8.05624 2.40707 7.11095 2.40605 6.12499Z"/>
</mask>
<path d="M12.7141 11.7857L11.2996 13.1996L11.4002 13.3002L11.514 13.3856L12.7141 11.7857ZM10.117 9.18749L8.53033 7.96991L7.46273 9.36113L8.70248 10.6014L10.117 9.18749ZM9.1873 10.1172L10.6017 8.70311L9.36139 7.46257L7.96972 8.53051L9.1873 10.1172ZM11.7866 12.717L10.3722 14.1311L10.3724 14.1312L11.7866 12.717ZM12.9088 12.2522L14.9088 12.2522L12.9088 12.2522ZM12.7163 11.7873L14.1305 10.3731L14.03 10.2727L13.9164 10.1874L12.7163 11.7873ZM2.40605 6.12499L0.406052 6.12499L0.406054 6.12704L2.40605 6.12499ZM6.1248 9.84374L6.12275 11.8437H6.1248L6.1248 9.84374ZM12.7141 11.7857L14.1286 10.3718L11.5315 7.77357L10.117 9.18749L8.70248 10.6014L11.2996 13.1996L12.7141 11.7857ZM10.117 9.18749L11.7037 10.4051C12.7915 8.98747 13.2994 7.20917 13.1243 5.43088L11.1339 5.62686L9.14353 5.82284C9.21911 6.59042 8.99988 7.35801 8.53033 7.96991L10.117 9.18749ZM11.1339 5.62686L13.1243 5.43088C12.9492 3.65259 12.1042 2.00749 10.7608 0.829293L9.44206 2.33295L8.12334 3.8366C8.70322 4.34516 9.06795 5.05526 9.14353 5.82284L11.1339 5.62686ZM9.44206 2.33295L10.7608 0.829293C9.41735 -0.348907 7.67606 -0.971978 5.89013 -0.913529L5.95555 1.0854L6.02097 3.08433C6.79185 3.0591 7.54346 3.32805 8.12334 3.8366L9.44206 2.33295ZM5.95555 1.0854L5.89013 -0.913529C4.1042 -0.855079 2.40737 -0.119486 1.14385 1.14403L2.55806 2.55825L3.97228 3.97246C4.51766 3.42707 5.25009 3.10956 6.02097 3.08433L5.95555 1.0854ZM2.55806 2.55825L1.14385 1.14403C-0.119669 2.40755 -0.855263 4.10438 -0.913712 5.89031L1.08522 5.95573L3.08415 6.02115C3.10938 5.25027 3.42689 4.51785 3.97228 3.97246L2.55806 2.55825ZM1.08522 5.95573L-0.913712 5.89031C-0.972161 7.67624 -0.34909 9.41753 0.82911 10.761L2.33277 9.44225L3.83642 8.12353C3.32786 7.54365 3.05892 6.79203 3.08415 6.02115L1.08522 5.95573ZM2.33277 9.44225L0.82911 10.761C2.00731 12.1044 3.65241 12.9494 5.4307 13.1245L5.62668 11.1341L5.82266 9.14371C5.05508 9.06813 4.34498 8.70341 3.83642 8.12353L2.33277 9.44225ZM5.62668 11.1341L5.4307 13.1245C7.20898 13.2996 8.98729 12.7917 10.4049 11.7038L9.1873 10.1172L7.96972 8.53051C7.35783 9.00007 6.59024 9.21929 5.82266 9.14371L5.62668 11.1341ZM9.1873 10.1172L7.77294 11.5312L10.3722 14.1311L11.7866 12.717L13.201 11.303L10.6017 8.70311L9.1873 10.1172ZM11.7866 12.717L10.3724 14.1312C10.6191 14.378 10.9121 14.5737 11.2345 14.7073L11.9999 12.8595L12.7652 11.0118C12.9281 11.0792 13.0761 11.1781 13.2008 11.3028L11.7866 12.717ZM11.9999 12.8595L11.2345 14.7073C11.5569 14.8408 11.9025 14.9096 12.2514 14.9096V12.9096V10.9096C12.4278 10.9096 12.6024 10.9443 12.7652 11.0118L11.9999 12.8595ZM12.2514 12.9096V14.9096C12.6004 14.9096 12.946 14.8408 13.2684 14.7073L12.503 12.8595L11.7376 11.0118C11.9005 10.9443 12.0751 10.9096 12.2514 10.9096V12.9096ZM12.503 12.8595L13.2684 14.7073C13.5908 14.5737 13.8837 14.378 14.1305 14.1312L12.7163 12.717L11.3021 11.3028C11.4267 11.1781 11.5747 11.0792 11.7376 11.0118L12.503 12.8595ZM12.7163 12.717L14.1305 14.1312C14.3773 13.8845 14.573 13.5915 14.7066 13.2691L12.8588 12.5037L11.011 11.7384C11.0785 11.5755 11.1774 11.4275 11.3021 11.3028L12.7163 12.717ZM12.8588 12.5037L14.7066 13.2691C14.8401 12.9467 14.9088 12.6011 14.9088 12.2522L12.9088 12.2522L10.9088 12.2522C10.9088 12.0759 10.9436 11.9013 11.011 11.7384L12.8588 12.5037ZM12.9088 12.2522L14.9088 12.2522C14.9088 11.9032 14.8401 11.5576 14.7066 11.2352L12.8588 12.0006L11.011 12.766C10.9436 12.6031 10.9088 12.4285 10.9088 12.2522L12.9088 12.2522ZM12.8588 12.0006L14.7066 11.2352C14.573 10.9128 14.3773 10.6199 14.1305 10.3731L12.7163 11.7873L11.3021 13.2015C11.1774 13.0769 11.0785 12.9289 11.011 12.766L12.8588 12.0006ZM12.7163 11.7873L13.9164 10.1874L13.9142 10.1858L12.7141 11.7857L11.514 13.3856L11.5162 13.3873L12.7163 11.7873ZM2.40605 6.12499L4.40605 6.12499C4.40605 5.78505 4.50686 5.45275 4.69571 5.1701L3.03278 4.05896L1.36984 2.94782C0.741452 3.88826 0.406053 4.99392 0.406053 6.12499L2.40605 6.12499ZM3.03278 4.05896L4.69571 5.1701C4.88457 4.88745 5.15301 4.66716 5.46707 4.53707L4.7017 2.68931L3.93633 0.84155C2.89137 1.27439 1.99822 2.00737 1.36984 2.94782L3.03278 4.05896ZM4.7017 2.68931L5.46707 4.53707C5.78113 4.40698 6.12671 4.37294 6.46011 4.43926L6.8503 2.47769L7.24048 0.51612C6.13115 0.295461 4.9813 0.408711 3.93633 0.84155L4.7017 2.68931ZM6.8503 2.47769L6.46011 4.43926C6.79352 4.50558 7.09977 4.66927 7.34014 4.90965L8.75436 3.49543L10.1686 2.08122C9.36879 1.28144 8.34981 0.73678 7.24048 0.51612L6.8503 2.47769ZM8.75436 3.49543L7.34014 4.90965C7.58051 5.15002 7.74421 5.45627 7.81053 5.78967L9.7721 5.39949L11.7337 5.00931C11.513 3.89998 10.9684 2.881 10.1686 2.08122L8.75436 3.49543ZM9.7721 5.39949L7.81053 5.78967C7.87685 6.12308 7.84281 6.46866 7.71272 6.78272L9.56048 7.54809L11.4082 8.31346C11.8411 7.26849 11.9543 6.11864 11.7337 5.00931L9.7721 5.39949ZM9.56048 7.54809L7.71272 6.78272C7.58263 7.09678 7.36234 7.36522 7.07969 7.55407L8.19083 9.21701L9.30197 10.88C10.2424 10.2516 10.9754 9.35842 11.4082 8.31346L9.56048 7.54809ZM8.19083 9.21701L7.07969 7.55407C6.79704 7.74293 6.46474 7.84374 6.1248 7.84374L6.1248 9.84374L6.1248 11.8437C7.25587 11.8437 8.36153 11.5083 9.30197 10.88L8.19083 9.21701ZM6.1248 9.84374L6.12686 7.84374C5.67062 7.84327 5.23319 7.66182 4.91058 7.33921L3.49637 8.75342L2.08216 10.1676C3.15391 11.2394 4.60706 11.8422 6.12275 11.8437L6.1248 9.84374ZM3.49637 8.75342L4.91058 7.33921C4.58797 7.01659 4.40652 6.57917 4.40605 6.12293L2.40605 6.12499L0.406054 6.12704C0.407612 7.64273 1.01041 9.09588 2.08216 10.1676L3.49637 8.75342Z" fill="#A3A3A3" mask="url(#path-1-inside-1_71_16330)"/>
</svg>
