<svg width="16" height="17" viewBox="0 0 16 17" fill="none" xmlns="http://www.w3.org/2000/svg">
<mask id="path-1-inside-1_71_16313" fill="white">
<path d="M14.5 7.25H8.75V6.25H9C9.16415 6.25 9.3267 6.21767 9.47835 6.15485C9.63001 6.09203 9.76781 5.99996 9.88388 5.88388C9.99996 5.76781 10.092 5.63001 10.1548 5.47835C10.2177 5.3267 10.25 5.16415 10.25 5V3C10.25 2.83585 10.2177 2.6733 10.1548 2.52165C10.092 2.36999 9.99996 2.23219 9.88388 2.11612C9.76781 2.00004 9.63001 1.90797 9.47835 1.84515C9.3267 1.78233 9.16415 1.75 9 1.75H7C6.66848 1.75 6.35054 1.8817 6.11612 2.11612C5.8817 2.35054 5.75 2.66848 5.75 3V5C5.75 5.16415 5.78233 5.3267 5.84515 5.47835C5.90797 5.63001 6.00004 5.76781 6.11612 5.88388C6.35054 6.1183 6.66848 6.25 7 6.25H7.25V7.25H1.5C1.30109 7.25 1.11032 7.32902 0.96967 7.46967C0.829018 7.61032 0.75 7.80109 0.75 8C0.75 8.19891 0.829018 8.38968 0.96967 8.53033C1.11032 8.67098 1.30109 8.75 1.5 8.75H3.25V10.25H3C2.66848 10.25 2.35054 10.3817 2.11612 10.6161C1.8817 10.8505 1.75 11.1685 1.75 11.5V13.5C1.75 13.8315 1.8817 14.1495 2.11612 14.3839C2.35054 14.6183 2.66848 14.75 3 14.75H5C5.33152 14.75 5.64946 14.6183 5.88388 14.3839C6.1183 14.1495 6.25 13.8315 6.25 13.5V11.5C6.25 11.1685 6.1183 10.8505 5.88388 10.6161C5.64946 10.3817 5.33152 10.25 5 10.25H4.75V8.75H11.25V10.25H11C10.6685 10.25 10.3505 10.3817 10.1161 10.6161C9.8817 10.8505 9.75 11.1685 9.75 11.5V13.5C9.75 13.8315 9.8817 14.1495 10.1161 14.3839C10.3505 14.6183 10.6685 14.75 11 14.75H13C13.3315 14.75 13.6495 14.6183 13.8839 14.3839C14.1183 14.1495 14.25 13.8315 14.25 13.5V11.5C14.25 11.1685 14.1183 10.8505 13.8839 10.6161C13.6495 10.3817 13.3315 10.25 13 10.25H12.75V8.75H14.5C14.6989 8.75 14.8897 8.67098 15.0303 8.53033C15.171 8.38968 15.25 8.19891 15.25 8C15.25 7.80109 15.171 7.61032 15.0303 7.46967C14.8897 7.32902 14.6989 7.25 14.5 7.25ZM7.25 3.25H8.75V4.75H7.25V3.25ZM4.75 13.25H3.25V11.75H4.75V13.25ZM12.75 13.25H11.25V11.75H12.75V13.25Z"/>
</mask>
<path d="M14.5 7.25V5.25V7.25ZM8.75 7.25H6.75V9.25H8.75V7.25ZM8.75 6.25V4.25H6.75V6.25H8.75ZM9 6.25V4.25V6.25ZM10.25 3H8.25H10.25ZM5.75 5L3.75 5L5.75 5ZM7 6.25L7 4.25L7 6.25ZM7.25 6.25H9.25V4.25H7.25V6.25ZM7.25 7.25V9.25H9.25V7.25H7.25ZM1.5 7.25L1.5 5.25L1.5 7.25ZM0.75 8H-1.25H0.75ZM3.25 8.75H5.25V6.75H3.25V8.75ZM3.25 10.25V12.25H5.25V10.25H3.25ZM1.75 11.5H-0.25H1.75ZM1.75 13.5L-0.25 13.5L1.75 13.5ZM4.75 10.25H2.75V12.25H4.75V10.25ZM4.75 8.75V6.75H2.75V8.75H4.75ZM11.25 8.75H13.25V6.75H11.25V8.75ZM11.25 10.25V12.25H13.25V10.25H11.25ZM12.75 10.25H10.75V12.25H12.75V10.25ZM12.75 8.75V6.75H10.75V8.75H12.75ZM7.25 3.25V1.25H5.25V3.25H7.25ZM8.75 3.25H10.75V1.25H8.75V3.25ZM8.75 4.75V6.75H10.75V4.75H8.75ZM7.25 4.75H5.25V6.75H7.25V4.75ZM4.75 13.25V15.25H6.75V13.25H4.75ZM3.25 13.25H1.25V15.25H3.25V13.25ZM3.25 11.75V9.75H1.25V11.75H3.25ZM4.75 11.75H6.75V9.75H4.75V11.75ZM12.75 13.25V15.25H14.75V13.25H12.75ZM11.25 13.25H9.25V15.25H11.25V13.25ZM11.25 11.75V9.75H9.25V11.75H11.25ZM12.75 11.75H14.75V9.75H12.75V11.75ZM14.5 7.25V5.25H8.75V7.25V9.25H14.5V7.25ZM8.75 7.25H10.75V6.25H8.75H6.75V7.25H8.75ZM8.75 6.25V8.25H9V6.25V4.25H8.75V6.25ZM9 6.25L9 8.25C9.42679 8.25 9.84941 8.16594 10.2437 8.00261L9.47835 6.15485L8.71299 4.30709C8.80398 4.2694 8.90151 4.25 9 4.25L9 6.25ZM9.47835 6.15485L10.2437 8.00261C10.638 7.83928 10.9963 7.59989 11.2981 7.2981L9.88388 5.88388L8.46967 4.46967C8.53931 4.40003 8.62199 4.34478 8.71299 4.30709L9.47835 6.15485ZM9.88388 5.88388L11.2981 7.2981C11.5999 6.99631 11.8393 6.63803 12.0026 6.24372L10.1548 5.47835L8.30709 4.71299C8.34478 4.622 8.40002 4.53932 8.46967 4.46967L9.88388 5.88388ZM10.1548 5.47835L12.0026 6.24372C12.1659 5.84942 12.25 5.4268 12.25 5H10.25H8.25C8.25 4.90151 8.2694 4.80398 8.30709 4.71299L10.1548 5.47835ZM10.25 5H12.25V3H10.25H8.25V5H10.25ZM10.25 3L12.25 3C12.25 2.5732 12.1659 2.15058 12.0026 1.75628L10.1548 2.52165L8.30709 3.28701C8.2694 3.19602 8.25 3.09849 8.25 3L10.25 3ZM10.1548 2.52165L12.0026 1.75628C11.8393 1.36197 11.5999 1.0037 11.2981 0.701903L9.88388 2.11612L8.46967 3.53033C8.40002 3.46068 8.34478 3.378 8.30709 3.28701L10.1548 2.52165ZM9.88388 2.11612L11.2981 0.701903C10.9963 0.400113 10.638 0.16072 10.2437 -0.00260848L9.47835 1.84515L8.71299 3.69291C8.62199 3.65522 8.53931 3.59997 8.46967 3.53033L9.88388 2.11612ZM9.47835 1.84515L10.2437 -0.00260848C9.84941 -0.165936 9.4268 -0.25 9 -0.25V1.75V3.75C8.90151 3.75 8.80398 3.7306 8.71299 3.69291L9.47835 1.84515ZM9 1.75V-0.25H7V1.75V3.75H9V1.75ZM7 1.75V-0.25C6.13805 -0.25 5.3114 0.0924097 4.7019 0.701903L6.11612 2.11612L7.53033 3.53033C7.38968 3.67098 7.19891 3.75 7 3.75V1.75ZM6.11612 2.11612L4.7019 0.701903C4.09241 1.3114 3.75 2.13805 3.75 3H5.75H7.75C7.75 3.19891 7.67098 3.38968 7.53033 3.53033L6.11612 2.11612ZM5.75 3H3.75V5H5.75H7.75V3H5.75ZM5.75 5L3.75 5C3.75 5.42679 3.83406 5.84941 3.99739 6.24372L5.84515 5.47835L7.69291 4.71299C7.7306 4.80398 7.75 4.90151 7.75 5L5.75 5ZM5.84515 5.47835L3.99739 6.24372C4.16072 6.63803 4.40011 6.99631 4.7019 7.2981L6.11612 5.88388L7.53033 4.46967C7.59997 4.53931 7.65522 4.62199 7.69291 4.71299L5.84515 5.47835ZM6.11612 5.88388L4.7019 7.2981C5.3114 7.90759 6.13805 8.25 7 8.25L7 6.25L7 4.25C7.19891 4.25 7.38968 4.32902 7.53033 4.46967L6.11612 5.88388ZM7 6.25V8.25H7.25V6.25V4.25H7V6.25ZM7.25 6.25H5.25V7.25H7.25H9.25V6.25H7.25ZM7.25 7.25V5.25H1.5V7.25V9.25H7.25V7.25ZM1.5 7.25L1.5 5.25C0.770655 5.25 0.0711818 5.53973 -0.444544 6.05546L0.96967 7.46967L2.38388 8.88388C2.14946 9.1183 1.83152 9.25 1.5 9.25L1.5 7.25ZM0.96967 7.46967L-0.444544 6.05546C-0.960269 6.57118 -1.25 7.27065 -1.25 8L0.75 8L2.75 8C2.75 8.33152 2.6183 8.64946 2.38388 8.88388L0.96967 7.46967ZM0.75 8H-1.25C-1.25 8.72935 -0.960268 9.42882 -0.444544 9.94454L0.96967 8.53033L2.38388 7.11612C2.6183 7.35054 2.75 7.66848 2.75 8L0.75 8ZM0.96967 8.53033L-0.444544 9.94454C0.0711795 10.4603 0.770652 10.75 1.5 10.75V8.75V6.75C1.83152 6.75 2.14946 6.8817 2.38388 7.11612L0.96967 8.53033ZM1.5 8.75V10.75H3.25V8.75V6.75H1.5V8.75ZM3.25 8.75H1.25V10.25H3.25H5.25V8.75H3.25ZM3.25 10.25V8.25H3V10.25V12.25H3.25V10.25ZM3 10.25V8.25C2.13805 8.25 1.3114 8.59241 0.701903 9.2019L2.11612 10.6161L3.53033 12.0303C3.38968 12.171 3.19891 12.25 3 12.25V10.25ZM2.11612 10.6161L0.701903 9.2019C0.0924097 9.8114 -0.25 10.638 -0.25 11.5L1.75 11.5L3.75 11.5C3.75 11.6989 3.67098 11.8897 3.53033 12.0303L2.11612 10.6161ZM1.75 11.5H-0.25V13.5H1.75H3.75V11.5H1.75ZM1.75 13.5L-0.25 13.5C-0.25 14.362 0.0924097 15.1886 0.701903 15.7981L2.11612 14.3839L3.53033 12.9697C3.67098 13.1103 3.75 13.3011 3.75 13.5L1.75 13.5ZM2.11612 14.3839L0.701903 15.7981C1.3114 16.4076 2.13805 16.75 3 16.75V14.75V12.75C3.19891 12.75 3.38968 12.829 3.53033 12.9697L2.11612 14.3839ZM3 14.75V16.75H5V14.75V12.75H3V14.75ZM5 14.75V16.75C5.86195 16.75 6.6886 16.4076 7.2981 15.7981L5.88388 14.3839L4.46967 12.9697C4.61032 12.829 4.80109 12.75 5 12.75V14.75ZM5.88388 14.3839L7.2981 15.7981C7.90759 15.1886 8.25 14.362 8.25 13.5H6.25H4.25C4.25 13.3011 4.32902 13.1103 4.46967 12.9697L5.88388 14.3839ZM6.25 13.5H8.25V11.5H6.25H4.25V13.5H6.25ZM6.25 11.5H8.25C8.25 10.638 7.90759 9.8114 7.2981 9.2019L5.88388 10.6161L4.46967 12.0303C4.32902 11.8897 4.25 11.6989 4.25 11.5H6.25ZM5.88388 10.6161L7.2981 9.2019C6.6886 8.59241 5.86195 8.25 5 8.25V10.25V12.25C4.80109 12.25 4.61032 12.171 4.46967 12.0303L5.88388 10.6161ZM5 10.25V8.25H4.75V10.25V12.25H5V10.25ZM4.75 10.25H6.75V8.75H4.75H2.75V10.25H4.75ZM4.75 8.75V10.75H11.25V8.75V6.75H4.75V8.75ZM11.25 8.75H9.25V10.25H11.25H13.25V8.75H11.25ZM11.25 10.25V8.25H11V10.25V12.25H11.25V10.25ZM11 10.25V8.25C10.138 8.25 9.3114 8.59241 8.7019 9.2019L10.1161 10.6161L11.5303 12.0303C11.3897 12.171 11.1989 12.25 11 12.25V10.25ZM10.1161 10.6161L8.7019 9.2019C8.09241 9.8114 7.75 10.638 7.75 11.5H9.75H11.75C11.75 11.6989 11.671 11.8897 11.5303 12.0303L10.1161 10.6161ZM9.75 11.5H7.75V13.5H9.75H11.75V11.5H9.75ZM9.75 13.5H7.75C7.75 14.362 8.09241 15.1886 8.7019 15.7981L10.1161 14.3839L11.5303 12.9697C11.671 13.1103 11.75 13.3011 11.75 13.5H9.75ZM10.1161 14.3839L8.7019 15.7981C9.3114 16.4076 10.138 16.75 11 16.75V14.75V12.75C11.1989 12.75 11.3897 12.829 11.5303 12.9697L10.1161 14.3839ZM11 14.75V16.75H13V14.75V12.75H11V14.75ZM13 14.75V16.75C13.862 16.75 14.6886 16.4076 15.2981 15.7981L13.8839 14.3839L12.4697 12.9697C12.6103 12.829 12.8011 12.75 13 12.75V14.75ZM13.8839 14.3839L15.2981 15.7981C15.9076 15.1886 16.25 14.362 16.25 13.5H14.25H12.25C12.25 13.3011 12.329 13.1103 12.4697 12.9697L13.8839 14.3839ZM14.25 13.5H16.25V11.5H14.25H12.25V13.5H14.25ZM14.25 11.5H16.25C16.25 10.638 15.9076 9.8114 15.2981 9.2019L13.8839 10.6161L12.4697 12.0303C12.329 11.8897 12.25 11.6989 12.25 11.5H14.25ZM13.8839 10.6161L15.2981 9.2019C14.6886 8.59241 13.862 8.25 13 8.25V10.25V12.25C12.8011 12.25 12.6103 12.171 12.4697 12.0303L13.8839 10.6161ZM13 10.25V8.25H12.75V10.25V12.25H13V10.25ZM12.75 10.25H14.75V8.75H12.75H10.75V10.25H12.75ZM12.75 8.75V10.75H14.5V8.75V6.75H12.75V8.75ZM14.5 8.75V10.75C15.2293 10.75 15.9288 10.4603 16.4445 9.94454L15.0303 8.53033L13.6161 7.11612C13.8505 6.8817 14.1685 6.75 14.5 6.75V8.75ZM15.0303 8.53033L16.4445 9.94454C16.9603 9.42882 17.25 8.72935 17.25 8H15.25H13.25C13.25 7.66848 13.3817 7.35053 13.6161 7.11612L15.0303 8.53033ZM15.25 8H17.25C17.25 7.27065 16.9603 6.57118 16.4445 6.05546L15.0303 7.46967L13.6161 8.88388C13.3817 8.64946 13.25 8.33152 13.25 8H15.25ZM15.0303 7.46967L16.4445 6.05546C15.9288 5.53973 15.2293 5.25 14.5 5.25L14.5 7.25L14.5 9.25C14.1685 9.25 13.8505 9.1183 13.6161 8.88388L15.0303 7.46967ZM7.25 3.25V5.25H8.75V3.25V1.25H7.25V3.25ZM8.75 3.25H6.75V4.75H8.75H10.75V3.25H8.75ZM8.75 4.75V2.75H7.25V4.75V6.75H8.75V4.75ZM7.25 4.75H9.25V3.25H7.25H5.25V4.75H7.25ZM4.75 13.25V11.25H3.25V13.25V15.25H4.75V13.25ZM3.25 13.25H5.25V11.75H3.25H1.25V13.25H3.25ZM3.25 11.75V13.75H4.75V11.75V9.75H3.25V11.75ZM4.75 11.75H2.75V13.25H4.75H6.75V11.75H4.75ZM12.75 13.25V11.25H11.25V13.25V15.25H12.75V13.25ZM11.25 13.25H13.25V11.75H11.25H9.25V13.25H11.25ZM11.25 11.75V13.75H12.75V11.75V9.75H11.25V11.75ZM12.75 11.75H10.75V13.25H12.75H14.75V11.75H12.75Z" fill="#525252" mask="url(#path-1-inside-1_71_16313)"/>
</svg>
