<svg width="32" height="32" viewBox="0 0 32 32" fill="none" xmlns="http://www.w3.org/2000/svg">
<path d="M32 16C32 24.8366 24.8366 32 16 32C7.16345 32 0 24.8366 0 16C0 7.16345 7.16345 0 16 0C24.8366 0 32 7.16345 32 16Z" fill="url(#paint0_linear_1302_32744)"/>
<path opacity="0.8" fill-rule="evenodd" clip-rule="evenodd" d="M11.7455 8C10.7815 8 10 8.78147 10 9.74545V22.9212C10 23.8852 10.7815 24.6667 11.7455 24.6667H19.5879C20.5519 24.6667 21.3334 23.8852 21.3334 22.9212V9.74545C21.3334 8.78147 20.5519 8 19.5879 8H11.7455ZM16.5883 12.4363C16.3373 11.9657 15.6628 11.9657 15.4118 12.4363L13.5007 16.0196C13.3961 16.2157 13.3961 16.451 13.5007 16.6471L15.4118 20.2304C15.6628 20.701 16.3373 20.701 16.5883 20.2304L18.4994 16.6471C18.6039 16.451 18.6039 16.2157 18.4994 16.0196L16.5883 12.4363Z" fill="white"/>
<path opacity="0.3" fill-rule="evenodd" clip-rule="evenodd" d="M18.4134 5.33301C17.4494 5.33301 16.668 6.11448 16.668 7.07847V12.5827L18.5008 16.0192C18.6054 16.2153 18.6054 16.4506 18.5008 16.6467L16.8275 19.7842C17.1038 20.3836 17.71 20.7997 18.4134 20.7997H25.2336C26.1976 20.7997 26.9791 20.0182 26.9791 19.0542V7.07847C26.9791 6.11448 26.1976 5.33301 25.2336 5.33301H18.4134Z" fill="white"/>
<path opacity="0.6" fill-rule="evenodd" clip-rule="evenodd" d="M6.41343 10.667C5.44944 10.667 4.66797 11.4485 4.66797 12.4124V24.3882C4.66797 25.3522 5.44944 26.1337 6.41343 26.1337H13.2336C14.1976 26.1337 14.9791 25.3522 14.9791 24.3882V19.4167L13.5021 16.6474C13.3975 16.4513 13.3975 16.216 13.5021 16.02L14.9791 13.2507V12.4124C14.9791 11.4485 14.1976 10.667 13.2336 10.667H6.41343Z" fill="white"/>
<defs>
<linearGradient id="paint0_linear_1302_32744" x1="2.0427e-07" y1="0.666667" x2="31.3334" y2="32" gradientUnits="userSpaceOnUse">
<stop stop-color="#0A8AC8"/>
<stop offset="1" stop-color="#95E7F9"/>
</linearGradient>
</defs>
</svg>
