<svg width="16" height="17" viewBox="0 0 16 17" fill="none" xmlns="http://www.w3.org/2000/svg">
<path fill-rule="evenodd" clip-rule="evenodd" d="M6.91036 1.29131C7.51251 0.902956 8.4885 0.90284 9.09053 1.29131L14.5484 4.81279C15.1505 5.20131 15.1505 5.83157 14.5484 6.22009L13.2261 7.07283L14.5484 7.92649C15.1503 8.31502 15.1504 8.94438 14.5484 9.33286L13.4266 10.0555L14.5484 10.7801C15.1503 11.1686 15.1504 11.798 14.5484 12.1865L9.09053 15.7089C8.48859 16.0971 7.51246 16.097 6.91036 15.7089L1.45154 12.1865C0.849838 11.798 0.849986 11.1686 1.45154 10.7801L2.5724 10.0555L1.45154 9.33286C0.849838 8.94442 0.849986 8.31498 1.45154 7.92649L2.77288 7.0719L1.45154 6.22009C0.849523 5.83156 0.84945 5.20129 1.45154 4.81279L6.91036 1.29131ZM9.09053 12.8553C8.48859 13.2435 7.51246 13.2434 6.91036 12.8553L3.77438 10.8312L2.76543 11.4833L8.00045 14.8608L13.2345 11.4833L12.2256 10.8312L9.09053 12.8553ZM2.76543 8.62967L8.00045 12.0072L13.2345 8.62967L12.0242 7.84846L9.09053 9.74158C8.48846 10.1301 7.5125 10.13 6.91036 9.74158L3.97487 7.84753L2.76543 8.62967ZM2.76543 5.51691L8.00045 8.89441L13.2345 5.51691L8.00045 2.1394L2.76543 5.51691Z" fill="#525252"/>
</svg>
