<svg width="32" height="32" viewBox="0 0 32 32" fill="none" xmlns="http://www.w3.org/2000/svg">
<g clip-path="url(#clip0_1302_32747)">
<path d="M31.8701 16C31.8701 24.8366 24.9238 32 16.355 32C7.78622 32 0.839844 24.8366 0.839844 16C0.839844 7.16344 7.78622 0 16.355 0C24.9238 0 31.8701 7.16344 31.8701 16Z" fill="url(#paint0_linear_1302_32747)"/>
<path opacity="0.3" d="M24.1127 12H8.5976C7.5265 12 6.6582 12.8954 6.6582 14V22C6.6582 23.1046 7.5265 24 8.5976 24H24.1127C25.1838 24 26.0521 23.1046 26.0521 22V14C26.0521 12.8954 25.1838 12 24.1127 12Z" fill="url(#paint1_linear_1302_32747)"/>
<path opacity="0.6" d="M24.1127 8H8.5976C7.5265 8 6.6582 8.89543 6.6582 10V18C6.6582 19.1046 7.5265 20 8.5976 20H24.1127C25.1838 20 26.0521 19.1046 26.0521 18V10C26.0521 8.89543 25.1838 8 24.1127 8Z" fill="url(#paint2_linear_1302_32747)"/>
<path d="M24.1127 8H8.5976C7.5265 8 6.6582 8.89543 6.6582 10V14C6.6582 15.1046 7.5265 16 8.5976 16H24.1127C25.1838 16 26.0521 15.1046 26.0521 14V10C26.0521 8.89543 25.1838 8 24.1127 8Z" fill="url(#paint3_linear_1302_32747)"/>
</g>
<defs>
<linearGradient id="paint0_linear_1302_32747" x1="0.839844" y1="0" x2="39.5082" y2="27.5748" gradientUnits="userSpaceOnUse">
<stop offset="0.24238" stop-color="#7694FF"/>
<stop offset="1" stop-color="#5214E8"/>
</linearGradient>
<linearGradient id="paint1_linear_1302_32747" x1="26.0521" y1="24" x2="7.87032" y2="24" gradientUnits="userSpaceOnUse">
<stop stop-color="white"/>
<stop offset="1" stop-color="white" stop-opacity="0"/>
</linearGradient>
<linearGradient id="paint2_linear_1302_32747" x1="26.0521" y1="20" x2="7.87032" y2="20" gradientUnits="userSpaceOnUse">
<stop stop-color="white"/>
<stop offset="1" stop-color="white" stop-opacity="0"/>
</linearGradient>
<linearGradient id="paint3_linear_1302_32747" x1="26.0521" y1="16" x2="7.87032" y2="16" gradientUnits="userSpaceOnUse">
<stop stop-color="white"/>
<stop offset="1" stop-color="white" stop-opacity="0"/>
</linearGradient>
<clipPath id="clip0_1302_32747">
<rect width="32" height="32" fill="white"/>
</clipPath>
</defs>
</svg>
