<svg width="16" height="16" viewBox="0 0 16 16" fill="none" xmlns="http://www.w3.org/2000/svg">
<mask id="path-1-inside-1_149_5548" fill="white">
<path d="M14.25 2.99986V5.99986C14.25 6.19877 14.171 6.38954 14.0303 6.53019C13.8897 6.67084 13.6989 6.74986 13.5 6.74986H10.5C10.3011 6.74986 10.1103 6.67084 9.96967 6.53019C9.82902 6.38954 9.75 6.19877 9.75 5.99986C9.75 5.80095 9.82902 5.61018 9.96967 5.46953C10.1103 5.32888 10.3011 5.24986 10.5 5.24986H11.6875L11.2 4.76236C10.3174 3.87537 9.11879 3.37499 7.8675 3.37111H7.84062C6.6005 3.3684 5.40917 3.85405 4.52437 4.72299C4.38215 4.86206 4.19051 4.93894 3.9916 4.93671C3.7927 4.93448 3.60282 4.85333 3.46375 4.71111C3.32468 4.56889 3.2478 4.37725 3.25002 4.17834C3.25225 3.97943 3.3334 3.78956 3.47563 3.65049C4.64076 2.5064 6.20957 1.86715 7.8425 1.87111H7.875C9.52234 1.8756 11.1005 2.53406 12.2625 3.70174L12.75 4.18736V2.99986C12.75 2.80095 12.829 2.61018 12.9697 2.46953C13.1103 2.32888 13.3011 2.24986 13.5 2.24986C13.6989 2.24986 13.8897 2.32888 14.0303 2.46953C14.171 2.61018 14.25 2.80095 14.25 2.99986ZM11.4756 11.2767C10.5904 12.1461 9.39827 12.6318 8.1575 12.6286H8.13062C6.87933 12.6247 5.68074 12.1243 4.79812 11.2374L4.3125 10.7499H5.5C5.69891 10.7499 5.88968 10.6708 6.03033 10.5302C6.17098 10.3895 6.25 10.1988 6.25 9.99986C6.25 9.80095 6.17098 9.61018 6.03033 9.46953C5.88968 9.32888 5.69891 9.24986 5.5 9.24986H2.5C2.30109 9.24986 2.11032 9.32888 1.96967 9.46953C1.82902 9.61018 1.75 9.80095 1.75 9.99986V12.9999C1.75 13.1988 1.82902 13.3895 1.96967 13.5302C2.11032 13.6708 2.30109 13.7499 2.5 13.7499C2.69891 13.7499 2.88968 13.6708 3.03033 13.5302C3.17098 13.3895 3.25 13.1988 3.25 12.9999V11.8124L3.7375 12.2999C4.89983 13.4668 6.47793 14.1246 8.125 14.1286H8.16C9.79293 14.1326 11.3617 13.4933 12.5269 12.3492C12.5973 12.2804 12.6535 12.1983 12.6922 12.1077C12.7309 12.0172 12.7514 11.9199 12.7525 11.8214C12.7536 11.7229 12.7353 11.6252 12.6986 11.5337C12.6619 11.4423 12.6076 11.359 12.5387 11.2886C12.4699 11.2182 12.3878 11.162 12.2973 11.1233C12.2067 11.0846 12.1094 11.0641 12.0109 11.063C11.9124 11.0619 11.8147 11.0802 11.7233 11.1169C11.6318 11.1536 11.5485 11.2079 11.4781 11.2767H11.4756Z"/>
</mask>
<path d="M13.5 6.74986L13.5 8.74986L13.5 6.74986ZM10.5 6.74986V8.74986V6.74986ZM10.5 5.24986L10.5 3.24986L10.5 5.24986ZM11.6875 5.24986V7.24986H16.5159L13.1017 3.83565L11.6875 5.24986ZM11.2 4.76236L9.78229 6.17308L9.78579 6.17658L11.2 4.76236ZM7.8675 3.37111L7.87369 1.37111H7.8675V3.37111ZM7.84062 3.37111L7.83625 5.37111H7.84062V3.37111ZM4.52437 4.72299L5.92267 6.15295L5.92575 6.14993L4.52437 4.72299ZM3.47563 3.65049L4.87392 5.08045L4.87689 5.07753L3.47563 3.65049ZM7.8425 1.87111L7.83765 3.87111H7.8425V1.87111ZM7.875 1.87111L7.88045 -0.128888H7.875V1.87111ZM12.2625 3.70174L10.8448 5.11253L10.851 5.11867L12.2625 3.70174ZM12.75 4.18736L11.3385 5.6043L14.75 9.00266V4.18736H12.75ZM13.5 2.24986L13.5 0.249862L13.5 2.24986ZM11.4756 11.2767V9.27674H10.6578L10.0743 9.8498L11.4756 11.2767ZM8.1575 12.6286L8.16267 10.6286H8.1575V12.6286ZM8.13062 12.6286L8.12443 14.6286H8.13062V12.6286ZM4.79812 11.2374L6.21583 9.82665L6.21506 9.82588L4.79812 11.2374ZM4.3125 10.7499V8.74986H-0.502798L2.89556 12.1613L4.3125 10.7499ZM6.25 9.99986L8.25 9.99986L6.25 9.99986ZM3.25 11.8124L4.66421 10.3981L1.25 6.98393V11.8124H3.25ZM3.7375 12.2999L5.15454 10.8885L5.15171 10.8856L3.7375 12.2999ZM8.125 14.1286L8.12015 16.1286H8.125V14.1286ZM8.16 14.1286L8.16485 12.1286H8.16V14.1286ZM12.5269 12.3492L11.1286 10.9193L11.1256 10.9222L12.5269 12.3492ZM11.4781 11.2767V13.2767H12.2935L12.8764 12.7067L11.4781 11.2767ZM14.25 2.99986H12.25V5.99986H14.25H16.25V2.99986H14.25ZM14.25 5.99986H12.25C12.25 5.66834 12.3817 5.3504 12.6161 5.11598L14.0303 6.53019L15.4445 7.94441C15.9603 7.42868 16.25 6.72921 16.25 5.99986H14.25ZM14.0303 6.53019L12.6161 5.11598C12.8505 4.88156 13.1685 4.74986 13.5 4.74986L13.5 6.74986L13.5 8.74986C14.2293 8.74986 14.9288 8.46013 15.4445 7.94441L14.0303 6.53019ZM13.5 6.74986V4.74986H10.5V6.74986V8.74986H13.5V6.74986ZM10.5 6.74986L10.5 4.74986C10.8315 4.74986 11.1495 4.88156 11.3839 5.11598L9.96967 6.53019L8.55546 7.94441C9.07118 8.46013 9.77065 8.74986 10.5 8.74986L10.5 6.74986ZM9.96967 6.53019L11.3839 5.11598C11.6183 5.3504 11.75 5.66834 11.75 5.99986H9.75H7.75C7.75 6.72921 8.03973 7.42868 8.55546 7.94441L9.96967 6.53019ZM9.75 5.99986H11.75C11.75 6.33138 11.6183 6.64933 11.3839 6.88375L9.96967 5.46953L8.55546 4.05532C8.03973 4.57104 7.75 5.27051 7.75 5.99986H9.75ZM9.96967 5.46953L11.3839 6.88375C11.1495 7.11817 10.8315 7.24986 10.5 7.24986L10.5 5.24986L10.5 3.24986C9.77065 3.24986 9.07118 3.53959 8.55546 4.05532L9.96967 5.46953ZM10.5 5.24986V7.24986H11.6875V5.24986V3.24986H10.5V5.24986ZM11.6875 5.24986L13.1017 3.83565L12.6142 3.34815L11.2 4.76236L9.78579 6.17658L10.2733 6.66408L11.6875 5.24986ZM11.2 4.76236L12.6177 3.35165C11.3613 2.08897 9.65498 1.37664 7.87369 1.37112L7.8675 3.37111L7.86131 5.3711C8.5826 5.37334 9.27352 5.66178 9.78229 6.17307L11.2 4.76236ZM7.8675 3.37111V1.37111H7.84062V3.37111V5.37111H7.8675V3.37111ZM7.84062 3.37111L7.845 1.37112C6.07919 1.36725 4.38286 2.05877 3.123 3.29605L4.52437 4.72299L5.92575 6.14993C6.43548 5.64933 7.12181 5.36954 7.83625 5.37111L7.84062 3.37111ZM4.52437 4.72299L3.12608 3.29303C3.36311 3.06125 3.6825 2.93313 4.01399 2.93684L3.9916 4.93671L3.96921 6.93659C4.69852 6.94475 5.4012 6.66287 5.92267 6.15294L4.52437 4.72299ZM3.9916 4.93671L4.01399 2.93684C4.34549 2.94055 4.66193 3.07579 4.89371 3.31282L3.46375 4.71111L2.03379 6.1094C2.54371 6.63087 3.23991 6.92842 3.96921 6.93659L3.9916 4.93671ZM3.46375 4.71111L4.89371 3.31282C5.12548 3.54985 5.25361 3.86924 5.2499 4.20073L3.25002 4.17834L1.25015 4.15595C1.24198 4.88526 1.52387 5.58793 2.03379 6.1094L3.46375 4.71111ZM3.25002 4.17834L5.2499 4.20073C5.24619 4.53223 5.11094 4.84867 4.87392 5.08044L3.47563 3.65049L2.07733 2.22053C1.55586 2.73045 1.25832 3.42664 1.25015 4.15595L3.25002 4.17834ZM3.47563 3.65049L4.87689 5.07753C5.66686 4.30183 6.73052 3.86842 7.83765 3.87111L7.8425 1.87111L7.84735 -0.128882C5.68862 -0.134117 3.61466 0.710961 2.07436 2.22345L3.47563 3.65049ZM7.8425 1.87111V3.87111H7.875V1.87111V-0.128888H7.8425V1.87111ZM7.875 1.87111L7.86955 3.8711C8.98666 3.87415 10.0569 4.32067 10.8449 5.11251L12.2625 3.70174L13.6801 2.29096C12.1441 0.74745 10.058 -0.122943 7.88045 -0.128881L7.875 1.87111ZM12.2625 3.70174L10.851 5.11867L11.3385 5.6043L12.75 4.18736L14.1615 2.77043L13.674 2.2848L12.2625 3.70174ZM12.75 4.18736H14.75V2.99986H12.75H10.75V4.18736H12.75ZM12.75 2.99986H14.75C14.75 3.33139 14.6183 3.64933 14.3839 3.88375L12.9697 2.46953L11.5555 1.05532C11.0397 1.57104 10.75 2.27051 10.75 2.99986H12.75ZM12.9697 2.46953L14.3839 3.88375C14.1495 4.11817 13.8315 4.24986 13.5 4.24986L13.5 2.24986L13.5 0.249862C12.7707 0.249862 12.0712 0.539593 11.5555 1.05532L12.9697 2.46953ZM13.5 2.24986V4.24986C13.1685 4.24986 12.8505 4.11817 12.6161 3.88375L14.0303 2.46953L15.4445 1.05532C14.9288 0.539593 14.2293 0.249862 13.5 0.249862V2.24986ZM14.0303 2.46953L12.6161 3.88375C12.3817 3.64933 12.25 3.33139 12.25 2.99986H14.25H16.25C16.25 2.27051 15.9603 1.57104 15.4445 1.05532L14.0303 2.46953ZM11.4756 11.2767L10.0743 9.8498C9.56425 10.3507 8.87748 10.6305 8.16267 10.6286L8.1575 12.6286L8.15233 14.6286C9.91906 14.6332 11.6165 13.9416 12.877 12.7037L11.4756 11.2767ZM8.1575 12.6286V10.6286H8.13062V12.6286V14.6286H8.1575V12.6286ZM8.13062 12.6286L8.13682 10.6286C7.41552 10.6264 6.7246 10.3379 6.21583 9.82665L4.79812 11.2374L3.38042 12.6481C4.63687 13.9108 6.34314 14.6231 8.12443 14.6286L8.13062 12.6286ZM4.79812 11.2374L6.21506 9.82588L5.72944 9.33838L4.3125 10.7499L2.89556 12.1613L3.38119 12.6488L4.79812 11.2374ZM4.3125 10.7499V12.7499H5.5V10.7499V8.74986H4.3125V10.7499ZM5.5 10.7499V12.7499C6.22935 12.7499 6.92882 12.4601 7.44454 11.9444L6.03033 10.5302L4.61612 9.11598C4.85054 8.88156 5.16848 8.74986 5.5 8.74986V10.7499ZM6.03033 10.5302L7.44454 11.9444C7.96027 11.4287 8.25 10.7292 8.25 9.99986L6.25 9.99986L4.25 9.99986C4.25 9.66834 4.3817 9.3504 4.61612 9.11598L6.03033 10.5302ZM6.25 9.99986L8.25 9.99986C8.25 9.27051 7.96027 8.57104 7.44454 8.05532L6.03033 9.46953L4.61612 10.8837C4.3817 10.6493 4.25 10.3314 4.25 9.99986L6.25 9.99986ZM6.03033 9.46953L7.44454 8.05532C6.92882 7.5396 6.22935 7.24986 5.5 7.24986V9.24986V11.2499C5.16848 11.2499 4.85054 11.1182 4.61612 10.8837L6.03033 9.46953ZM5.5 9.24986V7.24986H2.5V9.24986V11.2499H5.5V9.24986ZM2.5 9.24986V7.24986C1.77065 7.24986 1.07118 7.5396 0.555456 8.05532L1.96967 9.46953L3.38388 10.8837C3.14946 11.1182 2.83152 11.2499 2.5 11.2499V9.24986ZM1.96967 9.46953L0.555456 8.05532C0.0397332 8.57104 -0.25 9.27051 -0.25 9.99986H1.75H3.75C3.75 10.3314 3.6183 10.6493 3.38388 10.8837L1.96967 9.46953ZM1.75 9.99986H-0.25V12.9999H1.75H3.75V9.99986H1.75ZM1.75 12.9999H-0.25C-0.25 13.7292 0.0397322 14.4287 0.555456 14.9444L1.96967 13.5302L3.38388 12.116C3.6183 12.3504 3.75 12.6683 3.75 12.9999H1.75ZM1.96967 13.5302L0.555456 14.9444C1.07118 15.4601 1.77065 15.7499 2.5 15.7499V13.7499V11.7499C2.83152 11.7499 3.14946 11.8816 3.38388 12.116L1.96967 13.5302ZM2.5 13.7499V15.7499C3.22935 15.7499 3.92882 15.4601 4.44454 14.9444L3.03033 13.5302L1.61612 12.116C1.85054 11.8816 2.16848 11.7499 2.5 11.7499V13.7499ZM3.03033 13.5302L4.44454 14.9444C4.96027 14.4287 5.25 13.7292 5.25 12.9999H3.25H1.25C1.25 12.6683 1.3817 12.3504 1.61612 12.116L3.03033 13.5302ZM3.25 12.9999H5.25V11.8124H3.25H1.25V12.9999H3.25ZM3.25 11.8124L1.83579 13.2266L2.32329 13.7141L3.7375 12.2999L5.15171 10.8856L4.66421 10.3981L3.25 11.8124ZM3.7375 12.2999L2.32046 13.7112C3.8569 15.2538 5.94294 16.1233 8.12015 16.1286L8.125 14.1286L8.12985 12.1286C7.01292 12.1259 5.94275 11.6799 5.15454 10.8885L3.7375 12.2999ZM8.125 14.1286V16.1286H8.16V14.1286V12.1286H8.125V14.1286ZM8.16 14.1286L8.15515 16.1286C10.3139 16.1338 12.3878 15.2888 13.9281 13.7763L12.5269 12.3492L11.1256 10.9222C10.3356 11.6979 9.27198 12.1313 8.16485 12.1286L8.16 14.1286ZM12.5269 12.3492L13.9252 13.7792C14.1834 13.5267 14.3893 13.2258 14.5312 12.8938L12.6922 12.1077L10.8531 11.3217C10.9176 11.1708 11.0112 11.034 11.1286 10.9193L12.5269 12.3492ZM12.6922 12.1077L14.5312 12.8938C14.6732 12.5617 14.7483 12.2049 14.7523 11.8438L12.7525 11.8214L10.7526 11.799C10.7544 11.6349 10.7886 11.4727 10.8531 11.3217L12.6922 12.1077ZM12.7525 11.8214L14.7523 11.8438C14.7564 11.4827 14.6893 11.1243 14.5548 10.7891L12.6986 11.5337L10.8424 12.2784C10.7813 12.126 10.7508 11.9631 10.7526 11.799L12.7525 11.8214ZM12.6986 11.5337L14.5548 10.7891C14.4204 10.4539 14.2212 10.1485 13.9687 9.89032L12.5387 11.2886L11.1088 12.6869C10.994 12.5695 10.9035 12.4307 10.8424 12.2784L12.6986 11.5337ZM12.5387 11.2886L13.9687 9.89032C13.7162 9.63212 13.4154 9.42617 13.0833 9.28424L12.2973 11.1233L11.5113 12.9624C11.3603 12.8979 11.2236 12.8043 11.1088 12.6869L12.5387 11.2886ZM12.2973 11.1233L13.0833 9.28424C12.7512 9.14231 12.3944 9.06718 12.0333 9.06314L12.0109 11.063L11.9885 13.0629C11.8244 13.061 11.6622 13.0269 11.5113 12.9624L12.2973 11.1233ZM12.0109 11.063L12.0333 9.06314C11.6722 9.05909 11.3138 9.12622 10.9786 9.26067L11.7233 11.1169L12.4679 12.9731C12.3155 13.0342 12.1527 13.0647 11.9885 13.0629L12.0109 11.063ZM11.7233 11.1169L10.9786 9.26067C10.6435 9.39513 10.338 9.59428 10.0798 9.84678L11.4781 11.2767L12.8764 12.7067C12.759 12.8215 12.6202 12.912 12.4679 12.9731L11.7233 11.1169ZM11.4781 11.2767V9.27674H11.4756V11.2767V13.2767H11.4781V11.2767Z" fill="white" mask="url(#path-1-inside-1_149_5548)"/>
</svg>
