<svg width="16" height="17" viewBox="0 0 16 17" fill="none" xmlns="http://www.w3.org/2000/svg">
<g clip-path="url(#clip0_71_16316)">
<path fill-rule="evenodd" clip-rule="evenodd" d="M7.31243 1.78803C7.94663 1.37675 8.88147 1.40582 9.47259 1.87592L15.1894 6.42181C15.7804 6.89196 15.8169 7.63619 15.2997 8.14056L15.1894 8.23822L14.2714 8.96674L15.1894 9.6972C15.7801 10.1673 15.8167 10.9107 15.2997 11.415L15.1894 11.5136L9.47259 16.0595C8.84207 16.5609 7.81994 16.5608 7.18939 16.0595L1.47259 11.5136L1.36224 11.415C0.845223 10.9107 0.881744 10.1673 1.47259 9.6972L2.38958 8.96674L1.47259 8.23822L1.36224 8.14056C0.845089 7.63617 0.881492 6.89195 1.47259 6.42181L7.18939 1.87592L7.31243 1.78803ZM9.47259 12.7841C8.84201 13.2856 7.81997 13.2856 7.18939 12.7841L3.56341 9.90033L2.67865 10.6054L8.33099 15.1005L13.9833 10.6054L13.0976 9.90033L9.47259 12.7841ZM4.73724 8.96771L8.33099 11.8251L11.9238 8.96771L8.33099 6.11029L4.73724 8.96771ZM2.67865 7.33002L3.56341 8.03314L7.18939 5.15033L7.31243 5.06244C7.94654 4.65137 8.88153 4.68047 9.47259 5.15033L13.0976 8.03314L13.9833 7.33002L8.33099 2.8349L2.67865 7.33002Z" fill="#525252"/>
</g>
<defs>
<clipPath id="clip0_71_16316">
<rect width="16" height="16" fill="white" transform="translate(0 0.5)"/>
</clipPath>
</defs>
</svg>
