<svg width="16" height="17" viewBox="0 0 16 17" fill="none" xmlns="http://www.w3.org/2000/svg">
<path d="M8.08103 1.5C8.65147 1.50004 9.18609 1.7781 9.51364 2.24512L10.2529 3.2998C10.2722 3.32734 10.2959 3.3521 10.3222 3.37402C10.3486 3.39603 10.3778 3.41476 10.4092 3.42969L10.5097 3.46191L10.6181 3.46777L11.9258 3.37207C12.4924 3.33056 13.0443 3.56709 13.4052 4.00586L13.9228 4.63574C14.2975 5.09142 14.4178 5.70541 14.2422 6.26855L13.8642 7.47461L13.8652 7.47559C13.8479 7.53171 13.8472 7.58944 13.8613 7.64648L13.8974 7.73633L13.9619 7.82422L13.9677 7.83008L14.8457 8.78027C15.2373 9.20434 15.395 9.79466 15.2666 10.3574L15.0869 11.1406C14.9579 11.7047 14.5583 12.1687 14.0195 12.3799L12.8086 12.8535C12.7404 12.8804 12.6851 12.9237 12.6445 12.9736C12.6037 13.0244 12.5759 13.0853 12.5654 13.1514L12.3847 14.3545C12.2985 14.9291 11.9325 15.4234 11.4082 15.6738L10.6416 16.041C10.1365 16.2822 9.54592 16.2674 9.05368 16.001L7.86716 15.3584L7.8613 15.3545C7.82973 15.337 7.79608 15.3237 7.76169 15.3145C7.72451 15.3045 7.68659 15.2999 7.64939 15.2998C7.57798 15.3002 7.50783 15.318 7.44626 15.3525L7.44528 15.3535L6.31833 15.9834C5.82823 16.2576 5.2359 16.2804 4.72653 16.0439L3.95603 15.6865C3.42984 15.4422 3.05901 14.9525 2.96579 14.3799L2.76267 13.1328L2.73435 13.0381C2.72075 13.0082 2.70258 12.9798 2.68161 12.9541C2.64003 12.905 2.58314 12.8626 2.51462 12.8359L1.33298 12.4033C0.783738 12.202 0.370681 11.7395 0.23337 11.1709L0.0488 10.4062C-0.0888918 9.83566 0.0690579 9.23359 0.468722 8.80371L1.33786 7.86914L1.39255 7.79102C1.40732 7.76249 1.41808 7.73085 1.42575 7.69727C1.44123 7.62421 1.43823 7.55302 1.41892 7.49121L1.41794 7.49023L1.04001 6.3252C0.855843 5.75796 0.9733 5.13589 1.35153 4.6748L1.88767 4.02051C2.2445 3.58562 2.78912 3.34955 3.35056 3.38477L4.67966 3.46777H4.68552C4.728 3.47077 4.76707 3.46934 4.80271 3.46387C4.91324 3.44682 4.99376 3.39232 5.04392 3.32129L5.78903 2.25C6.11622 1.78015 6.65298 1.5 7.22556 1.5H8.08103ZM7.22556 3C7.14373 3 7.06624 3.04026 7.0195 3.10742L6.27243 4.18164L6.27048 4.18457C6.12908 4.38622 5.95538 4.54742 5.76267 4.6709C5.47956 4.8527 5.15344 4.95236 4.81931 4.96777C4.73971 4.97152 4.65976 4.97047 4.58005 4.96484L3.25681 4.88184C3.1766 4.8768 3.0988 4.91052 3.04782 4.97266L2.51169 5.62598C2.45764 5.69185 2.44045 5.78126 2.46677 5.8623L2.84763 7.03516L2.85056 7.04199C2.95114 7.36299 2.96182 7.70225 2.89157 8.02246L2.8906 8.02441L2.86032 8.1416C2.78173 8.41232 2.64061 8.67102 2.43552 8.88965L2.4365 8.89062L1.56735 9.8252C1.51032 9.88657 1.48818 9.97226 1.50778 10.0537L1.69235 10.8184C1.71195 10.8996 1.7702 10.9663 1.8486 10.9951L3.04294 11.4326L3.05564 11.4365C3.34399 11.5482 3.59748 11.7269 3.79782 11.9531C3.81259 11.9699 3.8274 11.9862 3.83884 12C3.83971 12.0011 3.8409 12.0019 3.84177 12.0029C3.99684 12.1911 4.11548 12.4098 4.18747 12.6484L4.21872 12.7656C4.22815 12.8059 4.23634 12.8466 4.24314 12.8877H4.24118L4.24216 12.8896L4.44626 14.1387C4.45957 14.2204 4.51277 14.2903 4.58786 14.3252L5.35837 14.6836C5.43113 14.7174 5.51591 14.714 5.58591 14.6748L6.71286 14.0439C6.71374 14.0434 6.71491 14.0435 6.71579 14.043C6.76167 14.0173 6.80809 13.9932 6.85544 13.9717C6.87484 13.9628 6.89443 13.9545 6.91403 13.9463C6.96101 13.9268 7.00858 13.9092 7.05661 13.8936C7.06151 13.892 7.06636 13.8902 7.07126 13.8887L7.21482 13.8486C7.23231 13.8446 7.24999 13.8414 7.26755 13.8379C7.28408 13.8345 7.30076 13.832 7.31735 13.8291C7.33852 13.8254 7.3596 13.8213 7.38083 13.8184C7.40776 13.8145 7.43486 13.8122 7.46189 13.8096C7.48241 13.8076 7.50286 13.805 7.52341 13.8037C7.52503 13.8036 7.52667 13.8038 7.52829 13.8037L7.64939 13.7998H7.66208C7.97804 13.8015 8.29483 13.8808 8.58103 14.0391L9.76853 14.6816C9.83876 14.7195 9.92307 14.7219 9.99509 14.6875L10.7617 14.3203C10.8366 14.2845 10.889 14.2139 10.9013 14.1318L11.083 12.9238C11.1337 12.5889 11.2741 12.281 11.4795 12.0283C11.6818 11.778 11.9494 11.5793 12.2617 11.458L13.4726 10.9834C13.5496 10.9532 13.6066 10.8863 13.625 10.8057L13.8037 10.0234C13.822 9.94307 13.8 9.85841 13.7441 9.79785L12.8662 8.84863C12.8204 8.79972 12.7776 8.74738 12.7373 8.69434C12.7317 8.68698 12.7252 8.68029 12.7197 8.67285C12.679 8.61768 12.6419 8.55999 12.6074 8.50098C12.605 8.49693 12.6019 8.49332 12.5996 8.48926C12.5758 8.44805 12.5537 8.40604 12.5332 8.36328C12.5255 8.34725 12.5189 8.3307 12.5117 8.31445C12.47 8.2207 12.4359 8.12385 12.4101 8.02441C12.409 8.02017 12.4073 8.01597 12.4062 8.01172L12.4052 8.00977C12.3269 7.6953 12.3315 7.35909 12.4316 7.03418L12.4326 7.03125L12.8105 5.82129C12.8353 5.74109 12.8179 5.65379 12.7646 5.58887L12.247 4.95898C12.1955 4.89626 12.1161 4.86223 12.0351 4.86816L10.7256 4.96484L10.7246 4.96387H10.7226C10.6854 4.96648 10.6483 4.9683 10.6113 4.96875C10.6074 4.9688 10.6035 4.96872 10.5996 4.96875C10.5976 4.96876 10.5957 4.96874 10.5937 4.96875C10.3055 4.97013 10.0254 4.907 9.77243 4.78809C9.74924 4.77721 9.72684 4.76474 9.70407 4.75293C9.65701 4.72845 9.61033 4.70316 9.5654 4.6748C9.4944 4.63011 9.42624 4.58048 9.3613 4.52637C9.32966 4.49998 9.2985 4.47283 9.26853 4.44434C9.23376 4.41128 9.20128 4.37574 9.16892 4.33984C9.11843 4.28397 9.07035 4.22538 9.02634 4.16309L9.02439 4.16016L8.2861 3.10645C8.23933 3.03973 8.1625 3.00004 8.08103 3H7.22556ZM9.15915 8.92383C9.15915 8.1105 8.48083 7.42309 7.60837 7.42285C6.73569 7.42285 6.05661 8.11036 6.05661 8.92383C6.05666 9.73726 6.73572 10.4248 7.60837 10.4248C8.4808 10.4246 9.1591 9.73712 9.15915 8.92383ZM10.6592 8.92383C10.6591 10.5968 9.27765 11.9246 7.60837 11.9248C5.93889 11.9248 4.55666 10.5969 4.55661 8.92383C4.55661 7.25069 5.93886 5.92285 7.60837 5.92285C9.27768 5.92309 10.6592 7.25084 10.6592 8.92383Z" fill="#525252"/>
</svg>
