<svg width="16" height="17" viewBox="0 0 16 17" fill="none" xmlns="http://www.w3.org/2000/svg">
<path d="M13 5.83509C12.9999 5.6971 12.888 5.58509 12.75 5.58509H3.75C3.61199 5.58509 3.5001 5.6971 3.5 5.83509V13.0304C3.5 13.1685 3.61193 13.2804 3.75 13.2804H12.75C12.8881 13.2804 13 13.1685 13 13.0304V5.83509ZM7.71875 4.08509H10.3242V3.11145L7.71875 4.08509ZM14.5 13.0304C14.5 13.9969 13.7165 14.7804 12.75 14.7804H3.75C2.7835 14.7804 2 13.9969 2 13.0304V5.83509C2.00009 5.02093 2.55652 4.3381 3.30957 4.1427L3.30566 4.13294L10.1367 1.5802C10.9537 1.27493 11.8242 1.87897 11.8242 2.7511V4.08509H12.75C13.7164 4.08509 14.4999 4.86868 14.5 5.83509V13.0304Z" fill="#525252"/>
<path d="M11.75 9.3304C11.75 9.88268 11.3023 10.3304 10.75 10.3304C10.1977 10.3304 9.75 9.88268 9.75 9.3304C9.75 8.77811 10.1977 8.3304 10.75 8.3304C11.3023 8.3304 11.75 8.77811 11.75 9.3304Z" fill="#525252"/>
</svg>
