<svg width="32" height="32" viewBox="0 0 32 32" fill="none" xmlns="http://www.w3.org/2000/svg">
<path d="M16 32C24.8366 32 32 24.8366 32 16C32 7.16344 24.8366 0 16 0C7.16344 0 0 7.16344 0 16C0 24.8366 7.16344 32 16 32Z" fill="url(#paint0_linear_1302_32737)"/>
<path opacity="0.8" fill-rule="evenodd" clip-rule="evenodd" d="M15.9992 28.7181C23.0231 28.7181 28.7171 23.0241 28.7171 16.0002C28.7171 8.97627 23.0231 3.28223 15.9992 3.28223C8.97527 3.28223 3.28125 8.97627 3.28125 16.0002C3.28125 23.0241 8.97527 28.7181 15.9992 28.7181ZM15.9992 27.0772C22.1168 27.0772 27.0761 22.1179 27.0761 16.0002C27.0761 9.88259 22.1168 4.92331 15.9992 4.92331C9.88159 4.92331 4.92226 9.88259 4.92226 16.0002C4.92226 22.1179 9.88159 27.0772 15.9992 27.0772Z" fill="white"/>
<path opacity="0.4" d="M16.0008 27.0768C22.1184 27.0768 27.0777 22.1174 27.0777 15.9998C27.0777 9.88218 22.1184 4.92285 16.0008 4.92285C9.88315 4.92285 4.92383 9.88218 4.92383 15.9998C4.92383 22.1174 9.88315 27.0768 16.0008 27.0768Z" fill="white"/>
<path opacity="0.4" d="M21.3329 10.6665H10.6662C10.2131 10.6665 9.8457 11.0339 9.8457 11.487C9.8457 11.9402 10.2131 12.3075 10.6662 12.3075H21.3329C21.786 12.3075 22.1534 11.9402 22.1534 11.487C22.1534 11.0339 21.786 10.6665 21.3329 10.6665Z" fill="white"/>
<path opacity="0.4" d="M21.3329 14.7695H10.6662C10.2131 14.7695 9.8457 15.1369 9.8457 15.59C9.8457 16.0432 10.2131 16.4106 10.6662 16.4106H21.3329C21.786 16.4106 22.1534 16.0432 22.1534 15.59C22.1534 15.1369 21.786 14.7695 21.3329 14.7695Z" fill="white"/>
<path opacity="0.4" d="M21.3329 18.8716H10.6662C10.2131 18.8716 9.8457 19.2389 9.8457 19.6921C9.8457 20.1453 10.2131 20.5126 10.6662 20.5126H21.3329C21.786 20.5126 22.1534 20.1453 22.1534 19.6921C22.1534 19.2389 21.786 18.8716 21.3329 18.8716Z" fill="white"/>
<defs>
<linearGradient id="paint0_linear_1302_32737" x1="-3.80645" y1="-6.49505" x2="57.3315" y2="36.3622" gradientUnits="userSpaceOnUse">
<stop offset="0.11138" stop-color="#FF9029"/>
<stop offset="0.857227" stop-color="#FBF67D"/>
</linearGradient>
</defs>
</svg>
