<svg width="32" height="33" viewBox="0 0 32 33" fill="none" xmlns="http://www.w3.org/2000/svg">
<path d="M16 32.1694C24.8366 32.1694 32 25.006 32 16.1694C32 7.33288 24.8366 0.169434 16 0.169434C7.16344 0.169434 0 7.33288 0 16.1694C0 25.006 7.16344 32.1694 16 32.1694Z" fill="url(#paint0_linear_1302_32748)"/>
<path opacity="0.8" fill-rule="evenodd" clip-rule="evenodd" d="M16.0011 28.8875C23.0251 28.8875 28.7191 23.1935 28.7191 16.1696C28.7191 9.14571 23.0251 3.45166 16.0011 3.45166C8.97723 3.45166 3.2832 9.14571 3.2832 16.1696C3.2832 23.1935 8.97723 28.8875 16.0011 28.8875ZM16.0011 27.2466C22.1187 27.2466 27.078 22.2873 27.078 16.1696C27.078 10.052 22.1187 5.09274 16.0011 5.09274C9.88355 5.09274 4.92421 10.052 4.92421 16.1696C4.92421 22.2873 9.88355 27.2466 16.0011 27.2466Z" fill="white"/>
<path opacity="0.4" d="M16.0008 27.2467C22.1184 27.2467 27.0777 22.2874 27.0777 16.1697C27.0777 10.0521 22.1184 5.09277 16.0008 5.09277C9.88315 5.09277 4.92383 10.0521 4.92383 16.1697C4.92383 22.2874 9.88315 27.2467 16.0008 27.2467Z" fill="white" fill-opacity="0.5"/>
<path fill-rule="evenodd" clip-rule="evenodd" d="M17.6797 12.6495C17.6797 12.1193 18.1095 11.6895 18.6397 11.6895H23.0397C23.5699 11.6895 23.9997 12.1193 23.9997 12.6495V17.0495C23.9997 17.5796 23.5699 18.0095 23.0397 18.0095C22.5095 18.0095 22.0797 17.5796 22.0797 17.0495V13.6095H18.6397C18.1095 13.6095 17.6797 13.1796 17.6797 12.6495Z" fill="white"/>
<path opacity="0.6" fill-rule="evenodd" clip-rule="evenodd" d="M23.7188 11.9706C24.0937 12.3455 24.0937 12.9534 23.7188 13.3283L19.3188 17.7283C19.3068 17.7403 19.2949 17.7522 19.2829 17.7642C18.9254 18.1218 18.5993 18.4479 18.3001 18.6833C17.9738 18.94 17.5833 19.1687 17.0854 19.2138L17.0838 19.2139C16.948 19.226 16.812 19.226 16.6762 19.2139L16.6729 19.2136C16.1762 19.1677 15.7865 18.9398 15.4601 18.6831C15.1599 18.4471 14.8328 18.12 14.4737 17.7608C14.4629 17.75 14.452 17.7391 14.4412 17.7283C14.0358 17.3229 13.7911 17.0805 13.593 16.9246C13.5017 16.8529 13.4464 16.821 13.4165 16.8068C13.4028 16.8003 13.3956 16.7982 13.3938 16.7977C13.3929 16.7974 13.3926 16.7973 13.3924 16.7973V16.7973C13.3923 16.7973 13.3923 16.7973 13.3922 16.7973C13.3712 16.7954 13.3501 16.7954 13.3291 16.7972C13.3288 16.7972 13.3282 16.7973 13.3271 16.7977C13.325 16.7982 13.3176 16.8005 13.3037 16.8071C13.2735 16.8214 13.2181 16.8534 13.1268 16.9251C12.9287 17.0808 12.6839 17.3232 12.2788 17.7283L9.63882 20.3683C9.26392 20.7432 8.65608 20.7432 8.28118 20.3683C7.90627 19.9934 7.90627 19.3855 8.28118 19.0106L10.9212 16.3706C10.932 16.3598 10.9429 16.3489 10.9537 16.3381C11.3128 15.9789 11.6399 15.6518 11.9401 15.4158C12.2665 15.1591 12.6562 14.9312 13.1529 14.8853L13.1548 14.8851C13.2913 14.8728 13.4287 14.8728 13.5652 14.8851L13.5654 14.8851C14.0633 14.9302 14.4538 15.1589 14.7801 15.4156C15.0793 15.651 15.4054 15.9771 15.7629 16.3347C15.7749 16.3467 15.7868 16.3586 15.7988 16.3706C16.2039 16.7757 16.4487 17.0181 16.6468 17.1738C16.7381 17.2455 16.7935 17.2775 16.8237 17.2918C16.8376 17.2984 16.845 17.3007 16.8471 17.3012C16.8481 17.3015 16.8486 17.3016 16.8489 17.3017C16.8702 17.3034 16.8912 17.3034 16.9125 17.3016C16.9127 17.3015 16.9131 17.3015 16.9138 17.3012C16.9156 17.3007 16.9228 17.2986 16.9365 17.2921C16.9664 17.2779 17.0217 17.2461 17.113 17.1743C17.3111 17.0184 17.5558 16.776 17.9612 16.3706L22.3612 11.9706C22.7361 11.5957 23.3439 11.5957 23.7188 11.9706Z" fill="white"/>
<defs>
<linearGradient id="paint0_linear_1302_32748" x1="-3.80645" y1="-6.32561" x2="57.3315" y2="36.5316" gradientUnits="userSpaceOnUse">
<stop offset="0.11138" stop-color="#FF9029"/>
<stop offset="0.857227" stop-color="#FBF67D"/>
</linearGradient>
</defs>
</svg>
