<svg width="16" height="17" viewBox="0 0 16 17" fill="none" xmlns="http://www.w3.org/2000/svg">
<path d="M5.06783 7.66319L6.57941 7.13328L7.10717 5.61555L4.64945 3.14784C4.03601 2.5319 4.4848 1.47959 5.35209 1.5003L6.55153 1.52895C9.35681 1.59558 11.6287 3.828 11.7687 6.62604L11.7753 6.89933C11.7753 7.52867 11.664 8.13203 11.4653 8.69301L13.8286 11.0659C14.668 11.9096 14.7205 13.2441 13.9853 14.1494L13.828 14.3247C12.9326 15.2236 11.4792 15.2261 10.5817 14.326L8.2231 11.9578C7.66059 12.1602 7.05493 12.273 6.42341 12.273C3.5845 12.2727 1.26417 10.054 1.08408 7.24926L1.00218 5.97135C0.945253 5.083 2.01442 4.59736 2.64133 5.22682L5.06783 7.66319ZM8.76812 5.23562L7.71193 8.27042L4.68944 9.33089L2.5233 7.15595C2.65476 9.20433 4.35017 10.8251 6.42341 10.8253C7.19604 10.8252 7.9153 10.5986 8.52183 10.2101L11.6008 13.3015C11.9133 13.6151 12.408 13.634 12.7432 13.3595L12.8083 13.3009C13.1414 12.9662 13.1413 12.4238 12.8083 12.0891L9.72738 8.99562C10.0621 8.46476 10.2748 7.84831 10.3228 7.18594L10.3335 6.89933C10.3331 4.76333 8.63306 3.02628 6.51767 2.97602L8.76812 5.23562Z" fill="#525252"/>
</svg>
