<svg width="16" height="16" viewBox="0 0 16 16" fill="none" xmlns="http://www.w3.org/2000/svg">
<mask id="path-1-inside-1_71_18571" fill="white">
<path d="M7.82397 9.8087C8.45213 9.2807 8.9027 8.57228 9.11458 7.77952C9.32646 6.98676 9.28939 6.14801 9.00841 5.37703C8.72742 4.60605 8.21612 3.94014 7.54383 3.46961C6.87154 2.99908 6.07081 2.7467 5.25022 2.7467C4.42963 2.7467 3.6289 2.99908 2.95661 3.46961C2.28432 3.94014 1.77302 4.60605 1.49203 5.37703C1.21104 6.14801 1.17398 6.98676 1.38586 7.77952C1.59774 8.57228 2.04831 9.2807 2.67647 9.8087C1.69558 10.2522 0.845542 10.941 0.208345 11.8087C0.0906548 11.9691 0.0414932 12.1696 0.0716749 12.3662C0.101856 12.5629 0.208909 12.7394 0.369282 12.8571C0.529655 12.9748 0.730212 13.024 0.926832 12.9938C1.12345 12.9636 1.30003 12.8566 1.41772 12.6962C1.85881 12.0938 2.4357 11.6038 3.10158 11.2661C3.76746 10.9284 4.50358 10.7523 5.25022 10.7523C5.99686 10.7523 6.73298 10.9284 7.39886 11.2661C8.06474 11.6038 8.64163 12.0938 9.08272 12.6962C9.20041 12.8567 9.37702 12.9638 9.5737 12.994C9.77038 13.0243 9.97101 12.9751 10.1315 12.8574C10.2919 12.7398 10.3991 12.5631 10.4293 12.3665C10.4595 12.1698 10.4104 11.9692 10.2927 11.8087C9.65514 10.9411 8.80494 10.2524 7.82397 9.8087ZM2.75022 6.74995C2.75022 6.25549 2.89684 5.77215 3.17155 5.36102C3.44625 4.9499 3.8367 4.62947 4.29351 4.44025C4.75033 4.25103 5.25299 4.20152 5.73795 4.29799C6.2229 4.39445 6.66836 4.63255 7.01799 4.98218C7.36762 5.33181 7.60572 5.77727 7.70218 6.26222C7.79865 6.74718 7.74914 7.24984 7.55992 7.70666C7.3707 8.16347 7.05027 8.55392 6.63914 8.82862C6.22802 9.10333 5.74467 9.24995 5.25022 9.24995C4.58718 9.24995 3.95129 8.98656 3.48245 8.51771C3.01361 8.04887 2.75022 7.41299 2.75022 6.74995ZM15.6315 12.8543C15.5521 12.9127 15.462 12.9548 15.3663 12.9783C15.2706 13.0018 15.1712 13.0062 15.0738 12.9913C14.9764 12.9764 14.8829 12.9424 14.7987 12.8914C14.7144 12.8403 14.641 12.7731 14.5827 12.6937C14.1405 12.0924 13.5634 11.6033 12.8978 11.2657C12.2321 10.9281 11.4966 10.7515 10.7502 10.7499C10.5513 10.7499 10.3605 10.6709 10.2199 10.5303C10.0792 10.3896 10.0002 10.1989 10.0002 9.99995C10.0002 9.80104 10.0792 9.61027 10.2199 9.46962C10.3605 9.32897 10.5513 9.24995 10.7502 9.24995C11.1056 9.24931 11.4567 9.17294 11.7802 9.02591C12.1037 8.87889 12.3921 8.66459 12.6262 8.39731C12.8604 8.13003 13.0349 7.81591 13.138 7.47588C13.2412 7.13585 13.2707 6.77774 13.2246 6.42541C13.1785 6.07308 13.0578 5.73463 12.8705 5.43262C12.6833 5.13062 12.4338 4.872 12.1388 4.67401C11.8437 4.47601 11.5098 4.34319 11.1594 4.28441C10.8089 4.22562 10.45 4.24221 10.1065 4.33307C10.0105 4.36083 9.91 4.36914 9.8108 4.35753C9.7116 4.34591 9.61572 4.3146 9.52878 4.26542C9.44185 4.21625 9.36561 4.15021 9.30455 4.07117C9.24348 3.99213 9.19882 3.9017 9.17317 3.80516C9.14753 3.70863 9.14143 3.60795 9.15522 3.50903C9.16902 3.41011 9.20243 3.31494 9.25351 3.22911C9.30458 3.14327 9.37228 3.06851 9.45264 3.00919C9.533 2.94988 9.6244 2.90721 9.72147 2.8837C10.5999 2.65095 11.5314 2.72424 12.3626 3.09149C13.1938 3.45875 13.8752 4.09809 14.2945 4.90425C14.7139 5.71042 14.8463 6.63535 14.6699 7.52679C14.4935 8.41823 14.0188 9.22303 13.324 9.8087C14.3049 10.2522 15.1549 10.941 15.7921 11.8087C15.9089 11.9688 15.9576 12.1687 15.9275 12.3647C15.8974 12.5606 15.791 12.7366 15.6315 12.8543Z"/>
</mask>
<path d="M7.82397 9.8087L6.53709 8.2777L4.10521 10.3218L6.99978 11.631L7.82397 9.8087ZM2.67647 9.8087L3.50048 11.6311L6.39549 10.322L3.96334 8.2777L2.67647 9.8087ZM0.208345 11.8087L-1.40366 10.6249L-1.40407 10.6254L0.208345 11.8087ZM1.41772 12.6962L3.03013 13.8795L3.0314 13.8777L1.41772 12.6962ZM9.08272 12.6962L7.46903 13.8777L7.47002 13.8791L9.08272 12.6962ZM10.2927 11.8087L11.9054 10.6258L11.9043 10.6243L10.2927 11.8087ZM5.25022 9.24995L5.25022 11.2499L5.25022 9.24995ZM15.6315 12.8543L16.8158 14.466L16.8188 14.4638L15.6315 12.8543ZM14.5827 12.6937L16.1951 11.5104L16.1939 11.5088L14.5827 12.6937ZM10.7502 10.7499L10.7543 8.74995H10.7502L10.7502 10.7499ZM10.7502 9.24995L10.7502 11.25L10.7538 11.2499L10.7502 9.24995ZM10.1065 4.33307L9.59503 2.39957L9.57277 2.40546L9.55065 2.41186L10.1065 4.33307ZM9.72147 2.8837L10.1923 4.82748L10.2131 4.82246L10.2337 4.81698L9.72147 2.8837ZM13.324 9.8087L12.035 8.27948L9.60939 10.324L12.5 11.6311L13.324 9.8087ZM15.7921 11.8087L17.4077 10.6298L17.4041 10.6249L15.7921 11.8087ZM7.82397 9.8087L9.11084 11.3397C10.0531 10.5477 10.7289 9.48507 11.0468 8.29593L9.11458 7.77952L7.1824 7.26311C7.07646 7.65949 6.85117 8.0137 6.53709 8.2777L7.82397 9.8087ZM9.11458 7.77952L11.0468 8.29593C11.3646 7.10678 11.309 5.84866 10.8875 4.69219L9.00841 5.37703L7.12931 6.06187C7.26981 6.44736 7.28834 6.86673 7.1824 7.26311L9.11458 7.77952ZM9.00841 5.37703L10.8875 4.69219C10.466 3.53572 9.69907 2.53685 8.69064 1.83106L7.54383 3.46961L6.39702 5.10816C6.73317 5.34342 6.98882 5.67637 7.12931 6.06187L9.00841 5.37703ZM7.54383 3.46961L8.69064 1.83106C7.6822 1.12527 6.4811 0.746704 5.25022 0.746704V2.7467V4.7467C5.66051 4.7467 6.06088 4.87289 6.39702 5.10816L7.54383 3.46961ZM5.25022 2.7467V0.746704C4.01934 0.746704 2.81823 1.12527 1.8098 1.83106L2.95661 3.46961L4.10341 5.10816C4.43956 4.87289 4.83992 4.7467 5.25022 4.7467V2.7467ZM2.95661 3.46961L1.8098 1.83106C0.801373 2.53685 0.0344128 3.53572 -0.387065 4.69219L1.49203 5.37703L3.37112 6.06187C3.51162 5.67637 3.76727 5.34342 4.10341 5.10816L2.95661 3.46961ZM1.49203 5.37703L-0.387065 4.69219C-0.808542 5.84866 -0.864142 7.10678 -0.546323 8.29593L1.38586 7.77952L3.31804 7.26311C3.2121 6.86673 3.23063 6.44736 3.37112 6.06187L1.49203 5.37703ZM1.38586 7.77952L-0.546323 8.29593C-0.228503 9.48507 0.447355 10.5477 1.38959 11.3397L2.67647 9.8087L3.96334 8.2777C3.64926 8.0137 3.42398 7.65949 3.31804 7.26311L1.38586 7.77952ZM2.67647 9.8087L1.85246 7.98634C0.558406 8.57146 -0.563023 9.48019 -1.40366 10.6249L0.208345 11.8087L1.82034 12.9925C2.25411 12.4019 2.83276 11.933 3.50048 11.6311L2.67647 9.8087ZM0.208345 11.8087L-1.40407 10.6254C-1.83558 11.2134 -2.01583 11.9488 -1.90517 12.6697L0.0716749 12.3662L2.04852 12.0628C2.09882 12.3905 2.01689 12.7247 1.82076 12.992L0.208345 11.8087ZM0.0716749 12.3662L-1.90517 12.6697C-1.79451 13.3906 -1.402 14.038 -0.813987 14.4695L0.369282 12.8571L1.55255 11.2447C1.81982 11.4409 1.99822 11.7351 2.04852 12.0628L0.0716749 12.3662ZM0.369282 12.8571L-0.813987 14.4695C-0.225978 14.9011 0.509368 15.0813 1.23028 14.9707L0.926832 12.9938L0.623382 11.017C0.951056 10.9667 1.28529 11.0486 1.55255 11.2447L0.369282 12.8571ZM0.926832 12.9938L1.23028 14.9707C1.9512 14.86 2.59862 14.4675 3.03013 13.8795L1.41772 12.6962L-0.194693 11.5129C0.00143917 11.2457 0.295709 11.0673 0.623382 11.017L0.926832 12.9938ZM1.41772 12.6962L3.0314 13.8777C3.28677 13.529 3.62076 13.2453 4.00627 13.0498L3.10158 11.2661L2.19689 9.4824C1.25063 9.96235 0.430845 10.6586 -0.195965 11.5147L1.41772 12.6962ZM3.10158 11.2661L4.00627 13.0498C4.39178 12.8542 4.81796 12.7523 5.25022 12.7523V10.7523V8.75234C4.18921 8.75234 3.14314 9.00246 2.19689 9.4824L3.10158 11.2661ZM5.25022 10.7523V12.7523C5.68248 12.7523 6.10866 12.8542 6.49417 13.0498L7.39886 11.2661L8.30355 9.4824C7.3573 9.00246 6.31123 8.75234 5.25022 8.75234V10.7523ZM7.39886 11.2661L6.49417 13.0498C6.87968 13.2453 7.21367 13.529 7.46904 13.8777L9.08272 12.6962L10.6964 11.5147C10.0696 10.6586 9.24981 9.96235 8.30355 9.4824L7.39886 11.2661ZM9.08272 12.6962L7.47002 13.8791C7.90142 14.4672 8.5488 14.8599 9.26976 14.9708L9.5737 12.994L9.87763 11.0173C10.2052 11.0676 10.4994 11.2461 10.6954 11.5133L9.08272 12.6962ZM9.5737 12.994L9.26976 14.9708C9.99071 15.0816 10.7262 14.9016 11.3143 14.4702L10.1315 12.8574L8.9486 11.2447C9.21586 11.0487 9.55004 10.9669 9.87763 11.0173L9.5737 12.994ZM10.1315 12.8574L11.3143 14.4702C11.9025 14.0387 12.2952 13.3914 12.4061 12.6704L10.4293 12.3665L8.45253 12.0625C8.50289 11.7349 8.68133 11.4408 8.9486 11.2447L10.1315 12.8574ZM10.4293 12.3665L12.4061 12.6704C12.5169 11.9495 12.3368 11.214 11.9054 10.6258L10.2927 11.8087L8.68001 12.9916C8.48399 12.7243 8.40216 12.3901 8.45253 12.0625L10.4293 12.3665ZM10.2927 11.8087L11.9043 10.6243C11.0634 9.48006 9.942 8.5716 8.64816 7.98642L7.82397 9.8087L6.99978 11.631C7.66787 11.9331 8.2469 12.4022 8.68113 12.9931L10.2927 11.8087ZM2.75022 6.74995H4.75022C4.75022 6.65106 4.77954 6.55439 4.83448 6.47216L3.17155 5.36102L1.50861 4.24988C1.01414 4.9899 0.750219 5.85993 0.750219 6.74995H2.75022ZM3.17155 5.36102L4.83448 6.47216C4.88943 6.38994 4.96751 6.32585 5.05888 6.28801L4.29351 4.44025L3.52814 2.59249C2.70588 2.93308 2.00307 3.50986 1.50861 4.24988L3.17155 5.36102ZM4.29351 4.44025L5.05888 6.28801C5.15024 6.25016 5.25077 6.24026 5.34776 6.25956L5.73795 4.29799L6.12813 2.33641C5.25521 2.16278 4.35041 2.2519 3.52814 2.59249L4.29351 4.44025ZM5.73795 4.29799L5.34776 6.25956C5.44475 6.27885 5.53385 6.32647 5.60377 6.3964L7.01799 4.98218L8.4322 3.56797C7.80286 2.93863 7.00104 2.51005 6.12813 2.33641L5.73795 4.29799ZM7.01799 4.98218L5.60377 6.3964C5.6737 6.46632 5.72132 6.55541 5.74061 6.6524L7.70218 6.26222L9.66375 5.87204C9.49012 4.99913 9.06154 4.1973 8.4322 3.56797L7.01799 4.98218ZM7.70218 6.26222L5.74061 6.6524C5.7599 6.74939 5.75 6.84993 5.71216 6.94129L7.55992 7.70666L9.40768 8.47202C9.74827 7.64976 9.83739 6.74496 9.66375 5.87204L7.70218 6.26222ZM7.55992 7.70666L5.71216 6.94129C5.67432 7.03265 5.61023 7.11074 5.528 7.16568L6.63914 8.82862L7.75029 10.4916C8.49031 9.9971 9.06708 9.29429 9.40768 8.47202L7.55992 7.70666ZM6.63914 8.82862L5.528 7.16568C5.44578 7.22062 5.34911 7.24995 5.25022 7.24995L5.25022 9.24995L5.25022 11.2499C6.14023 11.2499 7.01026 10.986 7.75029 10.4916L6.63914 8.82862ZM5.25022 9.24995V7.24995C5.11761 7.24995 4.99043 7.19727 4.89667 7.1035L3.48245 8.51771L2.06824 9.93193C2.91215 10.7758 4.05675 11.2499 5.25022 11.2499V9.24995ZM3.48245 8.51771L4.89667 7.1035C4.8029 7.00973 4.75022 6.88256 4.75022 6.74995H2.75022H0.750219C0.750219 7.94342 1.22433 9.08801 2.06824 9.93193L3.48245 8.51771ZM15.6315 12.8543L14.4472 11.2427C14.5795 11.1454 14.7297 11.0752 14.8892 11.036L15.3663 12.9783L15.8434 14.9206C16.1942 14.8344 16.5246 14.6799 16.8158 14.466L15.6315 12.8543ZM15.3663 12.9783L14.8892 11.036C15.0487 10.9969 15.2143 10.9895 15.3766 11.0144L15.0738 12.9913L14.771 14.9683C15.1281 15.0229 15.4925 15.0067 15.8434 14.9206L15.3663 12.9783ZM15.0738 12.9913L15.3766 11.0144C15.5389 11.0392 15.6948 11.0958 15.8352 11.1809L14.7987 12.8914L13.7621 14.6018C14.0711 14.789 14.4139 14.9136 14.771 14.9683L15.0738 12.9913ZM14.7987 12.8914L15.8352 11.1809C15.9756 11.266 16.0979 11.378 16.1951 11.5104L14.5827 12.6937L12.9703 13.877C13.1841 14.1683 13.4531 14.4146 13.7621 14.6018L14.7987 12.8914ZM14.5827 12.6937L16.1939 11.5088C15.5663 10.6554 14.7472 9.96119 13.8024 9.48203L12.8978 11.2657L11.9931 13.0494C12.3796 13.2455 12.7148 13.5295 12.9715 13.8786L14.5827 12.6937ZM12.8978 11.2657L13.8024 9.48203C12.8577 9.00286 11.8136 8.75212 10.7543 8.74995L10.7502 10.7499L10.7461 12.7499C11.1795 12.7508 11.6066 12.8534 11.9931 13.0494L12.8978 11.2657ZM10.7502 10.7499L10.7502 8.74995C11.0817 8.74995 11.3997 8.88165 11.6341 9.11606L10.2199 10.5303L8.80568 11.9445C9.3214 12.4602 10.0209 12.7499 10.7502 12.7499L10.7502 10.7499ZM10.2199 10.5303L11.6341 9.11606C11.8685 9.35048 12.0002 9.66842 12.0002 9.99995H10.0002H8.00022C8.00022 10.7293 8.28995 11.4288 8.80568 11.9445L10.2199 10.5303ZM10.0002 9.99995H12.0002C12.0002 10.3315 11.8685 10.6494 11.6341 10.8838L10.2199 9.46962L8.80568 8.0554C8.28995 8.57113 8.00022 9.2706 8.00022 9.99995H10.0002ZM10.2199 9.46962L11.6341 10.8838C11.3997 11.1182 11.0817 11.2499 10.7502 11.2499V9.24995V7.24995C10.0209 7.24995 9.3214 7.53968 8.80568 8.0554L10.2199 9.46962ZM10.7502 9.24995L10.7538 11.2499C11.3934 11.2488 12.0254 11.1113 12.6077 10.8467L11.7802 9.02591L10.9526 7.20514C10.8879 7.23455 10.8177 7.24982 10.7467 7.24995L10.7502 9.24995ZM11.7802 9.02591L12.6077 10.8467C13.19 10.582 13.7092 10.1963 14.1306 9.7152L12.6262 8.39731L11.1219 7.07942C11.075 7.13288 11.0173 7.17574 10.9526 7.20514L11.7802 9.02591ZM12.6262 8.39731L14.1306 9.7152C14.5521 9.23409 14.8662 8.66866 15.0519 8.05662L13.138 7.47588L11.2242 6.89514C11.2036 6.96315 11.1687 7.02597 11.1219 7.07942L12.6262 8.39731ZM13.138 7.47588L15.0519 8.05662C15.2376 7.44457 15.2907 6.79996 15.2077 6.16577L13.2246 6.42541L11.2415 6.68504C11.2508 6.75551 11.2449 6.82713 11.2242 6.89514L13.138 7.47588ZM13.2246 6.42541L15.2077 6.16577C15.1246 5.53157 14.9074 4.92237 14.5703 4.37876L12.8705 5.43262L11.1707 6.48649C11.2082 6.54689 11.2323 6.61458 11.2415 6.68504L13.2246 6.42541ZM12.8705 5.43262L14.5703 4.37876C14.2333 3.83516 13.7843 3.36964 13.2532 3.01325L12.1388 4.67401L11.0244 6.33476C11.0834 6.37436 11.1333 6.42609 11.1707 6.48649L12.8705 5.43262ZM12.1388 4.67401L13.2532 3.01325C12.722 2.65686 12.1211 2.41779 11.4903 2.31197L11.1594 4.28441L10.8285 6.25684C10.8986 6.2686 10.9653 6.29516 11.0244 6.33476L12.1388 4.67401ZM11.1594 4.28441L11.4903 2.31197C10.8595 2.20615 10.2134 2.23601 9.59503 2.39957L10.1065 4.33307L10.6179 6.26658C10.6866 6.2484 10.7584 6.24509 10.8285 6.25684L11.1594 4.28441ZM10.1065 4.33307L9.55065 2.41186C9.71056 2.3656 9.87809 2.35174 10.0434 2.3711L9.8108 4.35753L9.57818 6.34395C9.94191 6.38655 10.3105 6.35607 10.6623 6.25429L10.1065 4.33307ZM9.8108 4.35753L10.0434 2.3711C10.2088 2.39046 10.3686 2.44265 10.5135 2.52461L9.52878 4.26542L8.54411 6.00623C8.86288 6.18654 9.21444 6.30136 9.57818 6.34395L9.8108 4.35753ZM9.52878 4.26542L10.5135 2.52461C10.6584 2.60657 10.7854 2.71664 10.8872 2.84837L9.30455 4.07117L7.72191 5.29397C7.94581 5.58377 8.22535 5.82593 8.54411 6.00623L9.52878 4.26542ZM9.30455 4.07117L10.8872 2.84837C10.989 2.98009 11.0634 3.13082 11.1061 3.29171L9.17317 3.80516L7.24021 4.31862C7.33423 4.67257 7.498 5.00418 7.72191 5.29397L9.30455 4.07117ZM9.17317 3.80516L11.1061 3.29171C11.1489 3.45258 11.159 3.62039 11.1361 3.78526L9.15522 3.50903L7.17439 3.2328C7.12381 3.59552 7.14619 3.96468 7.24021 4.31862L9.17317 3.80516ZM9.15522 3.50903L11.1361 3.78526C11.1131 3.95014 11.0574 4.10876 10.9723 4.2518L9.25351 3.22911L7.53476 2.20641C7.3475 2.52112 7.22497 2.87008 7.17439 3.2328L9.15522 3.50903ZM9.25351 3.22911L10.9723 4.2518C10.8871 4.39486 10.7743 4.51947 10.6404 4.61833L9.45264 3.00919L8.26492 1.40006C7.97027 1.61754 7.72203 1.89169 7.53476 2.20641L9.25351 3.22911ZM9.45264 3.00919L10.6404 4.61833C10.5064 4.71718 10.3541 4.78829 10.1923 4.82748L9.72147 2.8837L9.25062 0.939912C8.89469 1.02613 8.55957 1.18257 8.26492 1.40006L9.45264 3.00919ZM9.72147 2.8837L10.2337 4.81698C10.6729 4.70061 11.1387 4.73725 11.5543 4.92088L12.3626 3.09149L13.1709 1.2621C11.9241 0.711218 10.5268 0.601288 9.20921 0.950413L9.72147 2.8837ZM12.3626 3.09149L11.5543 4.92088C11.9699 5.10451 12.3106 5.42418 12.5203 5.82726L14.2945 4.90425L16.0688 3.98125C15.4397 2.772 14.4177 1.81299 13.1709 1.2621L12.3626 3.09149ZM14.2945 4.90425L12.5203 5.82726C12.7299 6.23034 12.7961 6.69281 12.7079 7.13853L14.6699 7.52679L16.6318 7.91505C16.8965 6.5779 16.6979 5.19049 16.0688 3.98125L14.2945 4.90425ZM14.6699 7.52679L12.7079 7.13853C12.6197 7.58425 12.3824 7.98665 12.035 8.27948L13.324 9.8087L14.613 11.3379C15.6552 10.4594 16.3672 9.25221 16.6318 7.91505L14.6699 7.52679ZM13.324 9.8087L12.5 11.6311C13.1677 11.933 13.7463 12.4019 14.1801 12.9925L15.7921 11.8087L17.4041 10.6249C16.5635 9.48019 15.442 8.57146 14.148 7.98634L13.324 9.8087ZM15.7921 11.8087L14.1765 12.9876C13.9817 12.7207 13.9006 12.3875 13.9507 12.061L15.9275 12.3647L17.9044 12.6683C18.0147 11.9499 17.8362 11.217 17.4077 10.6298L15.7921 11.8087ZM15.9275 12.3647L13.9507 12.061C14.0009 11.7344 14.1783 11.441 14.4442 11.2449L15.6315 12.8543L16.8188 14.4638C17.4037 14.0323 17.794 13.3868 17.9044 12.6683L15.9275 12.3647Z" fill="#525252" mask="url(#path-1-inside-1_71_18571)"/>
</svg>
