<svg width="16" height="16" viewBox="0 0 16 16" fill="none" xmlns="http://www.w3.org/2000/svg">
<path d="M13 5.33509C12.9999 5.1971 12.888 5.08509 12.75 5.08509H3.75C3.61199 5.08509 3.5001 5.1971 3.5 5.33509V12.5304C3.5 12.6685 3.61193 12.7804 3.75 12.7804H12.75C12.8881 12.7804 13 12.6685 13 12.5304V5.33509ZM7.71875 3.58509H10.3242V2.61145L7.71875 3.58509ZM14.5 12.5304C14.5 13.4969 13.7165 14.2804 12.75 14.2804H3.75C2.7835 14.2804 2 13.4969 2 12.5304V5.33509C2.00009 4.52093 2.55652 3.8381 3.30957 3.6427L3.30566 3.63294L10.1367 1.0802C10.9537 0.774931 11.8242 1.37897 11.8242 2.2511V3.58509H12.75C13.7164 3.58509 14.4999 4.36868 14.5 5.33509V12.5304Z" fill="#525252"/>
<path d="M11.75 8.8304C11.75 9.38268 11.3023 9.8304 10.75 9.8304C10.1977 9.8304 9.75 9.38268 9.75 8.8304C9.75 8.27811 10.1977 7.8304 10.75 7.8304C11.3023 7.8304 11.75 8.27811 11.75 8.8304Z" fill="#525252"/>
</svg>
