<svg width="32" height="32" viewBox="0 0 32 32" fill="none" xmlns="http://www.w3.org/2000/svg">
<path d="M32 16C32 24.8366 24.8366 32 16 32C7.16344 32 0 24.8366 0 16C0 7.16344 7.16344 0 16 0C24.8366 0 32 7.16344 32 16Z" fill="url(#paint0_linear_1302_32745)"/>
<path opacity="0.3" d="M23.4989 16.4404H8.50275C7.59729 16.4404 6.86328 17.1744 6.86328 18.0799V22.6331C6.86328 23.5386 7.59729 24.2726 8.50275 24.2726H23.4989C24.4043 24.2726 25.1383 23.5386 25.1383 22.6331V18.0799C25.1383 17.1744 24.4043 16.4404 23.4989 16.4404Z" fill="white"/>
<path opacity="0.5" d="M24.0197 12.2632H7.97931C7.07386 12.2632 6.33984 12.9972 6.33984 13.9026V18.978C6.33984 19.8835 7.07386 20.6175 7.97931 20.6175H24.0197C24.9252 20.6175 25.6592 19.8835 25.6592 18.978V13.9026C25.6592 12.9972 24.9252 12.2632 24.0197 12.2632Z" fill="white"/>
<path d="M24.5425 7.56348H7.45782C6.55237 7.56348 5.81836 8.29749 5.81836 9.20294V15.8447C5.81836 16.7502 6.55237 17.4842 7.45782 17.4842H24.5425C25.4479 17.4842 26.182 16.7502 26.182 15.8447V9.20294C26.182 8.29749 25.4479 7.56348 24.5425 7.56348Z" fill="white"/>
<defs>
<linearGradient id="paint0_linear_1302_32745" x1="-4.09014e-07" y1="20.3636" x2="27.9273" y2="7.85454" gradientUnits="userSpaceOnUse">
<stop stop-color="#18B1FF"/>
<stop offset="1" stop-color="#83D5FF"/>
</linearGradient>
</defs>
</svg>
